<?xml version="1.0" encoding="UTF-8"?>
<!DOCTYPE svg PUBLIC "-//W3C//DTD SVG 1.1//EN" "http://www.w3.org/Graphics/SVG/1.1/DTD/svg11.dtd">
<!-- Creator: CorelDRAW -->
<svg xmlns="http://www.w3.org/2000/svg" xml:space="preserve" width="69.1454mm" height="69.1454mm" version="1.1" style="shape-rendering:geometricPrecision; text-rendering:geometricPrecision; image-rendering:optimizeQuality; fill-rule:evenodd; clip-rule:evenodd"
viewBox="0 0 6914.54 6914.54"
 xmlns:xlink="http://www.w3.org/1999/xlink"
 xmlns:xodm="http://www.corel.com/coreldraw/odm/2003">
 <defs>
  <style type="text/css">
   <![CDATA[
    .str1 {stroke:black;stroke-width:16.93;stroke-miterlimit:22.9256}
    .str0 {stroke:black;stroke-width:7.62;stroke-miterlimit:22.9256}
    .fil3 {fill:none}
    .fil1 {fill:black}
    .fil2 {fill:#8800B5}
    .fil0 {fill:white}
   ]]>
  </style>
   <clipPath id="id0">
    <path d="M1920.77 1436.57l3073 0c266.32,0 484.2,217.88 484.2,484.2l0 3073c0,266.32 -217.88,484.2 -484.2,484.2l-3073 0c-266.32,0 -484.2,-217.88 -484.2,-484.2l0 -3073c0,-266.32 217.88,-484.2 484.2,-484.2z"/>
   </clipPath>
 </defs>
 <g id="Camada_x0020_1">
  <metadata id="CorelCorpID_0Corel-Layer"/>
  <g id="_2438747006288">
   <path class="fil0" d="M1920.77 423.34l3073 0c823.59,0 1497.43,673.84 1497.43,1497.43l0 3073c0,823.59 -673.84,1497.43 -1497.43,1497.43l-3073 0c-823.59,0 -1497.43,-673.84 -1497.43,-1497.43l0 -3073c0,-823.59 673.84,-1497.43 1497.43,-1497.43z"/>
  </g>
  <rect class="fil1" x="606.7" y="606.7" width="5701.14" height="5701.14" rx="1314.07" ry="1314.07"/>
  <path class="fil2" d="M1920.77 1436.57l3073 0c266.32,0 484.2,217.88 484.2,484.2l0 3073c0,266.32 -217.88,484.2 -484.2,484.2l-3073 0c-266.32,0 -484.2,-217.88 -484.2,-484.2l0 -3073c0,-266.32 217.88,-484.2 484.2,-484.2z"/>
  <g style="clip-path:url(#id0)">
   <g id="_2438746980896">
    <g>
     <path id="_1" class="fil1 str0" d="M1414.22 3953.75c71.6,5.29 92.72,12.56 159.16,35.09l38.66 14.42c24.11,11.96 6.37,1.7 18,10.63 -74.9,5.66 -136.91,19.85 -215.82,20.21l0 1.42c0.04,29.11 1.24,17.29 7.29,25.28l304.1 -9.28c81.78,-11.14 214.4,-20.12 278.81,16.69 21.77,12.44 79.87,65.22 158.47,111.18l25.48 18.25c7.8,5.75 13.45,9.51 21.84,14.6l73.3 50.59c18.59,16.92 57.17,72.85 63.56,96.78 25.87,-6.91 29.45,-28.64 51.02,-36.45 -7.61,-28.48 -32.28,-44.87 -53.11,-63.49l-19.76 -16.69c-39.57,-33.18 -72.05,-79.96 -110.76,-100.58 -33.56,-17.88 -49.92,-21.91 -70.37,-53.53 -32.31,-49.97 -52.68,-119.55 -9.77,-175.23 37.25,-48.33 99.95,-91.06 146.58,-130.36 1.16,-0.97 2.85,-2.31 4,-3.29l58.2 -58.41c100.27,-109.94 199.32,-217.82 368.57,-215.06 95.96,1.57 181.16,37.81 256.55,78.89l52.58 34.88c64.47,45.05 115.89,82.54 161.23,152.15l107.01 140.78c40.18,47.43 63.39,103.31 88.78,159 25.1,55.04 48.92,130.35 26.32,185.48 -15.83,38.61 -25.17,56.46 -51.83,86.84l-108.82 124.38c-38.68,50.68 -90.36,96.96 -135.59,141.36l-61.19 33.55c0,108.28 38.36,4.21 -35.93,205.07 -16.96,45.85 -14.89,86.64 -24.23,135.61 -23.6,123.73 -54.92,152.35 -139.16,217.95 -1.2,0.93 -2.85,2.3 -4.03,3.25 -1.17,0.96 -2.76,2.4 -3.92,3.37 -17.48,14.7 -21.63,22.9 -47.81,25.07l0 14.58c75.85,0 106.57,-36.32 184.64,12.48 33.79,21.13 21.04,10.69 54.85,12.53 26.66,1.45 53.19,19.48 81.18,26.01 0,-66.28 -14.38,-106.27 -26.08,-170.69 -25.87,-142.43 -5.09,-219.75 31.87,-355.54 8.49,-31.21 11.74,-52.66 23.29,-78.74 3.65,-8.24 11.3,-25.06 16.91,-34.11 25.51,-41.17 70.09,-49.95 127.49,-142.16 61.51,-98.81 141.99,-139.36 198.11,-224.59 17.67,-26.83 26.55,-35.9 53.1,-56.22 20.36,-15.58 49.24,-26.51 56.32,-53 -66.09,-17.65 -158.18,-182.54 -191.97,-252.6 -34.77,-72.09 -48.28,-172.09 17.67,-235.08 1.53,-1.46 6.25,-5.33 7.82,-6.75l43.72 -43.74c124.31,-112.93 260.02,-218.92 418.27,-281.37 28.79,-11.36 53.95,-17.16 82.56,-26.76 180.33,-60.54 226.97,-71.09 402.82,72.69l139.72 137.22c28.97,32.61 51.07,64.69 66.3,108.61 39.34,113.46 37.73,257.79 -41.59,350.76 -36.36,42.63 -75.61,70.57 -132.93,93 -71.02,27.79 -133.69,11.14 -200.21,11.14 28.8,39.31 66.67,67.39 91.17,112.88 7.08,13.15 11.91,24.43 16.86,34.17 17.34,34.15 43.46,70.07 52.3,108.02 60.23,-44.12 -25.91,-150.76 209.1,-279.19 21.17,-11.57 48.73,-26.3 68.61,-33.43 22.11,-7.93 51.92,-14.34 76.7,-12.22 17.9,1.53 19.83,2.12 39.92,2.22l42.95 1.96 0 -43.73c-69.94,-37.01 -100.52,-60.95 -102.2,-152.88 -2.22,-121.54 -28.19,-148.45 -29.28,-233.09 -1.47,-114.43 3.34,-141 63.87,-199.08 68.17,-65.42 171.21,-94.31 262.78,-123.48 28.72,-9.15 59.4,-24.7 95.39,-35.79 64.94,-20.03 153.57,-31.56 235.02,-14.48 130.51,27.37 127.19,22.08 56.42,-70.99 -63.95,-84.11 -42.01,-75.79 -42.74,-205.14 -0.3,-51.13 7.11,-72.78 7.62,-116.27 0.53,-45.1 -0.07,-88.97 6.51,-124.67 18.98,-102.95 127,-92.44 206.72,-121.24 44.34,-16.01 69.47,-61.22 106.05,-90.73 62.09,-50.07 91.47,-75.61 189.79,-41.82 79.32,27.25 283.56,122.72 324.04,193.39 33.71,58.86 32.21,143.73 44.67,218.05 19.66,117.29 -47.57,124.7 -61.82,178.08 42.6,20.44 143.01,18.98 201.48,39.01 25.69,8.81 34.57,17.1 60.88,19.29 -17.63,-75.68 -106.48,-186.55 -51.78,-328.73 7.73,-20.09 7.22,-13.72 13.31,-30.41 4.76,-13.04 5.69,-20.66 10.26,-33.46l70.08 -177.72c41.04,-127.18 72.35,-169.16 195.58,-219.83 42.45,-17.46 71.24,-45.67 112.37,-55.25l0 -102.03c-55.91,14.93 -61.36,86.83 -223.67,4.99 -73.55,-37.09 -29.61,-78.55 -83.04,154.73 -10.01,43.7 -17.22,78.62 -41.97,111.07 -50.11,65.71 -54.51,156.96 -158.34,142.12 -114.67,-16.39 -168.84,-82.23 -250.65,-150.81 -4.97,-4.16 -1.8,-2.62 -12.03,-9.84 -20.46,-14.43 -5.41,-4.73 -28.77,-14.95l-104.83 -48.22c-35.58,-18.28 -64.56,-37.38 -84.42,-75.92 -36.63,-71.1 -27.66,-191.81 -6.19,-261.68 8.98,-29.2 33.83,-78.85 47.97,-105.08 26.61,-49.36 32.15,-54.83 71.39,-88.94 -110.26,0 -228.61,-21.05 -286.56,-114.27 -31.76,-51.08 -51.55,-83.61 -34.52,-148.47 7.67,-29.23 16.37,-49.24 29.74,-72.33 14.43,-24.93 29.4,-37.34 43.56,-58.48l-59.88 0c-32.72,58.24 -37.19,83.51 -56.61,153.21 -19.13,68.68 -31.88,88.92 13.59,139.33 72.05,79.89 185.37,99.95 286.97,115.55l-28.06 25.09 -62.23 134.69c-3.51,-44.46 10.79,-48.38 -4.64,-103.54 -9.6,-34.29 -16.94,-48.22 -45.37,-63.57 -49.72,-26.84 -96.39,-46.9 -153.09,-65.18 29.77,71.98 165.16,90.5 124.96,270.39 -13.84,61.93 -63.72,124.2 -84.53,221.57 -15.51,72.55 21.74,89.51 -47.05,200.73l-48.57 53.47c-10.55,10.31 -16.82,13.74 -29.65,21.36 -70.79,42.03 -179.32,51.48 -235.8,11.92l-49.52 -52.51c-16.64,-19.12 -31.65,-36.95 -37.97,-64.06l-65.59 87.45c63.58,14.81 127.62,68.24 161.99,122.24 78.06,122.67 20.68,247.92 14.13,337.63 -7.23,98.89 -26.72,171.78 -122.64,206.13 -30.73,11.01 -52.04,5.53 -96.16,6.33l-10.36 0.01c-16.34,0.65 -17.42,1.18 -28.74,3.24 -201.86,36.73 -203.32,74.55 -269.31,95.68 -53.24,17.04 -189.29,-4.43 -249.73,-17.39 -37.63,-8.07 -66.41,-31.04 -96.69,-49.07 -94.05,-55.98 -79.2,-114.44 -80.44,-170.76 -0.54,-24.37 14.56,3.39 -6.54,-25.35 -25.79,40.4 -39.85,157.06 -7.63,196.09 19.56,23.68 105.35,64.21 147.04,86.28 69.63,36.85 123,132.71 236.47,54.17l61.46 -43c1.12,-0.84 3.93,-1.21 4.74,-3.87 0.83,-2.7 3.25,-2.59 4.79,-3.98 -1,-14.87 -1.88,-6.87 2.38,4.25 130.37,-42.88 265.9,-107.58 411.2,-124.52l-183.59 77.48c-31,10.76 -63.03,17.98 -95.21,28.36l-81.93 29.7c-1.21,0.67 -4.19,4.74 -5.05,3.24 -0.88,-1.52 -3.43,2.17 -5.06,3.36 -1.79,12.39 1.26,8.94 -3.92,-2.35 -61.55,26.22 -68.14,32.98 -111.45,63.98 -87.51,64.28 -35,225.31 -15.29,341.02 10.28,60.35 6.03,145.47 17.83,193.41 21.53,87.45 81.24,42.37 107.81,95.56 -43.06,-12.13 -54.63,-33.31 -114.74,-21.41 -28.94,5.73 -72.24,21.35 -81.41,36.68 40.37,-48.02 68.05,-77.61 65.51,-167.4 -2.12,-75.41 -48.19,-330.3 -73.41,-384.58 -68,-146.32 -261.29,-251.81 -436.04,-249.47 -39.99,0.54 -56.11,15.39 -91.47,25 -132.49,36 -226.58,-7.97 -282.27,52.13 -22.64,16.69 -53.61,61.89 -77.87,83.57l-164.94 148.1c-138.03,107.95 -231.81,128.96 -211.51,248.95 9.87,58.33 37.83,116.65 66.51,166.13 5.2,8.97 11.14,19.58 13.72,23.34l18.89 22.29c12.07,-0.08 9.15,-2.7 -0.15,2.82 14.75,30.51 52.4,82.98 70.16,104.56 65.15,79.18 56.96,43.83 100.03,69.91 -52.91,6.72 -83.58,-6.44 -111.31,37.69 -19.78,31.49 -21.56,61.18 -45.22,92.89 -19.04,25.5 -45.06,58.96 -63.09,75.16 -16.77,15.07 -21.22,18 -36.76,36.13 -17.23,20.11 -18.15,21.73 -43.05,30.86 15.8,-29.64 66.86,-65.71 92.08,-98.47 30.23,-39.27 45.67,-52.62 65.23,-108.9 33.13,-95.33 4.34,-201.94 -57.07,-260.15 -6.46,8.4 -1.76,7.58 -7.29,-1.54 -11.64,-7.06 -9.56,-1.98 4.03,-7.29 -9.24,-23.54 -1.56,-7.1 -18.2,-29.72 -46.52,-63.24 -58.32,-96.94 -86.4,-175.72 -34.26,-96.13 -77.91,-100.09 -161.79,-141.59 -6.94,7.06 -2.22,5.56 -7.37,-2.79 -15.02,-23.74 -7.53,-12.73 -27.61,-26.88 57.38,18.86 91.34,40.82 159.34,48.37 166.91,18.54 254.02,-110.2 346.99,-183.92 6.37,-5.05 21.41,-14.21 30.43,-20.86l79.69 -81.01c103.5,-156.15 44.52,-210.21 -24.5,-394.26l-51.85 -130.29c-7.63,-13.85 -4.05,-7.57 -9.55,-14.65 -11.34,-4.03 -9.54,0.06 1.84,-5.46 -75.19,-197.19 -92.57,-268.45 -327.3,-282.28 31.62,10.33 65.43,-6.29 88.55,-20.11 36.91,-22.06 31.27,-28.88 54.72,-63.69 16.35,39.89 14.38,81.75 42.16,112.16 21.29,23.31 61.29,38.79 106.41,30.77 44.98,-8 173.96,-81.76 192.68,-112.09 -3.36,-15.44 -2.84,-6.61 1.28,2.71 14.04,-7.94 3.75,-2 14.38,-9.64 70.95,-51.07 133.68,-118.95 172.19,-149.03 142.18,-111.04 30.58,-343.99 31.35,-565.54 0.4,-114.57 9.54,-219.28 1.67,-335.25l-44.68 0c0,37.58 -2.46,77.77 3.17,113.63 10.46,66.67 -26.36,185.19 8.03,319.73 17.19,67.3 37.09,114.48 32.59,200.74 -2.84,54.45 -23.37,192.01 -60.37,238.45l-33.75 39.13c-0.98,1.15 -2.36,2.8 -3.34,3.94l-108.8 102.56c-45.97,36.15 -221.25,109.95 -271.97,72.17 -2.02,-1.5 -23.78,-27.65 -26.75,-31.55 -18.1,-23.81 -41.28,-122.62 -41.68,-140.52 -32.1,8.57 -27.63,32.23 -45.56,63.76l-31.71 41.17c-17.71,21.05 -25.03,26.63 -46.32,41.13 -32.25,21.95 -35.35,14.19 -65.89,28.85 17.22,25.72 20.33,23.82 46.49,33.67 1.69,0.63 3.58,1.39 5.29,2 173.01,62.69 160.07,11.6 247.1,226.61l109.03 269.94c21.43,41.78 54.85,72.05 51.87,138.23 -3.77,83.76 -98.65,193.94 -150.94,250.58 -1.02,1.1 -2.45,2.71 -3.49,3.8 -1.03,1.08 -2.53,2.64 -3.58,3.7 -58.99,59.33 -128.71,106.98 -212.66,129.87 -67.09,18.3 -172.59,25.44 -242.22,-1.59 -121.94,-47.35 -212.84,-86.16 -247.39,-226.33 -17.84,-72.36 -4,-178.5 18.16,-250.81 14.09,-45.99 22.36,-34.99 25.23,-69.52 -106.9,0 -58.51,-17.63 -109.32,-21.86 0,130.61 -0.14,325.62 -135.92,403.39 -88.36,50.61 -178.66,44.51 -250.66,-9.53 -1.21,-0.91 -2.84,-2.31 -4.02,-3.26 -37.55,-30.06 -45.81,-46.43 -65.16,-87.89 -43.43,-93.1 -17.17,-80.28 -85.14,-191.79 -55.28,-90.68 -49.91,-175.06 -49.37,-278.59 0.23,-45.03 -6.6,-68.7 -7.34,-101.98 -28.59,6.66 -25.22,3.54 -40.73,32.15 -27.14,50.09 -28.4,73.29 -45.79,121.83 -19.51,54.43 -25.44,71.61 -69.96,104.95 -21.5,16.09 -23.08,8.16 -25.72,39.87 46.76,1.04 76.21,28.51 104.9,55.44 38.93,36.55 -29.31,-30.97 7.46,7.11 1.29,1.34 9.56,10.99 10.15,11.71 1.35,1.65 5.01,6.58 6.33,8.25 0.94,1.2 2.29,2.87 3.23,4.06 0.94,1.2 2.31,2.85 3.24,4.05l65.22 116.97c15.46,33.35 27.4,63.68 45.76,92.72 94.12,148.92 132.03,211.38 -28.65,391.05l-58.3 51.01c-88.9,66.34 -172.66,103.46 -280.61,134.8 -149.11,43.3 -208.79,48.04 -346.56,13.36 -25.8,-6.49 -100.39,-16.16 -115.2,-23.27l0 38.71z"/>
     <path class="fil1 str0" d="M5211.22 5175.85c-48.6,55.92 -138.54,146.86 -215.53,99.43 -14.44,-8.9 -20.45,-13.51 -36.33,-22.48 -82.88,-46.82 -128.1,-37.96 -138.89,-152.8 -2.96,-31.5 7.2,-66.04 21.62,-89.21 19.08,-30.65 32.96,-37.58 70.33,-46.29 18.05,-77.47 6.67,-97.22 96.65,-129.27 32.3,-11.5 40.64,-2.28 56.39,-23.77 -45.84,0 -73.87,-2.46 -114.62,-9.27 -15.49,-2.59 -36.18,-9.2 -54.27,-13 -24.74,-5.21 -30.51,-10.92 -34.96,14.67 -9.35,53.85 9.21,56.64 -17.03,107.38l-64.14 96.2c-52.1,73.6 -104.48,141.27 -192.49,157.36 -55.1,10.08 -70.39,-3.52 -120.1,-3.52 0,25.64 6.07,76.18 -21.86,87.45l0 21.86c74.8,6.23 31.06,30.62 80.17,43.73 13.93,-52.18 102.34,-97.07 149,-99.94l20.89 -0.92c138.12,-7.82 187.59,66.85 258.84,123.98 19.81,15.89 39.72,24.68 62.53,39.5 35.26,22.9 34.42,16.69 54.44,40.31 61,71.95 101.64,197.49 95.97,290.86 -2.76,45.42 -14.14,29.26 -15.15,79.69 -1.3,65.23 -5.7,124.72 -58.06,138.71 -58.57,-4.88 -54.22,-61.01 -109.32,-65.59 -3.31,39.78 -21.87,55.58 -21.87,123.89 117.82,-9.81 224.81,38.9 285.91,136.8 16.89,27.07 41.38,77.23 42.65,111.08 2.52,67.53 -56.69,172.37 -95.3,196.73 -31.34,19.77 -63.42,27.58 -110.2,27.13 -29.26,-0.27 -94.7,2.36 -115.77,31.13 141.94,3.16 189.72,40.04 298.52,102.31 80.05,45.82 155.59,132.69 197.06,211.07l69.14 0c-27.86,-117.04 -264.95,-279.68 -347.33,-298.66 19.7,-17.3 94.87,-27.16 118.99,-131.53 12.28,-53.12 24.02,-185.26 18.68,-240.64 -8.66,-89.75 -44.86,-110.11 -122.58,-129.55 -64.05,-16.02 -151.97,-49.79 -216.37,-35.9l11.11 -56.04c40.9,18.38 135.66,94.51 188.55,37.48 54.67,-58.95 28.06,-157.04 35.09,-237.99 54.42,136.34 -46.57,363.55 229.53,297.63 31.35,-7.48 120.41,-35.38 135.49,-35.63 -38.28,12.15 -79.09,35.01 -123.79,48.01 -50,14.54 -88.54,28.8 -104.87,77.16 -35.92,106.39 -11.75,229.52 -38.78,324.76 -35.56,125.26 1.22,114.96 103.91,213.37 65.7,62.95 147.45,107.97 253.44,114.53l-15.84 12.33c-1.51,1 -3.47,2.3 -5.13,3.33 -2.58,1.6 -15.82,8.27 -19.7,10.24 -25.74,13.14 -22.5,6.23 -36.16,27.1l57.33 0c8.33,-2.09 16.31,-7.17 31.36,-18.44 21.56,-16.15 48.52,-28.55 62.16,-47.16 -51.38,0 -134.19,-28.91 -173.91,-44.73l-123.84 -72.93c-0.62,-0.55 -13.64,-14.4 -14.17,-14.98 -19.29,-20.66 -34.93,-32.92 -49.04,-60.28 -34.88,-67.65 -35.92,-210.84 -23.39,-278.83 18.41,-99.87 93.95,-216.32 193.84,-250.77l80.01 -29.31c78.55,-20.89 175.03,-16.56 249.93,7.51 20.95,6.73 21.01,10.46 42.76,15.53 -1.14,-51.6 -42.94,-93.74 -59.25,-137.51 -14.48,-38.83 -35.91,-113.29 -79.22,-124.85 -11.61,49.85 -15.42,124.32 -61.03,157.6 -17.9,13.06 -136.28,52.53 -164.78,54.22 -72.36,4.29 -158.59,-26.84 -205.29,-64.95l-17.64 -18.79c-63.42,-75.56 -95.83,-137.58 -113.4,-243.71 -16.56,-100 -54.03,-219.74 -12.63,-320.68 63.99,-156.07 87.65,-132.32 156.51,-237.04 28.31,-43.06 57,-88.89 94.78,-123.85 99.18,-91.76 264.76,-167.1 395.26,-98.11 55.82,29.52 81.01,46.33 120.79,97.85 38.81,50.28 89.91,90.45 138.05,131.6 1.61,1.38 6.28,5.3 7.92,6.66l23.76 19.96c21.06,18.82 36.95,35.19 53.13,56.19 36.28,47.09 61.55,84.53 87.44,138.49 23.91,-6.39 55.54,-40.18 96.79,-56.26 126.16,-49.2 248.02,-74.93 384.21,-74.93l0 -138.47c-84.76,-1.88 -56.22,-9.82 -140.56,27.06 -28.73,12.56 -122.18,13.91 -151.04,16.09 -129.52,9.78 -196.95,-18.08 -286.51,-62.65l-115.42 -66.77c-51.06,-41.7 -86.18,-92.14 -131.79,-137.86 -16.73,-16.78 -31.72,-32.21 -41.76,-52.98 -65.6,-135.65 32.37,-296.65 78.33,-424.18 8.2,-22.76 2.51,-10.64 12.43,-31.3 24.3,-50.57 43.01,-105.56 81.87,-144.06 134.31,-133.05 336.71,-23.87 542.13,-99.21 50.73,-18.61 89.38,-0.72 152.32,-0.72l0 -138.47c-127.31,10.6 -270.78,78.15 -371.4,80.45 -154.42,3.53 -107.56,17.24 -239.99,44.23 -112.65,22.96 -350.14,-6.69 -446.19,-87.4 -38.1,-32.02 -70.22,-90.85 -86.62,-102.87 -14.84,10.88 -14.56,16.26 -27.38,30.93 -39.96,45.73 -77.52,48 -125.66,71.1 7.02,26.32 24.34,34.65 14.57,58.31 106.05,-8.83 81.67,18.96 130.77,7.69 136,-31.2 287.91,27.75 311.37,177.44 9.04,57.68 -14.69,90.59 -29.42,132.84 -10.19,29.24 -13.05,32.93 -26.03,54.13 -53.65,87.66 -100.59,170.03 -191.29,231.41 -19.03,12.88 -27.6,20.42 -47.34,32.83 -57.18,35.96 -109.63,74.27 -186.82,43.8 -69.17,-27.3 -120.2,-117.93 -253.75,-161.71 -98.38,-32.25 -88.63,-69.01 -144.49,-110.59 -49.95,-37.17 -109.73,-55.55 -155.39,-99.68 -17.5,-16.91 -26.35,-34.58 -41.66,-45.8 -12.65,26.36 -18.99,60.18 -32.13,91.77 -18.16,43.67 -23.09,47.61 -53.34,77.83l-70.76 53.13c-13.65,8.99 -28.21,16.15 -42.06,23.54l-121.91 67.57c-63.81,35.44 -94.55,93.71 -174.97,87.03 -43.67,-3.64 -64.31,-20.3 -102.44,-29.19 0,117.94 41.8,182.36 -28.37,263.15 -62.79,72.28 -116.17,152.53 -166.92,233.91l-99.84 104.22c-43.43,23.33 -50.83,32.77 -105.7,32.77l0 14.58c135.53,3.02 137.09,96.33 155.54,165.13 11.38,42.45 21.99,97.59 22.22,127.68 0.15,19.74 -0.04,30.37 -7.16,59.65 -7.49,30.84 -10.27,33.73 -10.27,70.24 45.85,-22 140.6,-51.46 189.57,-51.62l201.22 47.09c83.1,32.7 86.06,73.73 90.3,157.53 6.19,122.4 -20.67,165.36 -14.03,217.86 14.85,117.43 84.59,135.44 -7.5,285.47 -48.95,79.74 -37.29,104.55 -46.28,201.79 -6.76,73.06 55.75,93.12 89.42,147.77 15.22,24.7 30.2,54.12 43.9,80.01l179.08 0c34.77,-5.83 60.4,-19.91 68.7,-51.02 -21.31,-0.47 -27.86,-1.72 -44.01,-7 -57.02,-18.64 -127.29,-55.47 -160.73,-108.92 -35.82,-57.25 -44.36,-175.75 12.24,-229.63 84.07,-80.02 9.06,-113.57 -26.3,-251.89 -27.12,-106.07 -34.97,-165.36 -4.07,-274.06 20.33,-71.51 45.2,-108.54 76.27,-164.23 7.06,-12.66 2.73,-6.94 12.3,-16.85 62.06,-64.2 162.87,-9.1 89.55,-90.3l-37.08 -43.38c-11.46,-11.99 -14.8,-15.04 -27.48,-23.53 -0.9,40.19 -12.53,69.62 -36.03,87.87 -39.21,30.46 -162.81,43.61 -212.87,29.84 -100.35,-27.61 -257.45,-45.29 -303.31,-82.95 -16.32,-13.4 -18.33,-17.58 -27.81,-37.78 -26.06,-55.46 -53.26,-217.51 -29.51,-271.27 9.44,-21.37 12.59,-19.53 23.48,-42.11l47.16 -84.02c7.68,-11.94 17.79,-25.3 27.6,-37.99l29.59 -36.01c26.07,-38.08 33.29,-83.98 71.63,-117.84 28.3,-24.99 47.67,-26.19 71.96,-59.23 92.39,-125.65 92.85,-90.06 194.16,-192.1l66.79 -64.39c12.65,-13.51 19.64,-20.94 31.62,-33.97 56.7,-61.62 63.91,-71.97 139.56,-115.52 60.46,-34.79 140.66,-31.61 206.26,-0.75 44.74,21.04 73.5,57.73 117.35,79.41 65.38,32.32 218.97,66.32 240.43,145.83 42.9,158.87 -32.25,264.47 -103.8,388.79l-51.4 79.79z"/>
     <path class="fil1 str0" d="M2879.09 4228.42c55.97,105.78 15.75,225.89 -92.13,279.55 -77.11,38.36 -114.79,53.08 -176.72,107.51 -1.13,0.99 -2.72,2.45 -3.82,3.47 -1.11,1.01 -2.64,2.54 -3.72,3.57 -0.29,0.27 -7.58,7.75 -10.91,10.96l-73.79 57.38c-77.02,57.4 -156.56,43.17 -207.37,55.01 1.36,61.06 168.37,244.79 0.31,459.45 -31.12,39.75 -35.26,13.32 -94.06,88.13l-119.75 128.04c-14.83,12.4 -17.56,11.77 -32.52,25.78 -118.17,110.59 -269.76,181.41 -437.14,156.67 -33.71,-4.99 -62.61,-18.83 -95.38,-28.52 -31.33,-9.27 -75.59,-6.02 -117.87,-6.02l0 145.76 453.08 -49.79c43.24,-7.07 95.39,-25.2 134.41,-40.5 99.88,-39.16 127.32,-229.75 323.52,-128.37 20.69,10.69 37.84,16.32 60.29,27.16 25.39,12.27 29.45,20.25 57.85,29.61 76.75,25.29 180.49,55.51 237.64,97.6 147.75,108.81 80.35,222.33 36.04,368.67 -16.64,54.95 -12.96,89.23 -12.87,162.05 0.28,224.01 -43.49,201.1 -51.01,291.51 11.16,6.27 8.6,4.04 25.67,7.29 -3.12,-2.77 -7.52,-11.77 -11.1,-13.99l13.95 -15.16c-4.43,-14.38 -4.13,-7.82 0.63,-0.3 77.29,-47.98 54.55,-219.55 70.34,-314.07 37.08,-221.93 188.16,-384.36 -81.47,-549.26 -81.14,-49.62 -59.91,-7.2 -188.82,-102.6 -23.81,-17.62 -35.48,-30.83 -58.83,-43.09 -55.63,-48.79 -194.72,-38.5 -252.04,18.16 -4.33,8.4 0.43,9.89 -6.63,2.93l-29.5 11.59c44.04,-83.83 174.83,-27.31 250.4,-296.94 17.95,-64.06 52.36,-151.94 49.17,-220.46 -2.26,-48.41 -10.89,-67.02 -37.32,-101.45 -12.91,-16.83 -49.53,-61.58 -54.76,-78.24 109.1,50.26 154.45,10.52 212.73,-48.98 26.3,-26.85 47.46,-52.83 73.49,-79.81 40.69,-42.17 35.66,-42.31 87.04,-69.97 -12.07,10.74 -21.14,25.02 -33.22,36.81 -66.55,41.12 -15.48,86.14 -8.24,100.13 -87.39,-4.01 -123.04,48.87 -157.19,91.22 -11.8,14.64 -13.08,15.49 -23.31,35.51 -7.18,14.06 -14.69,31.19 -20.03,46.27 -17.58,49.71 -34.92,197.35 -70.43,308.05 -53.67,167.32 22.65,243.44 157.73,318.65 58.04,32.32 121.47,53.46 174.14,81.26 49.13,25.93 99.52,75.51 161.27,86.19 40.13,6.94 62.55,-10.06 111.71,-1.56 34.68,6 76.07,13.48 109.36,14.69 -86.26,17.97 -239.5,-56.99 -274.93,136.54 -38.91,212.46 -114.17,509.11 -43.29,712.03 65.99,188.93 139.22,185.21 153.89,256.52l42.12 0c-12.21,-45.72 -122.16,-216.85 -153.3,-283.98 -27.87,-60.07 -29.38,-106.09 -18.27,-179.3 9.24,-60.86 -12.91,-136.58 -0.57,-211.72l43.53 -175.12c49.11,-150.44 73.3,-183.35 220.34,-216.16 20.61,-4.6 50.64,-1.58 86.34,-9.13 71.8,-15.18 148.76,-37.92 224.33,2.51 20.32,10.87 18.83,12.25 35.44,22.86 26.98,17.22 37.21,28.45 63.47,45.85 23.54,15.59 42.07,26.91 64.19,45.14l50.97 58.35c71.72,99.71 141.29,163.83 141.66,302.9 0.14,51.36 -3.46,56.71 16.56,92.76 15.81,28.47 28.51,36.62 38.88,70.43 31.23,101.76 10.04,166.1 63.39,271.86 20.75,41.12 58.94,111.84 63.18,162.75l145.75 0c-4.86,-58.51 -54.68,-111.43 -87.39,-153.1 -41.34,-52.65 -64.96,-85.69 -82.83,-157.68 -21.86,-88.07 -48.6,-188.21 -16.2,-276.49 11.73,-31.95 50.1,-67.63 81.89,-78.64 51.31,-17.78 91.28,9.89 122.18,28.79l82.55 35.24c4.65,1.21 17.98,3.18 30.99,4.27l-49.02 -118.51c-13.19,-20.35 -15.82,-45.89 -14.45,-62.24 3.25,-39.06 23.97,-40.64 -2.12,-59.75 -12.63,54.2 -43.41,112.82 -102.44,123.97 -30.34,5.74 -53.57,0.64 -87.12,-7.25 -30.98,-7.28 -64.58,-12.32 -88.51,-28.14 -23.43,-15.49 -48.55,-52.72 -69.09,-76.67 -0.98,-1.15 -2.36,-2.8 -3.34,-3.95 -0.97,-1.16 -2.34,-2.82 -3.31,-3.98l-139.67 -151.84c-17.92,-24.09 -30.34,-37.17 -48.07,-61.26l-69.58 -105.32c-0.81,-1.4 -1.78,-3.31 -2.59,-4.71l-5.43 -9.14c-59.31,-99.57 -8.16,-212.14 -0.8,-313.52 7.83,-107.74 1.89,-110.91 80.64,-152.58 -7.95,-29.78 -30.84,-51.19 -43.37,-73.23 -16.35,-28.76 -23.44,-54.98 -22.73,-101.8 2.83,-185.08 193.4,-250.71 379.74,-204.19 29.81,7.44 68.53,21.37 101.77,22.12 -21.69,-29.61 -71.22,-25.45 -98.35,-61.99 -34.84,-46.93 -10.7,-65.49 -58.72,-101.61 -44.7,-33.61 -79.95,-94.66 -91.54,-148.96 -2.21,-10.35 -3.05,-20.29 -6.03,-30.41 -5.82,-19.73 -3.72,-15.73 -15.01,-28.72 -47.16,202.41 54.19,331.35 -249.78,369.7 -75.88,9.58 -116,7.43 -172.92,-19.88 2.19,26.29 19.53,41.85 34.77,59.97 110.43,131.3 87.84,230.21 61,392.91 -5.44,32.97 -9.33,47.3 -17.09,77.65 -21.84,85.45 -23.07,212.71 -86.82,277.58l-24.21 19.51c-66.16,44.52 -140.75,62.18 -229.98,54.19 -32.23,-2.89 -51.92,-18.81 -74.88,-27.16 -29.33,-10.66 -47.56,-14.75 -76.08,-25.95 -72.45,-28.44 -129.9,-61.22 -194.6,-96.91 -41.3,-22.79 -91.68,-39.75 -129.41,-67.37 -54.04,-39.57 -108.54,-109.44 -124.76,-174.04 -27.5,-109.48 29.55,-175.95 66.76,-265.37 8.75,-21.03 5.84,-10.83 10.66,-40.36 10.4,-63.79 20.16,-107.91 54.53,-164.11 8.14,-13.33 3.79,-8.06 9.83,-19.32 17.52,-32.65 55.2,-50.59 93.52,-59.52 0,-84.53 -18.55,-80.8 45.49,-144 35.59,-35.13 68.44,-67.2 107.49,-96.57 65.58,-49.29 44.85,-72.02 85.45,-118.61 33.83,-38.8 77.7,-63.52 147.83,-63.52 -24.57,-33.54 -100.04,-25.16 -132.39,-64.39 -10.31,-12.5 -8.83,-19.01 -20.22,-30.79l-80.61 -72.44c-26.42,-34.76 -62.65,-69.24 -92.63,-104.14 -35.6,-41.45 -53.12,-76.29 -53.12,-150.94 -21.85,1.82 -32.31,7.7 -53.85,11.75 -21.87,4.11 -39.9,2.83 -62.76,2.83 -11.73,22.16 -30.48,43.26 -36.44,65.59 42.63,0.95 66.4,25.37 99.13,46.63 58.16,37.75 89.18,83.41 148.4,143.11l73.14 72.62z"/>
     <path class="fil1 str0" d="M3032.14 2260.69c32.73,-21.92 71.64,-99.73 106.32,-134.18 30.24,-30.05 59.72,-51.31 99.57,-68.05 44.09,-18.54 119.3,-7.8 161.88,2.07 50.91,11.81 55.7,5.91 91.71,32.19l82.12 92.79c12.28,19.76 16.16,22.77 26.85,38.74 30.51,-7.11 35.63,-20.3 69.09,-24.89 21.13,-2.9 57.99,3.02 91.25,3.02 0,-43.25 6.57,-62.49 7.29,-94.74 -136.93,-11.39 -202.21,-138.19 -221.81,-259.2 -38.91,-240.29 30.89,-229.75 -11.41,-411.29l-94.74 0c48.61,91.87 19.4,185.26 3.94,288.37 -7.57,50.52 2.72,57.2 3.69,104.95 0.75,36.43 3.61,70.09 -22.55,94.63 -52.79,49.54 -102.91,56.57 -172.43,27.36 -34.11,-14.33 -48.13,-23.59 -75.02,-41.59 -15.33,65.8 -82.17,166.25 -127.74,222.08 -0.95,1.17 -2.33,2.82 -3.3,3.98l-103.06 115.63c-1.07,1.08 -2.6,2.58 -3.69,3.65 -1.1,1.07 -2.7,2.51 -3.81,3.57 -10.85,10.33 -21.42,14.09 -23.42,31.18 -3.58,30.41 29.39,74.98 -37.22,214.07 -21.94,45.8 -55.96,65.7 -108.74,80.76 -189.37,54.01 -413.77,-86.6 -438.92,-182.13 -5.82,-22.11 -13.37,-62.76 -15.62,-79.12 -27.01,-196.82 57.67,-292.61 109.48,-448.22 9.47,-28.45 14.79,-42.97 25.29,-69.45 53.12,-133.97 -46.88,-266.54 -70.92,-369.72l-189.48 0c22.28,42.12 59.14,62.22 93.07,96.42 66.91,67.43 67.88,130.8 51.6,223.16 -8.45,47.92 -13.71,112.71 -33.68,155.81 -48.3,104.26 -49.09,92.11 -68.34,208.61 -4.38,26.51 -5.45,53.69 -15.25,79.48 -30.54,80.35 -77.08,140.47 -127.96,207.29 -22.29,29.29 -54.12,48.49 -74.35,78.69 76.25,0 174.4,-35.18 234.57,-15.93 48.17,15.41 138.39,60.81 175.52,94.13 15.6,14.01 23.11,16.46 35.56,30.03 30.55,33.28 63.61,82.1 76.2,127.87 18.67,67.93 7.47,170.78 24.74,244.9 39.94,-14.45 62.48,-97.66 76.91,-134.44 22.34,-56.98 64.03,-75.06 99.03,-119.6 20.22,-25.73 18.89,-33.03 60.24,-41.9 72.27,-15.49 109.78,-4.85 143.28,54.95 41.63,74.31 162.32,292.25 181.76,357.56 12.45,41.85 30.91,76.88 27.76,123.6 -3.09,45.99 -13.97,41.75 35.07,12.71 36.64,-21.7 85.78,-32.02 126.61,-41.53 -13.96,-38.55 -90.4,-44.24 -134.36,-200.89 -13.27,-47.29 -20.85,-87.34 -41.95,-125.67 -43.67,-79.35 -82.84,-103.71 -134.57,-207.96 -5.17,-10.41 -6.52,-13.9 -12.53,-23.9 -88.49,-147.17 43.26,-321.26 46.47,-359.85z"/>
     <path class="fil1 str0" d="M5612.06 2909.31c14.34,39.62 61.99,24.18 108.02,103.32 56.41,96.97 120.45,214.41 91.95,322.53 -20.46,77.59 -41.4,81.2 -95.94,122.74 -33.39,25.44 -129.37,35.9 -170.63,48.01 -119.94,35.21 -187.65,77.9 -317.84,119.44 -86.29,27.53 -107.85,20.04 -198.6,20.04 21.21,40.07 27.41,103.43 -29.15,116.61 6.85,25.64 5.22,16.66 24.34,33.97l55.4 75.78c72.69,142.8 99.04,201.59 204.45,327.56l114.93 132.87c14.54,20.11 15.59,17.74 16.29,49.29l48.74 -82.44c11.1,-21.03 33.3,-57.6 38.72,-77.89 -30.7,-0.69 -17.97,-1.07 -36.73,-7l-99.4 -39.08c-39.06,-20.87 -99.29,-81.26 -116.62,-109.3l-46.99 -91.48c-78.96,-180.95 -53.06,-224.27 146.57,-329.01 117,-61.4 302.79,-132.66 443.41,-93.35 44.34,12.4 132.55,37.21 173.26,59.96l78.52 45.37c1.26,0.89 3.04,2.1 4.26,3.03 45.82,35.05 87.77,96.74 87.77,152.73l65.59 0c0,-32.89 6.71,-72.01 13.41,-95.91 9.91,-35.4 19,-47.87 37.38,-71.94 60.44,-79.14 342.56,-211.12 444.78,-211.12 23.43,0 55.78,16.18 80.17,21.87l-7.28 -502.87c0,75.15 -34.72,173.98 -52.56,238.96 -56.06,204.28 -120.74,121.46 -327.37,270.23 -118.88,85.59 -341.41,92.28 -432.28,-3.07 -1.04,-1.09 -2.51,-2.67 -3.5,-3.79 -93.91,-106.66 -37.33,-211.15 -97.02,-398.57 -39.25,-123.23 -20.58,-124.71 45.46,-249.52 -48.17,4.01 -40.31,47.58 -207.13,84.38 -31.84,7.03 -56.17,11.08 -84.38,17.65z"/>
     <path class="fil1 str0" d="M6224.24 6305.48c-31.8,21.29 -22.23,25.31 -83.66,54.81 -31.53,15.14 -79.8,22.46 -126.9,17.33 -14.66,-1.6 -40.35,-8.13 -52.03,-13.61 -10.06,-4.73 -14.36,-8.16 -22.01,-14.43l-87.08 -109.69c0,71.42 -37.86,102.03 -109.32,102.03l0 14.57c30.33,0.68 109.8,20.78 129.39,45.52 14.43,18.23 9.08,19.8 9.08,49.23 33.25,-8.88 114.93,-93.12 234.93,27.43 49.09,49.32 75.09,38.08 99.09,126.84 47.95,177.31 -56.87,154.88 -115.38,195.55l276.94 0c-2.77,-124.33 -183.98,-318.14 -32.23,-571.54 15.04,-25.12 23.67,-45.81 37.11,-72.21 46.45,-91.22 43.43,-249.31 132.89,-333.53 1.09,-1.03 2.73,-2.43 3.86,-3.43 98.46,-87.84 131.07,-105.19 259.2,-105.19l0 -138.47c-38.04,8.86 -33.68,19.36 -61.15,40.87 -29.91,23.42 -198.96,71.51 -238.92,81.76 -151.42,38.83 -259.52,-74.79 -373.48,-141.43 -110.5,-64.61 -248.82,-159.2 -310.89,-272.14l-11.09 -25.36c-13.32,-29.57 -29.02,-62.54 -32.06,-99.11l-14.58 0c0,132.78 -48.96,230.15 -196.74,233.76 -99.2,2.42 -110.35,-47.72 -85.08,25.68 11.05,32.12 7.18,40.85 4.88,68.51 29.5,6.87 52.69,19.12 74,42.61 17.89,19.71 32.63,54.06 49.89,66.71 13.92,-28.99 14.8,-92.64 102.31,-138.2 92.86,-48.35 134.87,-16.5 184.94,11.29 58.54,32.51 66.86,15.42 143.52,96.98 26.09,27.76 103.75,73.24 142.11,98.39 26.36,17.29 42.28,30.53 65.28,51.33 21.78,19.69 38.93,46.28 54.3,69.59 8.59,13.03 13.7,22.25 22.12,36.19 70.21,116.27 85.79,199.74 17.98,324.79 -16.23,29.92 -24.79,56.66 -40.41,83.48 -15.33,26.32 -34.59,48.87 -50.81,73.09z"/>
     <path class="fil1 str0" d="M4708.36 2663.06c9.39,3.72 11.19,-1.24 0.58,5.75 13.8,34.88 42.98,75.38 67.42,92.48 44.37,31.04 75.55,21.06 121.36,2.41l13.89 36.81c-50.64,-4.82 -106.53,-32.08 -137.02,30.1l-7.93 16.55c-1.72,-1.15 -3.7,-2.98 -4.87,-3.86l-24.06 -16.01c-11.57,-4.66 -18.6,-5.01 -31.78,-1.46 -21.27,5.73 -35.6,22.07 -49.93,31.66 19.59,-72.2 92.7,-77.85 24.36,-212.13 -12.46,-24.48 -37.73,-69.74 -53.96,-91.59 -32,-43.07 -56.68,-21.38 -102.02,-7.46 34.61,-44.66 51.94,-23.96 92.75,-158.41 18.49,-60.92 32.02,-142.33 32.43,-207.13 1.88,-295.36 -190.54,-243.44 -223.4,-262.61l-16.63 14.57 44.03 14.28c18.85,6.87 28.09,8.71 47.2,18.38 104.12,52.72 118.11,169.43 103.72,278.9 -10.31,78.44 -29.82,236.07 -104.91,281.35 -17.03,10.27 -24.11,14.63 -41.8,23.79 -27.87,14.45 -26.2,3.98 -33.66,31.92 55.34,0 99.12,-5.76 140.96,12.09 84.63,36.1 106.31,118.81 85.16,206.75l-36.64 123.7c35.68,-2.97 12.34,-2.54 40.4,-17.91 69.92,-38.32 96.33,-7.99 141.04,-41.16 79.23,-58.76 134.69,-15.37 204.82,-13.81 -10.77,-29.75 -20.29,-12.11 -48.75,-53.28 -60.63,-87.73 -44.98,-38.24 -131.78,-72.28 -48.57,-19.04 -88.57,-56.29 -107.12,-104.23 -10.36,-26.79 -20.24,-59.45 -24.05,-85.27 -8.35,-56.65 -6.44,-157.68 5.21,-202.78 18.03,-69.76 34.23,-89.75 109.52,-101.83 100.76,-16.18 294.97,-39.69 389.29,-9.93 23.42,7.39 46.75,24.28 64.79,37.25 23.97,17.23 45.8,25.21 70.85,38.47 -1.11,-49.64 -41.14,-79.83 -50.27,-153.8 -12.73,-103.18 20.37,-108.37 35.69,-174.16l-31.13 7.39c-10.39,5.12 1.27,-0.5 -11.94,7.36l-9.19 5.37c-108.03,64.64 -91.23,99.54 -293.09,130.1 -33.78,5.12 -65.08,0.1 -98.17,3.91 -143.18,16.52 -182.8,-52.41 -212.65,-190.31 -22.51,-104.01 -8.24,-183.82 17.24,-282.09 23.38,-90.2 50.1,-139.78 99.63,-213.75l-84.75 0c-7.48,37.58 -25.97,65.5 -35.7,105.42 -9.59,39.34 -13.03,80.59 -19.11,120.21 -13.09,85.28 -16.04,170 -9.92,256.69 22.31,315.84 156.65,249.98 287.58,247.94 -48.15,36.57 -120.78,9.97 -173.3,28.49 -137.53,48.5 -79.34,404.42 -30.39,467.16z"/>
     <path class="fil1 str0" d="M3760.93 2496.61l-1.28 -2.71c-18.72,30.33 -147.7,104.09 -192.68,112.09 -45.12,8.02 -85.12,-7.46 -106.41,-30.77 -27.78,-30.41 -25.81,-72.27 -42.16,-112.16 -23.45,34.81 -17.81,41.63 -54.72,63.69 -23.12,13.82 -56.93,30.44 -88.55,20.11 234.73,13.83 252.11,85.09 327.3,282.28l-1.84 5.46c5.5,7.08 1.92,0.8 9.55,14.65l51.85 130.29c69.02,184.05 128,238.11 24.5,394.26l-79.69 81.01c-9.02,6.65 -24.06,15.81 -30.43,20.86 -92.97,73.72 -180.08,202.46 -346.99,183.92 -68,-7.55 -101.96,-29.51 -159.34,-48.37 20.08,14.15 12.59,3.14 27.61,26.88l7.37 2.79c83.88,41.5 127.53,45.46 161.79,141.59 28.08,78.78 39.88,112.48 86.4,175.72 16.64,22.62 8.96,6.18 18.2,29.72l-4.03 7.29 7.29 1.54c61.41,58.21 90.2,164.82 57.07,260.15 -19.56,56.28 -35,69.63 -65.23,108.9 -25.22,32.76 -76.28,68.83 -92.08,98.47 24.9,-9.13 25.82,-10.75 43.05,-30.86 15.54,-18.13 19.99,-21.06 36.76,-36.13 18.03,-16.2 44.05,-49.66 63.09,-75.16 23.66,-31.71 25.44,-61.4 45.22,-92.89 27.73,-44.13 58.4,-30.97 111.31,-37.69 -43.07,-26.08 -34.88,9.27 -100.03,-69.91 -17.76,-21.58 -55.41,-74.05 -70.16,-104.56l0.15 -2.82 -18.89 -22.29c-2.58,-3.76 -8.52,-14.37 -13.72,-23.34 -28.68,-49.48 -56.64,-107.8 -66.51,-166.13 -20.3,-119.99 73.48,-141 211.51,-248.95l164.94 -148.1c24.26,-21.68 55.23,-66.88 77.87,-83.57 55.69,-60.1 149.78,-16.13 282.27,-52.13 35.36,-9.61 51.48,-24.46 91.47,-25 174.75,-2.34 368.04,103.15 436.04,249.47 25.22,54.28 71.29,309.17 73.41,384.58 2.54,89.79 -25.14,119.38 -65.51,167.4 9.17,-15.33 52.47,-30.95 81.41,-36.68 60.11,-11.9 71.68,9.28 114.74,21.41 -26.57,-53.19 -86.28,-8.11 -107.81,-95.56 -11.8,-47.94 -7.55,-133.06 -17.83,-193.41 -19.71,-115.71 -72.22,-276.74 15.29,-341.02 43.31,-31 49.9,-37.76 111.45,-63.98l3.92 2.35c1.63,-1.19 4.18,-4.88 5.06,-3.36 0.86,1.5 3.84,-2.57 5.05,-3.24l81.93 -29.7c32.18,-10.38 64.21,-17.6 95.21,-28.36l183.59 -77.48c-145.3,16.94 -280.83,81.64 -411.2,124.52l-2.38 -4.25c-1.54,1.39 -3.96,1.28 -4.79,3.98 -0.81,2.66 -3.62,3.03 -4.74,3.87l-61.46 43c-113.47,78.54 -166.84,-17.32 -236.47,-54.17 -41.69,-22.07 -127.48,-62.6 -147.04,-86.28 -32.22,-39.03 -18.16,-155.69 7.63,-196.09l7.03 -20.98c-24.06,8.54 -29.74,9.99 -56.66,-3.81 66.53,210.2 -74.31,231.52 -237.56,253.18 -229.2,30.41 -210.47,-129.19 -273.48,-223.65 -70.71,-106.01 -143.39,-211.86 -138.39,-353.32 1.95,-55.07 76.32,-97.47 120.79,-123.49 53.74,-31.44 95.38,-80.36 136.05,-112.43 10.77,-13.87 32.72,-29.8 55.63,-52.97 19.73,-19.96 37.78,-30.65 60.2,-49.46 20.36,-17.07 33.66,-37.35 54.11,-55.06 24.67,-21.37 57.34,-31.89 69.86,-46.86 -54.9,-25.81 -33.22,-57.36 -59.15,-182.87 -77.91,-377.18 26.63,-457.35 26.63,-622.87l-72.8 0c7.87,115.97 -1.27,220.68 -1.67,335.25 -0.77,221.55 110.83,454.5 -31.35,565.54 -38.51,30.08 -101.24,97.96 -172.19,149.03 -10.63,7.64 -0.34,1.7 -14.38,9.64z"/>
     <path class="fil1 str0" d="M1414.22 3463.19c51.07,11.9 130.26,58.31 174.91,58.31 97.08,0 170.48,-8.61 262.66,-7.59 25.85,0.29 40.83,2.65 59.45,6.14 52.28,9.81 101.53,48.08 151.6,59.75 -10.57,-45.37 -23.84,-39.92 -58.73,-79.74l-66.39 -79.36c-10.56,-24.73 -10.75,-60.81 -20.63,-81.4 -42.95,28.76 -32.57,109.32 -291.52,109.32l-88.96 -49.51c-66.68,-91.72 -38.85,-418.9 30.56,-526.34 11.27,-17.45 15.6,-25.34 27,-45.88l104.28 -179.94c-73.56,0 -135.82,38.05 -187.52,82.13 -63.32,53.98 -88.06,130.08 -96.71,209.88l0 247.29 0 4.33 0 4.33 0 4.32 0 4.33 0 4.33 0 4.32 0 4.33 0 4.33 0 4.33 0 4.32 0 4.33 0 4.33 0 4.33 0 4.32 0 4.33 0 4.33 0 4.32 0 4.33 0 4.33 0 4.32 0 4.33 0 4.33 0 4.33 0 4.32 0 4.33 0 4.33 0 4.33 0 4.32 0 4.33 0 4.33 0 4.32 0 4.33 0 4.33 0 4.33 0 4.32 0 4.33 0 4.33 0 4.33 0 4.32 0 4.33 0 4.33 0 4.32 0 4.33 0 4.33 0 4.33 0 4.32 0 4.33 0 4.33 0 4.33 0 4.32 0 4.33 0 4.33 0 4.32 0 4.33 0 4.33 0 4.32 0 4.33 0 4.33 0 4.33 0 4.32 0 4.33 0 4.33 0 4.33 0 4.32z"/>
     <path class="fil1 str0" d="M2164.87 5463.01l6.63 -2.93c57.32,-56.66 196.41,-66.95 252.04,-18.16 23.35,12.26 35.02,25.47 58.83,43.09 128.91,95.4 107.68,52.98 188.82,102.6 269.63,164.9 118.55,327.33 81.47,549.26 -15.79,94.52 6.95,266.09 -70.34,314.07l-0.63 0.3 -13.95 15.16c3.58,2.22 7.98,11.22 11.1,13.99 24.79,19.02 7.44,-5.59 37.92,45.7 8.24,13.87 3.35,2.77 12.57,23.89 60.61,138.74 30.76,61.2 91.97,155.82 20.47,31.65 35.93,40.08 35.93,95.26l96.35 0c-14.67,-71.31 -87.9,-67.59 -153.89,-256.52 -70.88,-202.92 4.38,-499.57 43.29,-712.03 35.43,-193.53 188.67,-118.57 274.93,-136.54 -33.29,-1.21 -74.68,-8.69 -109.36,-14.69 -49.16,-8.5 -71.58,8.5 -111.71,1.56 -61.75,-10.68 -112.14,-60.26 -161.27,-86.19 -52.67,-27.8 -116.1,-48.94 -174.14,-81.26 -135.08,-75.21 -211.4,-151.33 -157.73,-318.65 35.51,-110.7 52.85,-258.34 70.43,-308.05 5.34,-15.08 12.85,-32.21 20.03,-46.27 10.23,-20.02 11.51,-20.87 23.31,-35.51 34.15,-42.35 69.8,-95.23 157.19,-91.22 -7.24,-13.99 -58.31,-59.01 8.24,-100.13 12.08,-11.79 21.15,-26.07 33.22,-36.81 -51.38,27.66 -46.35,27.8 -87.04,69.97 -26.03,26.98 -47.19,52.96 -73.49,79.81 -58.28,59.5 -103.63,99.24 -212.73,48.98 5.23,16.66 41.85,61.41 54.76,78.24 26.43,34.43 35.06,53.04 37.32,101.45 3.19,68.52 -31.22,156.4 -49.17,220.46 -75.57,269.63 -206.36,213.11 -250.4,296.94l29.5 -11.59z"/>
     <path class="fil1 str0" d="M3846.04 2447.24c-40.67,32.07 -82.31,80.99 -136.05,112.43 -44.47,26.02 -118.84,68.42 -120.79,123.49 -5,141.46 67.68,247.31 138.39,353.32 63.01,94.46 44.28,254.06 273.48,223.65 163.25,-21.66 304.09,-42.98 237.56,-253.18 26.92,13.8 32.6,12.35 56.66,3.81l-7.03 20.98c14.79,-11.48 5.43,4.4 18.73,-22.9 9.63,-19.77 15.61,-26.93 -60.77,-31.63 -23.93,-1.47 -21.38,-2.72 -27.66,32.26 -28.52,158.73 -42.19,182.15 -183.62,203.05 -100.91,14.92 -177.36,-9.37 -228.48,-86.38 -2.39,-3.6 -7.79,-12.04 -8.59,-13.27 -53.18,-82.37 -8.74,-58.93 -114.4,-177.11l-27.43 -30.88c-9.21,-13.93 -17.41,-41.91 -18.91,-61.26 -3.68,-47.89 -3.57,-106.86 9.45,-143.4 13.17,-36.96 32.91,-68.94 59.91,-93.13 32.06,-28.72 54.43,-45.93 88.82,-71.52l170.84 -135.25c32.2,-28.92 29.83,-63.87 61.24,-91.81 19.68,-17.51 83.62,-45.42 112.51,-47.82 -14.84,-63.68 -54.96,-29.95 -72.46,-168.05 -12.83,-101.32 -37.23,-54.49 -36.87,-210.91 0.18,-75.94 -11.39,-175.44 9.78,-238.04 26.47,-78.3 41.24,-102.49 41.24,-206.54l-28.27 0c0,165.52 -104.54,245.69 -26.63,622.87 25.93,125.51 4.25,157.06 59.15,182.87 -12.52,14.97 -45.19,25.49 -69.86,46.86 -20.45,17.71 -33.75,37.99 -54.11,55.06 -22.42,18.81 -40.47,29.5 -60.2,49.46 -22.91,23.17 -44.86,39.1 -55.63,52.97z"/>
     <path class="fil1 str0" d="M3141.45 6167.01c45.01,23.81 72.49,18.36 105.22,69.69l20.02 38.29c23.82,59.49 14.05,134.31 31.35,201.86l59.96 173.25c44.12,110.34 75.11,124.19 82.26,150.96l94.74 0c-32.15,-138 -131.18,-170.67 -131.18,-262.37 0,-194.15 69.05,-180.91 102.03,-225.92 -50.98,-4.25 -86.98,-29.01 -125.55,-56.65 -71.03,-50.93 -136.72,-182.63 -144.1,-271.31l-14.58 0c-4.66,20.01 -9.96,29.92 -15.52,47.93 -28.49,92.25 -16.21,61.94 -64.65,134.27z"/>
     <path class="fil1 str0" d="M2296.06 6235.29l-9.9 9.9c-11.38,-72.09 47.51,-130.34 -4.78,-180.1 -7.52,-7.17 -32.46,-23.68 -43.63,-29.38 -6.64,11.13 -2.52,9.62 -4.01,0.11 14.53,-18.97 10.36,-7.09 37.68,-3.77 14.38,1.74 21.92,2.77 38.9,4.26 32.69,2.89 62.28,3.86 95.05,5.25 -13.68,-15.52 -16.02,-14.34 -49.45,-22.08l-104.09 -26.88c-145.46,-17.13 -127.84,-119.42 -174.41,-153.55 -19.6,40.85 -11.66,94.92 -65.59,109.32l0 14.58c51.13,11.91 205.93,77.17 246.73,132.33 19.67,26.58 19.14,37.1 17.18,65.52 -10.12,146.94 -56.03,240.21 -125.8,355.67 -11.26,18.64 -27.58,35.53 -33.45,61.29 -15.31,67.2 6.1,113.79 27.31,164.21 14.87,35.36 33.84,51.94 59.57,59.09l172.85 0c-40.36,-84.12 -123.61,-131.23 -124.23,-240.16 -1.46,-254.52 44.07,-237.05 44.07,-325.61z"/>
     <path class="fil1 str0" d="M6778.12 1565.62c-34.39,18.9 -31.75,38.6 -62.52,64.95 -99.22,84.94 -157.97,48.62 -259.43,88.08 -119.11,46.33 -176.11,133.8 -222.63,256.64 -21.59,87.55 0.12,96.37 26.33,168.13 -10.55,-11.34 -5.94,-6.51 -18.56,-15.23 -23.66,-30.42 -57.02,-33.64 -89.51,-35.27 -4.86,-58.23 -52.84,-55.27 -60.68,-52.67 84.44,-8.86 109.56,-13.29 139.36,-80 34.63,-77.54 108.01,-230.88 116.43,-305.32 5.88,-52.04 6.3,-136.68 -39.43,-170.64 -43.06,-36.97 -118.82,-18.27 -177.84,-10.41 19.69,-23.25 25.73,-14.84 44.1,-36.73l-74.15 0c-8.84,2.11 -16.78,6.62 -27.39,15.59l-29.38 28.92c-15.28,16.5 -20.31,14.93 -22.64,42.95 56.1,-26.92 170.84,-48.07 225.94,-14.6 129.31,78.58 36.3,197.52 1.02,292.58 -32.04,86.32 -58.56,175.14 -150.81,213.58 -27.13,11.3 -32.85,6.56 -47,25.88 25.67,12.31 43,7.56 62.21,32.54 26.65,34.63 -1.12,26.24 52.38,42.35l48.22 17.38c26.77,14.68 56.07,37.82 63.12,68.06l14.57 0c0,-35.14 -2.09,-27 -8.88,-54.58 -18.53,-75.3 10.12,-218.88 49.39,-276.59l33.03 -39.85c49.48,-47.19 62.98,-51.4 126.85,-84.5 64.68,-33.51 163.3,-6.16 254.45,-109.95 20.55,-23.4 13.2,-19.44 33.45,-24.85l0 -46.44z"/>
     <path class="fil1 str0" d="M4438.7 1915.19c-22.39,-8.27 -9.98,-4.85 -12.52,2.97 32.86,19.17 225.28,-32.75 223.4,262.61 -0.41,64.8 -13.94,146.21 -32.43,207.13 -40.81,134.45 -58.14,113.75 -92.75,158.41 45.34,-13.92 70.02,-35.61 102.02,7.46 16.23,21.85 41.5,67.11 53.96,91.59 68.34,134.28 -4.77,139.93 -24.36,212.13 14.33,-9.59 28.66,-25.93 49.93,-31.66 13.18,-3.55 20.21,-3.2 31.78,1.46l24.06 16.01c1.17,0.88 3.15,2.71 4.87,3.86l7.93 -16.55c30.49,-62.18 86.38,-34.92 137.02,-30.1l-13.89 -36.81c-45.81,18.65 -76.99,28.63 -121.36,-2.41 -24.44,-17.1 -53.62,-57.6 -67.42,-92.48l-0.58 -5.75c-48.95,-62.74 -107.14,-418.66 30.39,-467.16 52.52,-18.52 125.15,8.08 173.3,-28.49 -130.93,2.04 -265.27,67.9 -287.58,-247.94 -6.12,-86.69 -3.17,-171.41 9.92,-256.69 6.08,-39.62 9.52,-80.87 19.11,-120.21 9.73,-39.92 28.22,-67.84 35.7,-105.42l-70.97 0c-5.4,57.16 -1.39,97 3.02,152.94 4.05,51.29 -6.5,105.47 -12.3,157.04 -13.27,118.19 -47.51,154.22 -170.25,168.06z"/>
     <path class="fil1 str0" d="M1487.1 2140.89c19,-6.75 29.98,-12.47 48.84,-20.29l51.4 -27.54c-2.36,-15.99 -2.07,-5.73 1.79,4.91 22.01,-6.84 205.84,-86.72 216.27,-94.6 24.41,-18.45 48.45,-54.76 65.3,-87.57 11.21,-21.82 44.46,-88.43 49.5,-106.01l-20.62 57.35c12.1,5.24 14.99,1.51 2.93,4.94 -3.27,5.32 -2.31,-0.72 -8.05,16.1 -8.28,24.26 -7.49,52.37 -3.22,77.44 7.04,41.34 16.6,65.33 40.42,80.17 5.35,-13.35 0.29,-15.28 7.29,-3.74 11.69,7.09 9.54,2 -4.18,7.29 7.1,13.67 -0.3,9.79 9.78,17.32 -129.81,-54.17 -179.21,-39.36 -276.97,32.01 -53.58,39.12 -65.37,37.09 -131.39,57.34 -35.38,10.85 -68.98,26.77 -94.47,51.86l-27.5 25.86 0 34.24c100.35,-8.34 66.72,-67.13 203.94,-102.15 166.91,-42.59 116.24,-75.48 232.13,-89.04 80.38,-9.41 89.66,23.57 176.11,23.57 -12.12,-45.41 -70.25,-55.24 -73.17,-167.34 -1.17,-44.78 -1.16,-78.76 10.78,-113.69 11.72,-34.28 24.99,-55.22 33.24,-90.65 -27.47,6.4 -48.9,23.58 -67.7,41.62 -66.83,64.15 -41.88,137.29 -299.25,276.49 -20.16,10.91 -19.01,10.58 -35.85,22.45 -19.37,13.64 -16.74,9.6 -38.03,20.28 -35.36,17.73 -57.74,29.59 -69.32,51.38z"/>
     <path class="fil1 str0" d="M1523.54 5037.38l-109.32 -7.29 0 131.19c81.36,0 100.27,-4.81 166.62,-30.16 134.04,-51.23 88.71,-47.3 219.41,-34.62 147.1,14.27 140.73,55.91 211.58,57.49 -43.66,-65.2 -138.17,-63.2 -215.02,-229.55 -26.69,-57.77 -33.84,-80.89 -69.21,-83.83 0,30.54 1.87,62.69 -2.68,92.06 -14.27,92.15 -64.55,104.71 -201.38,104.71z"/>
     <path class="fil1 str0" d="M5677.65 2231.39l4.17 7.43c-8.68,71.8 -18.4,143.39 -46.77,205.29 -32.66,71.23 -52.49,85.23 -134.25,114.08 -80.94,28.55 -108.67,45.21 -207.6,35.08 -66.37,-6.79 -134.67,-52.14 -151.31,-96.59l-13.31 -22.45c-18.18,32.07 -19.26,24.3 -32.87,41.9 62.1,21.52 181.54,85.4 195.13,153.56 7.28,36.5 2.77,84.52 3.99,123.01 1.23,38.8 -3.77,288.02 -13.72,324.19 -9.69,35.21 -18.39,32.57 -45.86,59.06l-9.59 9.81c-1.35,1.37 -3.38,3.45 -4.99,5.25 66.55,-0.3 75.88,12.51 131.44,24.39 -37.91,-51.47 -55.38,-86.46 -50.82,-174.92 3.74,-72.46 20.69,-133.56 29.24,-200.84 24.47,-192.44 -15,-224.05 185.03,-261.56 190.24,-35.67 92.41,-313.67 504.89,-77.57 24.33,13.93 48.82,31.32 70.41,40.89 -24.27,-28.13 -59.95,-51.08 -90.42,-71.44l-34.5 -27.08 -4.06 1.32c-61.06,-26.44 -218.87,-81.43 -244.31,-122.34 -20.54,-33.04 -9.35,-117.86 -4.66,-162.6 6.34,-60.39 30.78,-107.12 36.66,-154.24 -0.95,1.51 -2.2,2.2 -2.55,4.72l-38.22 98.53c-12.8,34.84 -19.28,98.46 -31.15,123.12z"/>
     <path class="fil1 str0" d="M5396.97 4683.28c-25.01,-24.42 -87.68,-96.28 -143.27,-92.73 74.49,36.86 162.85,92.33 179.43,184.24 19.42,107.61 -52.04,193.72 -86.63,268.05 9.55,-21.42 22.69,-21.99 52.7,-64.59 50.12,-71.16 68.04,-142.95 180.69,-193.02 150.29,-66.79 282.8,2.37 368.58,75.48 19.32,10.67 54.53,42.45 66.18,58.89l-0.4 -13.4 -1.36 -3.63c-36.76,-15.31 -40.24,-41.79 -69.69,-71.63 -41.44,-44.52 -86.33,-47.7 -122.31,-82.71 -43.07,-41.9 -46.34,-75.04 -16.6,-137.5 15.25,-21.11 28.02,-43.14 44.18,-65.76 8.61,-12.05 11.9,-15.65 20.85,-29.34l26.97 -38.28 -3.96 -1.14c36.04,-83.1 61.57,-84.79 90.39,-227.11 16.38,-80.9 29.75,-130.28 145.97,-171.6 -39.81,0.73 -67.11,13.27 -108.74,9.84 -37.52,-3.09 -73.66,-14.98 -111.36,-17.86 47.51,65.02 95.63,114.17 35.79,258.57 -37.19,89.73 -89.3,140.73 -127.04,221.08 -28.53,60.72 -114.11,144.62 -167.69,176.53 -101.74,60.62 -199.46,19.06 -252.68,-42.38z"/>
     <path class="fil1 str0" d="M2129.09 3858.94c-55.72,33.11 -41.46,47.9 -160.21,100.93 -53.93,24.08 -160.28,37.03 -223.85,41.35 29.36,-10.31 202.01,-5.74 237.11,8.87 94.94,39.51 114.43,100.34 162.92,120.48 -12.95,-26.37 -20.76,-19.09 -40.91,-62.48l2.42 -2.24c-35.77,-37.25 -67.5,-136.48 23.86,-192.17 14.56,-8.88 13.08,-9.83 28.26,-18.41 18.07,-13.92 42.29,-34.07 57.22,-49.33 19.65,-20.08 38.26,-35.04 59.16,-50.57 22.92,-28.43 45.14,-45.85 66.29,-79.2 22.26,-35.09 35.68,-66.74 58.71,-87.17 19.72,-17.5 159.92,-100.58 189.88,-90.8 -181.5,-4.04 -139.79,71.47 -247.46,-89.12 -28.36,-42.3 -60.11,-52.23 -78.41,-145.94 -37.72,-193.13 -101.16,-133.69 -114.74,-324.41 -3.09,-43.37 14.33,-105.85 2.35,-139.62 -14.96,48.9 -24.32,87.04 -35.78,141.79 -15.93,76.07 -22.35,69.39 -78.56,99.59 70.65,37.18 109.32,18.95 180.74,165.64 63.38,130.18 216.11,374.49 93.2,490.66l-182.2 162.15z"/>
     <path class="fil1 str0" d="M6304.41 4672.98c5.91,-3.95 4.82,-2.7 13.02,-8.83l23.96 -19.77c1.67,-1.33 6.46,-5.12 8.2,-6.37 88.62,-63.83 189.22,-31.8 282.58,-30.23 25.99,0.44 59.9,-3.73 74.29,-4.33 20.96,-0.87 7.04,1.94 32.3,0.26 10.58,-0.71 22.85,-3.6 39.36,-3.6l0 -94.75c-55.14,0 -96.44,20.93 -159.22,13.56 -78.81,-9.25 -159.76,3.58 -218.95,-50.79l-91.19 -83.73c-16.04,-10.25 -50.47,-20.26 -69.94,-24.79 21.98,32.83 62.02,47.61 85.77,140.73 23.93,93.76 -7.26,117.21 -20.18,172.64z"/>
     <path class="fil1 str0" d="M5519.44 1757.82c-29.72,-42.6 -67.08,-61.21 -144.18,-57.5 45.09,-45.76 95.67,-31.69 129.82,-85.87 32.93,-52.24 44.41,-109.28 33.14,-177.3l-71.92 0c0,194.43 -4.26,150.26 -134.26,237.43 -129.92,87.1 -267.32,-8.28 -281.15,-11.5 0,73.39 -19.79,72.86 -39.48,99 -19.45,25.83 -9.34,23.76 -12.02,60.85 -2.02,28.03 -8.34,34.1 -14.09,58.78 34.47,-9.2 81.73,-112.82 379.99,-144.74 83.77,-8.97 96.9,9.15 154.15,20.85z"/>
     <path class="fil1 str0" d="M5535.44 6801.06l64.24 0c13.66,-20.87 10.42,-13.96 36.16,-27.1 3.88,-1.97 17.12,-8.64 19.7,-10.24 1.66,-1.03 3.62,-2.33 5.13,-3.33l15.84 -12.33c-105.99,-6.56 -187.74,-51.58 -253.44,-114.53 -102.69,-98.41 -139.47,-88.11 -103.91,-213.37 27.03,-95.24 2.86,-218.37 38.78,-324.76 16.33,-48.36 54.87,-62.62 104.87,-77.16 44.7,-13 85.51,-35.86 123.79,-48.01 -15.08,0.25 -104.14,28.15 -135.49,35.63 -276.1,65.92 -175.11,-161.29 -229.53,-297.63 -7.03,80.95 19.58,179.04 -35.09,237.99 -52.89,57.03 -147.65,-19.1 -188.55,-37.48l-11.11 56.04c64.4,-13.89 152.32,19.88 216.37,35.9 77.72,19.44 113.92,39.8 122.58,129.55 5.34,55.38 -6.4,187.52 -18.68,240.64 -24.12,104.37 -99.29,114.23 -118.99,131.53 82.38,18.98 319.47,181.62 347.33,298.66z"/>
     <path class="fil1 str0" d="M2871.8 1776.29c18.24,-20.75 -30.64,-109.28 40.9,-152.48 64.88,-39.17 108.11,-6.01 177.74,-4.46l-65.88 -72.59c-26.71,-35.58 -28.86,-47.38 -28.86,-109.61l-87.42 0c0,109.12 -19.81,100.7 -68.09,165.38l-39.05 71.41c-28.59,92.56 26.51,10.91 -58.98,172.74 -64.18,121.49 -50.28,198.91 -108.25,246.38l23.42 6.45c5.34,0.93 7.52,-0.01 15.16,1.32 38.74,6.75 20.83,20.1 67.08,64.06 0.76,-108.24 -44.56,-253.11 76.62,-408.04 32.57,-1.78 37.01,7.76 55.61,19.44z"/>
     <path class="fil1 str0" d="M3811.94 3813.01c-31.74,0 -22.12,-15.73 -37.05,-0.98 -10.69,10.56 -4.98,1.64 2.82,11.86 1.04,1.38 5.86,5.58 7.33,7.06 30.71,31.22 -13.72,-16.33 8.08,7.31 34.87,37.82 59.5,229.61 62.55,266.27 58.74,-43.04 35.68,-198.06 92.63,-249.9 15.77,-14.35 93.99,-62.7 110.38,-62.75 13.14,-0.04 54.4,10.76 74.25,13.52 29.72,4.14 45.54,7.61 79.85,7.61 -13.79,-59.18 -51.02,-102.73 -51.02,-218.64 -25.31,18.55 -32.14,88.43 -75.11,136.25l-19.37 17.06c-39.9,31.02 -72.61,39.74 -126.12,48.79 -45.7,7.73 -79.92,16.54 -129.22,16.54z"/>
     <path class="fil1 str0" d="M6307.48 1484.29c45.73,33.96 45.31,118.6 39.43,170.64 -8.42,74.44 -81.8,227.78 -116.43,305.32 -29.8,66.71 -54.92,71.14 -139.36,80 7.84,-2.6 55.82,-5.56 60.68,52.67 32.49,1.63 65.85,4.85 89.51,35.27 12.62,8.72 8.01,3.89 18.56,15.23 -26.21,-71.76 -47.92,-80.58 -26.33,-168.13 46.52,-122.84 103.52,-210.31 222.63,-256.64 101.46,-39.46 160.21,-3.14 259.43,-88.08 30.77,-26.35 28.13,-46.05 62.52,-64.95l0 -111.91c-37.11,41.82 -27.1,171.59 -191.53,222.02 -205.39,62.99 -193.03,-14.38 -206.2,-73.3 -6.47,-28.96 -19.02,-50.74 -31.27,-73.94l-44.78 -91.34 -130.6 0c-18.37,21.89 -24.41,13.48 -44.1,36.73 59.02,-7.86 134.78,-26.56 177.84,10.41z"/>
     <path class="fil1 str0" d="M1494.39 4505.36l-80.17 0 0 102.03 94.74 0 82.59 -34.02c30.79,-14.66 57.95,-19.83 89.76,-34.13 76.6,-34.41 107.3,-19.3 199.34,-19.3 -8.1,-22.38 -12.31,-13.7 -31.47,-63.28 -9.35,-24.19 -18.89,-52.82 -19.55,-82.48 -45.42,12.13 -82.37,131.18 -335.24,131.18z"/>
     <path class="fil1 str0" d="M2747.91 2195.1c0,-104.76 -15.95,-291.21 48.73,-380.76 23.04,-31.91 24.88,-17.69 58.86,-29.77 22.39,-7.95 -0.03,6.91 16.3,-8.28 -18.6,-11.68 -23.04,-21.22 -55.61,-19.44 -121.18,154.93 -75.86,299.8 -76.62,408.04 -46.25,-43.96 -28.34,-57.31 -67.08,-64.06 -7.64,-1.33 -9.82,-0.39 -15.16,-1.32l-23.42 -6.45c57.97,-47.47 44.07,-124.89 108.25,-246.38 85.49,-161.83 30.39,-80.18 58.98,-172.74l39.05 -71.41c48.28,-64.68 68.09,-56.26 68.09,-165.38l-43.76 0c-2.44,29.3 -10.44,81.51 -22.03,101.88 -51,89.67 -24.62,-10.6 -83.49,171.58l-35.73 95.45c-23.34,65.58 -40.96,124.91 -65.31,189.77 -26.22,69.8 -95.75,106.26 -114.11,140.96 61.07,0 62.19,-11.01 123.38,0.47 24.81,4.65 29.81,6.04 44.47,21.17 13.1,13.53 20.14,25.9 36.21,36.67z"/>
     <path class="fil1 str0" d="M6349.12 1528.49c12.25,23.2 24.8,44.98 31.27,73.94 13.17,58.92 0.81,136.29 206.2,73.3 164.43,-50.43 154.42,-180.2 191.53,-222.02l0 -16.56c-9.97,7.31 -1.42,0.78 -11.56,10.3 -1.32,1.25 -6,5.62 -7.48,7.1l-30.06 35.53c-16.52,22.13 -26.57,37.36 -39.64,62.39 -24.27,46.48 -47.71,86.88 -110.79,100.61 -129.64,28.22 -102.93,-52.62 -161.96,-138.66 -17.6,-25.64 -31.2,-38.88 -32.05,-77.27l-80.24 0 44.78 91.34z"/>
     <path class="fil1 str0" d="M1725.15 6210.73c-18.36,-20.25 -28.78,-21.11 -53.47,-26.14 23.66,-14.66 48.42,-6.84 76.08,-10.97 24.89,-3.72 43.43,-15.78 61.84,-24.45l-16.41 165.24c15.32,31.79 -3.34,10.31 29.15,27.51l7.87 -175.61c2.35,-38.76 13.89,-45.51 -24.58,-39.73 -31.41,4.71 -46.95,8.56 -83.07,13.52 -39.87,5.47 -136.66,-0.49 -172.96,9.24 -56.51,15.16 -60.49,46.82 -135.38,46.82l0 116.61c46.06,-1.03 46.34,-17.54 78.67,-37.94 77.73,-49.07 100.5,-83.81 168.04,-81.87 36.77,1.06 25.25,10.88 64.22,17.77z"/>
     <path class="fil1 str0" d="M3462.12 1971.29l-1.79 -2.12c-53.68,61.18 -202.07,54.74 -244.68,0l-1.32 -0.04c-15.79,-6.73 -12.84,-3.18 -21.86,-13.22 -10,14.67 -15.93,41.35 -25.2,61.14 -12.31,26.25 -23.81,38.58 -36.84,65.32 103.74,-59.71 284.34,-95.46 404.83,-4.27 42.25,31.97 38.85,51.68 65.33,101.83 27.28,-37.39 18.52,-34.08 74.71,-24.9 1.03,-28.47 -6.45,-12.69 10.95,-32.81 -52.29,-26.89 -102.03,-15.43 -126.42,-86.29 -21.09,-44.82 -68.96,-220.36 -72.29,-278.11l3.73 -6.48c-4.56,-7.52 -3.38,-2.28 -5.98,-16.46l1.19 -68.76c-16.74,25.68 -11.62,54.77 -7.16,84.09 4.15,27.24 7.66,54.55 11.66,82.06 8.8,60.64 17.64,115.37 -28.86,139.02z"/>
     <path class="fil1 str0" d="M1414.22 1437.15l0 167.63 251.06 -120.63c50.28,-18.43 42.02,-16.68 76.9,-47l-327.96 0z"/>
     <path class="fil1 str0" d="M5519.44 1757.82c4.48,8.35 -2.47,4.46 8.87,10.99 15.42,8.88 5.54,4.39 18.16,3.92 56.7,18.28 103.37,38.34 153.09,65.18 28.43,15.35 35.77,29.28 45.37,63.57 15.43,55.16 1.13,59.08 4.64,103.54l62.23 -134.69 28.06 -25.09c-101.6,-15.6 -214.92,-35.66 -286.97,-115.55 -45.47,-50.41 -32.72,-70.65 -13.59,-139.33 19.42,-69.7 23.89,-94.97 56.61,-153.21l-57.69 0c11.27,68.02 -0.21,125.06 -33.14,177.3 -34.15,54.18 -84.73,40.11 -129.82,85.87 77.1,-3.71 114.46,14.9 144.18,57.5z"/>
     <path class="fil1 str0" d="M4438.7 1915.19c122.74,-13.84 156.98,-49.87 170.25,-168.06 5.8,-51.57 16.35,-105.75 12.3,-157.04 -4.41,-55.94 -8.42,-95.78 -3.02,-152.94l-48.34 0c0,166.96 39.07,220.19 -59.59,384.98 -41.95,70.05 -52,52.54 -71.6,93.06z"/>
     <path class="fil1 str0" d="M6632.36 6531.4c32.51,-23.81 71.64,-191.55 145.76,-211.35l0 -123.89c-29.79,-6.94 -41.76,-10.98 -61.3,-33.44 -9.72,-11.17 -13.25,-17.19 -22.66,-28.35l-25.36 -25.67c0,75 14.87,160.35 0.27,218.91 -18.56,74.51 -36.71,107.86 -36.71,203.79z"/>
     <path class="fil1 str0" d="M1589.13 2097.97l-1.79 -4.91 -51.4 27.54c-18.86,7.82 -29.84,13.54 -48.84,20.29 -23.83,-0.86 -51.89,13.95 -72.88,25.05l0 67.79 27.5 -25.86c25.49,-25.09 59.09,-41.01 94.47,-51.86 66.02,-20.25 77.81,-18.22 131.39,-57.34 97.76,-71.37 147.16,-86.18 276.97,-32.01 -10.08,-7.53 -2.68,-3.65 -9.78,-17.32l4.18 -7.29 -7.29 3.74c-23.82,-14.84 -33.38,-38.83 -40.42,-80.17 -4.27,-25.07 -5.06,-53.18 3.22,-77.44 5.74,-16.82 4.78,-10.78 8.05,-16.1l-2.93 -4.94 20.62 -57.35c-5.04,17.58 -38.29,84.19 -49.5,106.01 -16.85,32.81 -40.89,69.12 -65.3,87.57 -10.43,7.88 -194.26,87.76 -216.27,94.6z"/>
     <path class="fil1 str0" d="M1414.22 6801.06l335.24 0c-10.05,-37.65 -54.94,-32.74 -121.94,-45.68l-147.71 -27.2c-27.44,18.38 -49.65,42.74 -65.59,72.88z"/>
     <path class="fil1 str0" d="M2658.55 3480.77c137.97,2.81 133.9,9.42 249.62,39.19 -14.66,-25.14 -90.49,-71.77 -113.17,-260.98 -2.99,150.75 11.91,143.84 -106.29,203.24l-30.16 18.55z"/>
     <path class="fil1 str0" d="M2237.75 6035.71c11.17,5.7 36.11,22.21 43.63,29.38 52.29,49.76 -6.6,108.01 4.78,180.1l9.9 -9.9c28.38,-50.76 -2.63,-25.86 55.54,-92.91l90.22 -106.56 -36.45 5.74c-32.77,-1.39 -62.36,-2.36 -95.05,-5.25 -16.98,-1.49 -24.52,-2.52 -38.9,-4.26 -27.32,-3.32 -23.15,-15.2 -37.68,3.77l4.01 -0.11z"/>
     <path class="fil1 str0" d="M5211.22 5230.46l-1.21 3.69c-10.8,15.28 -46.6,52.96 -56.07,60.07 -41.19,40.59 -53.36,51.29 -127.04,40.21l12.52 13.09c18.04,15.16 126.97,82.79 130.75,123.4 9.53,-74.83 -17.51,-95.9 21.86,-179.41 10.57,-28.06 25.03,-53.89 38.71,-77.9 -16.88,24.32 -3.5,5.95 -19.52,16.85z"/>
     <path class="fil1 str0" d="M1414.22 4034.1c78.91,-0.36 140.92,-14.55 215.82,-20.21 -11.63,-8.93 6.11,1.33 -18,-10.63l-38.66 -14.42c-66.44,-22.53 -87.56,-29.8 -159.16,-35.09l0 80.35z"/>
     <path class="fil1 str0" d="M1725.15 6210.73l16.72 21.8c4.99,6.03 1.75,0.82 9.77,12.35 5.13,7.36 3.21,4.7 8.37,13.61 12.23,21.13 18.35,40.77 33.18,55.92l16.41 -165.24c-18.41,8.67 -36.95,20.73 -61.84,24.45 -27.66,4.13 -52.42,-3.69 -76.08,10.97 24.69,5.03 35.11,5.89 53.47,26.14z"/>
     <path class="fil1 str0" d="M4074.31 2756.26c7.84,-29.37 31.57,-44.04 55.12,-61.48 20.65,-15.3 52.55,-30.43 61.48,-55.12l-211.34 102.03c26.42,7.06 21.81,9.44 44.34,35.82 0.97,1.13 2.45,2.82 3.4,3.9l10.56 11.29c22.52,-16.5 9.81,-18.6 36.44,-36.44z"/>
     <polygon class="fil1 str0" points="4074.31,2756.26 4074.31,2763.55 4082.81,2757.48 "/>
     <polygon class="fil1 str0" points="2747.91,2195.1 2747.91,2202.38 2756.41,2196.31 "/>
     <path class="fil1 str0" d="M4169.05 2632.37l2.18 -2.17c-0.15,0.14 -2.9,1.45 -2.18,2.17z"/>
     <path class="fil1 str0" d="M4125.32 2712.54l2.18 -2.18c-0.15,0.15 -2.9,1.45 -2.18,2.18z"/>
     <path class="fil1 str0" d="M4059.73 2690.67l2.18 -2.17c-0.15,0.14 -2.9,1.45 -2.18,2.17z"/>
     <path class="fil1 str0" d="M6679.2 4045.2c17.45,2 30.75,3.24 41.36,8.13 10.6,4.87 18.52,13.37 23.21,28.46 4.68,15.07 6.12,36.72 4.43,72.32 -1.67,35.59 -6.48,85.12 -7.23,126.97 -0.7,41.83 2.67,75.99 3.38,103.17 0.72,27.17 -1.19,47.36 -2.88,62.28 -1.69,14.91 -3.12,24.51 -6.25,32.22 -3.12,7.7 -7.94,13.45 -15.89,19.5 -7.91,6.03 -18.96,12.31 -36.23,15.82 -17.26,3.49 -40.73,4.18 -51.07,6.58 -10.33,2.37 -7.57,6.45 4.42,11.84 11.97,5.41 33.12,12.15 56.54,17.19 23.45,5.04 49.17,8.43 70.32,5.55 21.17,-2.91 37.78,-12.04 48.24,-31.04 10.49,-18.99 14.8,-47.85 21.53,-92.81 6.75,-44.99 15.88,-106.06 17.79,-164.96 1.93,-58.93 -3.33,-115.7 -20.19,-160.89 -16.83,-45.21 -45.18,-78.9 -77.67,-94.74 -32.45,-15.88 -69.01,-13.95 -92.09,-6.5 -23.09,7.43 -32.7,20.45 -26.74,28.3 5.99,7.86 27.6,10.61 45.02,12.61z"/>
     <path class="fil1 str0" d="M6675.28 4606.72c12.96,3.97 31.86,8.29 44.62,15.08 12.79,6.76 19.5,15.97 23.26,36.46 3.77,20.5 4.61,52.31 2.49,78.25 -2.08,25.92 -7.09,45.98 -8.35,68.38 -1.25,22.37 1.26,47.04 3.56,70.25 2.3,23.22 4.38,44.98 3.54,64.44 -0.83,19.42 -4.58,36.6 -16.72,53.09 -12.15,16.48 -32.65,32.33 -33.49,41.96 -0.84,9.62 18.01,13 40.58,15.75 22.61,2.75 48.99,4.83 65.28,-11.46 16.32,-16.33 22.59,-51.05 26.77,-101.44 4.18,-50.43 6.26,-116.5 2.28,-171.08 -3.97,-54.59 -13.99,-97.66 -31.56,-128.61 -17.57,-30.96 -42.65,-49.78 -68.8,-54.81 -26.15,-5.04 -53.33,3.78 -63.42,9.98 -10.06,6.17 -3,9.79 9.96,13.76z"/>
     <path class="fil1 str0" d="M6565.36 5187.94c34.41,-1.74 77.1,-8.49 107.39,-3 30.31,5.47 48.19,23.16 55.56,56.45 7.37,33.27 4.22,82.14 2.66,126.3 -1.6,44.14 -1.6,83.56 -1.06,114.57 0.53,31 1.58,53.58 -2.59,75.99 -4.16,22.42 -13.54,44.63 -37.45,65.14 -23.91,20.51 -62.36,39.27 -56.37,47.88 6.01,8.59 56.48,7.03 96.94,0.46 40.46,-6.58 70.95,-18.16 92.99,-77 22.08,-58.86 35.77,-165.04 35.77,-253.32 0,-88.29 -13.69,-158.71 -58.88,-198.13 -45.18,-39.41 -121.92,-47.85 -182.1,-40.98 -60.16,6.82 -103.78,28.87 -124.28,44.91 -20.49,16.03 -17.86,26.03 -3.49,32.65 14.4,6.58 40.51,9.83 74.91,8.08z"/>
     <path class="fil1 str0" d="M6688.19 5707.02c23.91,9 71.12,11.79 98.65,26.41 27.54,14.63 35.42,41.03 35.42,74.48 0,33.45 -7.88,73.93 -10.39,123.68 -2.53,49.74 0.27,108.76 -2.83,151.49 -3.08,42.73 -12.07,69.14 -26.7,83.48 -14.6,14.33 -34.86,16.6 -36.49,29.84 -1.63,13.23 15.31,37.46 4.62,74.85 -10.67,37.39 -48.95,87.9 -72.97,125.22 -23.96,37.29 -33.58,61.36 -37.47,82.01 -3.89,20.62 -2.02,37.79 -14.61,56.41 -12.62,18.58 -39.71,38.58 -75.18,61.82 -35.46,23.21 -79.3,49.61 -116.41,65.37 -37.09,15.74 -67.45,20.79 -83.48,42.2 -16.01,21.38 -17.7,59.06 7.87,76.77 25.58,17.71 78.43,15.42 134.92,-12.98 56.49,-28.42 116.65,-82.94 178.47,-158.26 61.83,-75.34 125.36,-171.47 177.63,-277.41 52.26,-105.98 93.33,-221.77 105.12,-323.79 11.82,-102.04 -5.63,-190.28 -46.95,-247.61 -41.3,-57.36 -106.52,-83.76 -151.21,-94.16 -44.68,-10.41 -68.86,-4.79 -80.66,5.6 -11.79,10.41 -11.25,25.6 12.65,34.58z"/>
     <path class="fil1 str0" d="M5662.47 6717.58c28.99,7.44 58.5,12.69 95.16,10.16 36.66,-2.53 80.47,-12.8 125.71,-17.92 45.26,-5.13 92.02,-5.13 130.54,0.59 38.56,5.7 68.9,17.15 97.93,30.9 29.05,13.72 56.81,29.76 71.72,48.41 14.92,18.63 17.01,39.91 -44.11,63.73 -61.11,23.8 -185.45,50.15 -276.39,41.85 -90.94,-8.31 -148.51,-51.27 -190.67,-91.13 -42.16,-39.87 -68.95,-76.67 -68.15,-90.19 0.85,-13.55 29.3,-3.84 58.26,3.6z"/>
     <path class="fil1 str0" d="M5329.36 6623.99c2.73,13.93 65.59,61.86 104.17,97.04 38.62,35.17 52.97,57.61 34.57,82.86 -18.38,25.23 -69.52,53.31 -154.59,62.29 -85.04,8.98 -204.06,-1.1 -286.29,-22.02 -82.2,-20.95 -127.65,-52.68 -158.31,-70.21 -30.66,-17.55 -46.56,-20.94 -74.86,-30.64 -28.33,-9.71 -69.1,-25.79 -110.92,-29.86 -41.83,-4.09 -84.7,3.8 -104.66,18.7 -19.96,14.87 -16.98,36.77 -68.55,38.92 -51.56,2.16 -157.7,-15.39 -236.35,-20.56 -78.66,-5.19 -129.88,2.04 -164.5,-0.49 -34.59,-2.54 -52.65,-14.79 -67.8,-14.43 -15.14,0.36 -27.39,13.34 -6.48,38.6 20.92,25.23 75.02,62.74 258.93,97.36 183.93,34.62 497.66,66.36 720.51,74.65 222.87,8.28 354.85,-6.84 434.54,-41.11 79.72,-34.26 107.12,-87.63 97.18,-133.3 -9.95,-45.67 -57.26,-83.6 -109.61,-112.63 -52.34,-29.03 -109.72,-49.08 -106.98,-35.17z"/>
     <path class="fil1 str0" d="M3878.58 6638.87c3.66,19.25 18.03,48.82 22.29,69.21 4.29,20.39 -1.52,31.59 -21.84,39.45 -20.3,7.83 -55.13,12.32 -91.2,13.56 -36.04,1.23 -73.36,-0.75 -101.47,0.73 -28.12,1.5 -47,6.46 -73.53,4.9 -26.51,-1.57 -60.65,-9.67 -85.75,-21.36 -25.14,-11.7 -41.24,-26.95 -55.03,-29.12 -13.77,-2.17 -25.22,8.78 -29.94,20.71 -4.71,11.95 -2.72,24.87 -5.97,34.02 -3.24,9.14 -11.67,14.49 -50.74,12.24 -39.04,-2.24 -108.69,-12.06 -165.42,-18.45 -56.7,-6.41 -100.47,-9.4 -134.8,-11.15 -34.32,-1.75 -59.17,-2.22 -78.33,-8.93 -19.14,-6.73 -32.58,-19.66 -47.53,-32.83 -14.91,-13.19 -31.32,-26.64 -39.74,-23.2 -8.41,3.41 -8.79,23.66 12.84,52.53 21.66,28.84 65.31,66.29 191.61,97.7 126.31,31.4 335.24,56.75 481.49,60.49 146.27,3.75 229.82,-14.17 280.56,-46.75 50.74,-32.6 68.67,-79.85 63.69,-124.1 -5,-44.29 -32.84,-85.6 -50.3,-101.76 -17.45,-16.14 -24.53,-7.16 -20.89,12.11z"/>
     <path class="fil1 str0" d="M2780.07 6641.62c7.03,17.96 26.73,44.91 35.93,64.85 9.23,19.92 7.94,32.84 -2.77,40.84 -10.68,7.99 -30.86,11.1 -72.54,13.21 -41.66,2.13 -104.84,3.32 -149.81,4.49 -44.96,1.16 -71.73,2.3 -105.47,3.29 -33.73,0.96 -74.41,1.72 -105.43,-4.85 -31.01,-6.59 -52.32,-20.57 -63.77,-19.8 -11.44,0.79 -12.98,16.3 10.28,37.83 23.25,21.52 71.35,49.02 153.71,60.86 82.37,11.8 199.05,7.95 270,-0.59 70.95,-8.53 96.14,-21.73 110.81,-45.59 14.67,-23.89 18.8,-58.5 7.55,-90.84 -11.22,-32.37 -37.85,-62.53 -54.46,-78.76 -16.61,-16.23 -23.19,-18.57 -29.3,-15.23 -6.1,3.31 -11.76,12.3 -4.73,30.29z"/>
     <path class="fil1 str0" d="M1526.26 6218.53c-8.46,9.13 -26.75,22.5 -39.21,38.11 -12.49,15.6 -19.2,33.42 -18.31,57.06 0.91,23.62 9.37,53.05 27.41,88.04 18.07,35 45.7,75.59 70.65,107.03 24.99,31.42 47.29,53.7 64.68,74 17.39,20.28 29.87,38.56 50.37,51.94 20.51,13.36 49.05,21.84 72.66,32.33 23.64,10.46 42.38,22.94 68.9,28.74 26.53,5.79 60.86,4.88 92.5,15.61 31.66,10.69 60.65,32.98 87.39,45.02 26.75,12.04 51.28,13.82 74.69,13.15 23.41,-0.66 45.7,-3.78 68.65,-4.22 22.97,-0.46 46.58,1.77 63.98,10.04 17.39,8.25 28.53,22.51 -24.52,36.09 -53.04,13.61 -170.31,26.53 -296.62,12.92 -126.31,-13.6 -261.69,-53.73 -347.96,-107.02 -86.25,-53.28 -123.44,-119.7 -150.49,-182.53 -27.06,-62.86 -43.99,-122.17 -46.68,-166.08 -2.67,-43.91 8.93,-72.45 30.98,-93.41 22.08,-20.97 54.63,-34.32 82.48,-45.69 27.88,-11.38 51.05,-20.74 63.32,-22.96 12.26,-2.23 13.6,2.66 5.13,11.83z"/>
     <path class="fil1 str0" d="M1518.38 5671.01c0.17,15.76 -28.19,27.34 -49.75,39.67 -21.53,12.33 -36.28,25.42 -40.43,52.64 -4.17,27.19 2.29,68.53 5.83,114.2 3.55,45.64 4.21,95.61 4.54,135.61 0.33,40.01 0.33,70.01 7.91,96.27 7.62,26.28 22.79,48.86 36.78,60.85 14.01,12 26.83,13.43 22.37,21.59 -4.44,8.13 -26.12,22.98 -62.11,32.31 -36,9.33 -86.3,13.14 -122.79,-14.93 -36.47,-28.09 -59.12,-88.09 -59.45,-158.4 -0.35,-70.33 21.66,-151 43.66,-216.3 21.98,-65.32 43.98,-115.34 69.98,-149.31 26,-34.01 55.98,-51.98 85.31,-50.98 29.32,1 58,20.96 58.15,36.78z"/>
     <path class="fil1 str0" d="M1492.66 5150.36c-17.26,8.52 -31.53,9.54 -43.54,17.49 -12,7.9 -21.76,22.76 -24.12,62.91 -2.33,40.12 2.73,105.56 5.52,157.1 2.8,51.55 3.31,89.22 7.5,115.4 4.21,26.19 12.04,40.83 30.61,53.66 18.6,12.81 47.91,23.8 63.59,39.24 15.73,15.45 17.81,35.32 -3.55,47.36 -21.37,12.04 -66.24,16.24 -107.57,7.08 -41.35,-9.16 -79.19,-31.66 -108.6,-77.72 -29.39,-46.04 -50.32,-115.67 -55.82,-187.62 -5.52,-71.98 4.45,-146.28 31.66,-200.98 27.22,-54.7 71.69,-89.77 115.14,-105.99 43.45,-16.23 85.83,-13.61 110.15,-5.23 24.35,8.36 30.63,22.49 23.62,37.6 -7,15.1 -27.28,31.15 -44.59,39.7z"/>
     <path class="fil1 str0" d="M1500.56 4597.94c-13.86,9.45 -36.11,9.45 -47.25,22.27 -11.1,12.79 -11.1,38.38 -11.38,95.14 -0.24,56.77 -0.75,144.69 -1.02,199.13 -0.26,54.42 -0.26,75.34 12.03,90.17 12.29,14.79 36.84,23.46 49.02,33.83 12.15,10.4 11.93,22.48 -0.11,30.73 -12.01,8.21 -35.84,12.58 -82.29,-5.13 -46.44,-17.72 -115.52,-57.51 -145.62,-112.44 -30.08,-54.95 -21.18,-125.1 -6.55,-182.67 14.66,-57.56 35.08,-102.59 60.5,-138.68 25.42,-36.12 55.89,-63.35 89.64,-75.11 33.75,-11.78 70.83,-8.11 86.61,3.18 15.8,11.25 10.29,30.14 -3.58,39.58z"/>
     <path class="fil1 str0" d="M5330.33 6633.26c1.09,15.2 33.59,54.77 28.71,80.81 -4.87,26.04 -47.11,38.58 -101.48,46.25 -54.3,7.67 -120.74,10.44 -174.15,11.15 -53.39,0.7 -93.82,-0.71 -135.98,-4.45 -42.17,-3.76 -86.13,-9.84 -93.8,3.61 -7.63,13.47 20.96,46.51 101.22,72.34 80.26,25.81 212.15,44.39 305.26,40.21 93.14,-4.18 147.49,-31.13 181.44,-64.6 33.95,-33.48 47.49,-73.48 35.5,-104.95 -11.98,-31.47 -49.52,-54.41 -83.47,-70.43 -33.95,-16.03 -64.32,-25.15 -63.25,-9.94z"/>
     <path class="fil1 str0" d="M1573.99 4038.76c-22.76,10.85 -70.8,21.48 -98.66,32.55 -27.85,11.04 -35.52,22.53 -39.35,48.92 -3.83,26.35 -3.83,67.6 -2.76,106.52 1.06,38.91 3.21,75.47 3.61,110.34 0.44,34.88 -0.81,68.05 2.58,91.45 3.4,23.38 11.48,36.99 29.96,51.45 18.52,14.46 47.44,29.78 54.67,40.41 7.22,10.62 -7.27,16.59 -34.69,18.71 -27.42,2.12 -67.82,0.42 -101.65,-18.51 -33.8,-18.92 -60.99,-55.06 -69.93,-107.38 -8.92,-52.3 0.41,-120.78 17.65,-184.35 17.22,-63.6 42.31,-122.26 70.37,-162.25 28.08,-39.99 59.12,-61.24 90.59,-68.25 31.47,-7.01 63.37,0.2 80.59,9.35 17.24,9.14 19.78,20.2 -2.98,31.04z"/>
     <path class="fil1 str0" d="M1492.51 3472.51c-14.46,0.21 -37.45,-7.03 -49.78,-3.62 -12.34,3.39 -14.04,17.43 -14.69,56.99 -0.62,39.56 -0.19,104.62 2.57,149.71 2.76,45.09 7.88,70.18 9.13,93.16 1.29,22.95 -1.25,43.79 -1.25,64.64 0,20.84 2.54,41.68 16.57,61.25 14.06,19.55 39.55,37.84 41.89,55.07 2.36,17.23 -18.48,33.41 -60.17,31.91 -41.67,-1.49 -104.2,-20.62 -139.72,-82.73 -35.5,-62.1 -44.03,-167.14 -34.66,-256.04 9.36,-88.9 36.57,-161.64 59.74,-202.45 23.2,-40.84 42.33,-49.78 65.7,-49.98 23.43,-0.22 51.06,8.28 73.61,20.85 22.54,12.53 39.98,29.12 45.72,41.24 5.75,12.12 -0.23,19.77 -14.66,20z"/>
     <path class="fil1 str0" d="M1588.22 2739.15c-17.43,2.2 -57.25,23.76 -84.63,29.3 -27.37,5.53 -42.28,-4.97 -49.49,-19.34 -7.19,-14.4 -6.62,-32.63 -8.02,-70.51 -1.38,-37.9 -4.69,-95.4 -5.81,-142.69 -1.09,-47.29 0,-84.33 3.05,-116.14 3.04,-31.8 8.03,-58.33 11.2,-84.48 3.16,-26.15 4.56,-51.88 2.12,-73.04 -2.44,-21.18 -8.68,-37.78 -22.08,-40.11 -13.4,-2.34 -33.99,9.58 -70.56,60.07 -36.55,50.45 -89.07,139.5 -115.9,257.56 -26.82,118.07 -27.91,265.17 21.01,335.7 48.95,70.51 147.96,64.41 210.71,34.29 62.78,-30.16 89.32,-84.33 105.08,-120 15.77,-35.66 20.73,-52.84 3.32,-50.61z"/>
     <path class="fil1 str0" d="M1506.09 2165.02c6.6,-13.16 -16.89,-17.3 -32.83,-28.21 -15.95,-10.93 -24.33,-28.66 -27.11,-56.27 -2.75,-27.63 0.16,-65.12 10.01,-102.16 9.85,-37.03 26.7,-73.6 41.85,-92.82 15.14,-19.24 28.6,-21.18 39.18,-35.35 10.58,-14.18 18.28,-40.66 20.69,-62.05 2.39,-21.4 -0.49,-37.77 5.05,-56.51 5.5,-18.76 19.45,-39.93 34.83,-56.5 15.41,-16.61 32.26,-28.65 47.89,-43.06 15.63,-14.43 30.05,-31.26 44,-33.66 13.95,-2.42 27.4,9.63 43.53,8.91 16.11,-0.72 34.87,-14.2 49.78,-27.89 14.92,-13.73 25.98,-27.68 38.71,-40.4 12.77,-12.75 27.17,-24.3 48.81,-34.4 21.67,-10.09 50.51,-18.77 79.84,-25.98 29.35,-7.23 59.18,-12.98 83.94,-6.24 24.78,6.71 44.48,25.93 62.99,27.63 18.54,1.69 35.85,-14.18 54.86,-21.7 19.03,-7.5 39.78,-6.6 64.05,1.57 24.29,8.17 52.16,23.64 63.66,10.22 11.51,-13.42 6.7,-55.72 -53.43,-87.7 -60.09,-32 -175.53,-53.64 -339.57,-54.84 -163.98,-1.19 -376.56,18.03 -495.58,99.32 -119.05,81.28 -144.54,224.59 -150.33,351.1 -5.75,126.48 8.19,236.13 42.35,304.07 34.15,67.95 88.54,94.19 134.06,96.21 45.51,2.03 82.19,-20.13 88.77,-33.29z"/>
     <path class="fil1 str0" d="M2839.32 1550.93c-0.88,1.24 9.09,-19.04 9.96,-37.58 0.9,-18.53 -7.3,-35.27 -19.22,-45.58 -11.93,-10.34 -27.61,-14.26 -45.42,-15.67 -17.82,-1.44 -37.76,-0.4 -61.81,2.66 -24.05,3.02 -52.19,8.01 -77.31,5.97 -25.1,-2.04 -47.21,-11.12 -69.83,-9.69 -22.61,1.44 -45.77,13.35 -72.83,17.72 -27.07,4.34 -58.08,1.14 -78.37,-0.29 -20.27,-1.45 -29.85,-1.11 -48.92,-5.45 -19.04,-4.37 -47.6,-13.42 -60.45,-26.77 -12.83,-13.35 -9.98,-31.01 33.48,-56.75 43.46,-25.74 127.52,-59.58 217.81,-70.79 90.34,-11.23 186.88,0.17 242.98,20.3 56.11,20.12 71.81,48.99 74.11,79.61 2.32,30.63 -8.71,63.06 -20.11,90.65 -11.42,27.61 -23.17,50.42 -24.07,51.66z"/>
     <path class="fil1 str0" d="M2465.8 1469.37c-6.21,5.03 -21.69,8.48 -31.92,12.11 -10.21,3.63 -15.14,7.44 -16.49,12.78 -1.33,5.31 0.94,12.18 -2.54,23.24 -3.5,11.02 -12.76,26.25 -24.56,26.19 -11.81,-0.06 -26.14,-15.43 -32.36,-31.98 -6.21,-16.57 -4.32,-34.35 5.76,-45.56 10.11,-11.25 28.37,-15.95 46.79,-17.33 18.4,-1.41 36.93,0.49 47.7,4.75 10.81,4.24 13.86,10.79 7.62,15.8z"/>
     <path class="fil1 str0" d="M2994.62 1535.51c10.7,-3.15 6.6,-14.95 5.61,-25.45 -0.99,-10.54 1.17,-19.78 6.58,-27.74 5.42,-7.96 14.05,-14.64 29.97,-19.34 15.94,-4.74 39.15,-7.49 57.82,-6.32 18.68,1.19 32.85,6.32 47.59,6.12 14.73,-0.21 30.05,-5.73 45.68,-5.34 15.64,0.41 31.57,6.7 45.33,16.33 13.75,9.65 25.37,22.61 42.67,25.47 17.31,2.85 40.31,-4.43 58.49,-12.3 18.19,-7.86 31.56,-16.33 49.26,-18.57 17.69,-2.27 39.7,1.65 55.04,11.6 15.33,9.92 23.98,25.84 29.59,37.84 5.6,11.99 8.15,20.03 10.01,8.83 1.87,-11.18 3.08,-41.66 -2.72,-68.69 -5.8,-27.04 -18.6,-50.63 -92.62,-59.95 -74.01,-9.35 -209.27,-4.43 -294.11,4.46 -84.84,8.91 -119.23,21.79 -136.85,43.32 -17.59,21.54 -18.37,51.7 -6,69.52 12.4,17.84 37.95,23.35 48.66,20.21z"/>
     <path class="fil1 str0" d="M3545.28 1538.29c3.97,-15.49 4.1,-42.23 10.1,-58.1 6.04,-15.87 17.95,-20.92 36.33,-23.94 18.4,-3.05 43.27,-4.11 67.06,-2 23.83,2.14 46.59,7.4 68.54,8.07 21.96,0.66 43.14,-3.3 67.74,-5.42 24.61,-2.12 52.65,-2.38 70.51,-1.96 17.85,0.36 25.54,1.45 32.55,7.66 7,6.22 13.37,17.58 19.87,31.62 6.48,14.01 13.12,30.7 25.29,35.19 12.19,4.49 29.86,-3.19 42.56,-19.98 12.7,-16.82 20.38,-42.74 7.41,-75.4 -12.98,-32.7 -46.57,-72.11 -112.45,-84.82 -65.88,-12.71 -164.06,1.33 -234.97,20.45 -70.9,19.09 -114.56,43.29 -136.26,69.49 -21.7,26.19 -21.42,54.38 -15.09,75.23 6.36,20.84 18.8,34.33 28.92,38.97 10.13,4.62 17.91,0.4 21.89,-15.06z"/>
     <path class="fil1 str0" d="M4585.4 1593.54c-9.12,-5.28 -10.31,-31.29 -14.89,-56.74 -4.56,-25.47 -12.48,-50.36 -23.16,-63.99 -10.67,-13.66 -24.07,-16.08 -44.56,-16.57 -20.46,-0.54 -47.97,0.86 -69.5,5.83 -21.48,4.99 -36.96,13.59 -64.85,15.32 -27.87,1.69 -68.09,-3.46 -97.19,-7.92 -29.07,-4.48 -46.95,-8.27 -66.74,-8.27 -19.79,0 -41.45,3.79 -59.19,7.24 -17.69,3.45 -31.47,6.53 -44.01,23.04 -12.55,16.5 -23.88,46.4 -40.75,57.4 -16.85,11.01 -39.23,3.13 -48.53,-21.79 -9.28,-24.94 -5.5,-66.91 18.41,-106.14 23.91,-39.21 67.95,-75.66 149.31,-94.4 81.37,-18.76 200.04,-19.82 279.34,1.58 79.32,21.4 119.22,65.2 140.89,108.9 21.69,43.69 25.14,87.27 18.32,116.78 -6.79,29.52 -23.78,45.01 -32.9,39.73z"/>
     <path class="fil1 str0" d="M5466.93 1573.34c-8.58,-13.76 -4.99,-38.18 -10.47,-59.08 -5.47,-20.92 -20.02,-38.32 -39.22,-47.03 -19.21,-8.71 -43.03,-8.71 -65.42,-2.3 -22.4,6.38 -43.32,19.16 -74.73,21.18 -31.41,2.06 -73.24,-6.67 -100.02,-16.05 -26.75,-9.4 -38.36,-19.46 -65.41,-19.75 -27.04,-0.3 -69.49,9.2 -104.09,23.26 -34.6,14.03 -61.34,32.61 -112.82,32.06 -51.44,-0.59 -127.63,-20.37 -165.14,-40.14 -37.5,-19.77 -36.33,-39.53 -13.07,-64.82 23.25,-25.31 68.61,-56.13 168.91,-76.75 100.31,-20.65 255.56,-31.13 360.23,-19.2 104.66,11.91 158.77,46.21 199.77,79.64 41.03,33.42 69,65.96 78.75,100.65 9.77,34.7 1.31,71.51 -13.29,88.37 -14.61,16.84 -35.39,13.73 -43.98,-0.04z"/>
     <path class="fil1 str0" d="M6038.77 1502.18c-0.53,-7.04 9.09,-21.02 8.88,-29.44 -0.18,-8.42 -10.21,-11.31 -26.08,-13.13 -15.83,-1.84 -37.49,-2.64 -58.57,3.17 -21.04,5.82 -41.49,18.24 -63.15,25.07 -21.66,6.8 -44.54,8.03 -65,3.83 -20.45,-4.23 -38.49,-13.86 -60.55,-21.46 -22.06,-7.62 -48.13,-13.25 -67.99,-16.04 -19.84,-2.82 -33.49,-2.82 -49.76,7.6 -16.27,10.4 -35.23,31.19 -49.27,28.83 -14.03,-2.37 -23.2,-27.91 -1.7,-60.99 21.52,-33.05 73.67,-73.65 156.68,-96.15 83.02,-22.5 196.95,-26.91 268.77,-4.72 71.85,22.16 101.62,70.9 99.53,105.44 -2.04,34.54 -35.97,54.83 -58.29,64.95 -22.29,10.11 -32.99,10.04 -33.5,3.04z"/>
     <path class="fil1 str0" d="M6434.16 1579.13c0.41,-7.56 -7.45,-22.86 -10.29,-32.65 -2.83,-9.78 -0.65,-14.07 4.83,-14.17 5.5,-0.09 14.31,3.98 27.43,13 13.15,9 30.6,22.93 45.78,34.68 15.23,11.77 28.16,21.38 39.82,29.63 11.69,8.22 22.07,15.11 28.73,20.68 6.68,5.6 9.62,9.93 7.51,14.04 -2.07,4.11 -9.2,8.02 -9.01,12.73 0.21,4.71 7.71,10.21 20.08,7.28 12.4,-2.95 29.67,-14.33 25.73,-37.07 -3.92,-22.75 -29.01,-56.89 -60.99,-79.43 -31.94,-22.58 -70.78,-33.54 -101.58,-37.25 -30.79,-3.74 -53.51,-0.21 -58.13,13.62 -4.61,13.82 8.93,37.92 20,50.1 11.09,12.14 19.69,12.35 20.09,4.81z"/>
     <path class="fil1 str0" d="M6579.92 1718.24c8.01,3.37 27.75,-0.97 45.15,4.9 17.39,5.84 32.43,21.83 48.99,60.12 16.56,38.29 34.63,98.84 47.02,143.05 12.43,44.19 19.2,72.02 23.53,99.3 4.33,27.27 6.2,53.96 7.53,75.99 1.32,22 2.05,39.28 -0.53,54.13 -2.57,14.86 -8.5,27.28 -21.85,37.98 -13.33,10.72 -34.14,19.79 -52.06,26.56 -17.92,6.77 -32.96,11.27 -25.82,17.28 7.15,6.03 36.49,13.56 66.39,16.39 29.9,2.81 60.38,0.93 83.7,-30.66 23.33,-31.6 39.49,-92.92 44.2,-159.12 4.7,-66.19 -2.08,-137.3 -22.76,-195.22 -20.69,-57.94 -55.31,-102.69 -90.77,-135.08 -35.45,-32.42 -71.72,-52.46 -97.42,-57.24 -25.69,-4.77 -40.8,5.69 -50.2,16.46 -9.41,10.76 -13.09,21.78 -5.1,25.16z"/>
     <path class="fil1 str0" d="M6638.29 2336.11c17.36,-1.87 38.28,-11.64 55.7,-13.54 17.45,-1.95 31.4,3.99 37.56,43.71 6.15,39.73 4.51,113.24 3.13,172.67 -1.4,59.44 -2.48,104.78 -15.76,142.65 -13.28,37.86 -38.69,68.28 -42.59,81.26 -3.86,13 13.86,8.58 25.19,19.34 11.34,10.79 16.29,36.76 20.42,71.32 4.16,34.56 7.49,77.67 9.15,110.3 1.65,32.62 1.65,54.73 -0.28,79.32 -1.92,24.61 -5.82,51.7 -8.24,76.94 -2.39,25.21 -3.37,48.54 -7.99,72.15 -4.6,23.55 -12.89,47.34 7.2,43.14 20.1,-4.22 68.61,-36.42 104.45,-104.22 35.87,-67.82 59.1,-171.21 63.51,-303.88 4.43,-132.69 -9.96,-294.67 -38.7,-391.14 -28.74,-96.45 -71.86,-127.43 -112.5,-143.73 -40.64,-16.31 -78.78,-17.98 -102.55,-9.95 -23.78,8.01 -33.18,25.71 -31,37.57 2.21,11.87 15.96,17.93 33.3,16.09z"/>
     <path class="fil1 str0" d="M6619.11 3444.57c15.73,12.79 41.23,19.15 63.51,32.19 22.28,13.03 41.25,32.76 50.04,61.29 8.79,28.5 7.31,65.8 5.48,102.36 -1.82,36.56 -4.02,72.39 -5.86,100.92 -1.83,28.5 -3.27,49.72 -6.92,70.57 -3.67,20.84 -9.51,41.3 -18.99,61.62 -9.42,20.32 -22.5,40.46 -44.8,57.65 -22.31,17.17 -53.83,31.37 -50.98,37.03 2.88,5.65 40.19,2.73 85.14,-3.48 44.97,-6.23 97.62,-15.72 133.1,-74.58 35.45,-58.89 53.74,-167.12 61.39,-258.5 7.69,-91.42 4.78,-166 -35.82,-212.41 -40.56,-46.44 -118.81,-64.74 -168.9,-64.36 -50.09,0.37 -72.03,19.37 -80.02,38.5 -8.01,19.15 -2.09,38.41 13.63,51.2z"/>
    </g>
    <path class="fil1 str0" d="M2790.32 1625.45c0.28,-21.74 6.35,-51.86 8.56,-74.32 2.19,-22.45 0.51,-37.25 -12.19,-49.29 -12.67,-12.06 -36.34,-21.36 -65.1,-24.74 -28.74,-3.38 -62.54,-0.86 -91.53,2.54 -28.93,3.38 -53.01,7.6 -81.34,15.85 -28.32,8.24 -60.86,20.49 -77.78,31.49 -16.9,10.99 -18.18,20.71 -18.18,38.04 0,17.32 1.28,42.26 2.65,63.72 1.34,21.45 2.77,39.44 4.89,50.63 2.11,11.19 4.91,15.64 -8.3,12.99 -13.18,-2.64 -42.35,-12.37 -62.86,-40.67 -20.49,-28.35 -32.33,-75.26 -31.05,-123.88 1.27,-48.6 15.63,-98.9 68.04,-129.74 52.44,-30.86 142.88,-42.29 220.86,-37.64 77.99,4.65 143.52,25.37 185.78,54.74 42.27,29.39 61.28,67.42 65.09,100.81 3.8,33.4 -7.61,62.14 -23.03,85.17 -15.43,23.04 -34.87,40.38 -47.84,51.56 -12.94,11.18 -19.39,16.2 -25.4,12.05 -6,-4.18 -11.53,-17.54 -11.27,-39.31z"/>
    <path class="fil1 str0" d="M2315.11 1556.34c-26.99,1.44 -65.39,-23.34 -99.41,-33.78 -34.03,-10.47 -63.67,-6.58 -100.63,-3.91 -36.92,2.67 -81.17,4.14 -121.03,11.19 -39.86,7.05 -75.32,19.68 -105.73,32.57 -30.37,12.89 -55.64,26 -85.55,38.88 -29.88,12.88 -64.41,25.52 -86.77,41.32 -22.37,15.8 -32.55,34.76 -40.59,59.82 -8.03,25.01 -13.83,56.12 -20.16,76.54 -6.33,20.42 -13.13,30.15 -25.29,40.6 -12.13,10.45 -29.66,21.6 -46.67,34.25 -17,12.64 -33.52,26.74 -48.36,43.5 -14.82,16.78 -27.94,36.21 -36.94,52.27 -8.99,16.04 -13.84,28.67 -19.93,47.16 -6.07,18.47 -13.36,42.75 -14.35,63.44 -0.97,20.65 4.4,37.66 14.46,45.41 10.08,7.75 24.89,6.25 39.57,4.93 14.71,-1.34 29.32,-2.51 36.62,-3.08 7.29,-0.59 7.29,-0.59 -9.97,13.9 -17.26,14.49 -51.78,43.46 -94.99,47.88 -43.2,4.42 -95.11,-15.71 -117.83,-77.71 -22.71,-62.02 -16.25,-165.92 23.32,-264.04 39.56,-98.17 112.21,-190.58 186.8,-266.9 74.64,-76.32 151.21,-136.52 243.94,-169.06 92.74,-32.53 201.6,-37.42 291.42,-27.71 89.86,9.7 160.64,33.97 206.81,59.01 46.18,25.03 67.77,50.83 70.77,77.6 3.02,26.75 -12.52,54.46 -39.51,55.92z"/>
    <path class="fil1 str0" d="M1647.58 2162.27c-34.88,27.27 -85.08,63.7 -113.99,106.28 -28.9,42.56 -36.5,91.23 -39.45,144.01 -2.92,52.77 -1.17,109.67 2.34,155.7 3.53,46 8.79,81.21 25.2,95 16.44,13.77 44.02,6.15 64.02,1.66 20,-4.46 32.45,-5.79 32.96,10.79 0.5,16.61 -10.92,51.11 -36.79,80.49 -25.87,29.41 -66.19,53.7 -109.8,43.28 -43.6,-10.46 -90.52,-55.62 -112.5,-131.26 -21.98,-75.65 -19.06,-181.77 -2.08,-266.8 17,-85.03 48.02,-148.95 88.79,-193.5 40.74,-44.58 91.23,-69.79 138.75,-84.76 47.5,-14.94 92.07,-19.63 104.56,-12.93 12.48,6.68 -7.12,24.75 -42.01,52.04z"/>
    <path class="fil1 str0" d="M1602.51 2817.42c-8.92,49.13 -35.13,133 -48.84,200.31 -13.68,67.3 -14.87,118.02 -10.4,165.16 4.49,47.12 14.62,90.67 26.25,121.69 11.65,31.02 24.77,49.53 36.1,65.03 11.33,15.51 20.88,28.04 45.33,34.59 24.46,6.55 63.85,7.16 94.92,8.92 31.09,1.74 53.9,4.66 65.81,7.94 11.94,3.27 13.02,6.93 -10.56,23.35 -23.57,16.44 -71.81,45.64 -118.93,52.21 -47.15,6.56 -93.18,-9.53 -126.94,-30.39 -33.75,-20.86 -55.23,-46.5 -82.38,-95.12 -27.13,-48.64 -59.96,-120.23 -70,-201.13 -10,-80.93 2.75,-171.16 29.28,-245.74 26.57,-74.57 66.9,-133.48 96.29,-161.64 29.43,-28.19 47.86,-25.64 61.26,-17.16 13.41,8.46 21.75,22.84 12.81,71.98z"/>
    <path class="fil1 str0" d="M1677.06 3516.38c-31.4,-1.61 -88.21,-5.08 -126.13,2.27 -37.92,7.35 -56.93,25.48 -68.54,53.38 -11.61,27.87 -15.77,65.45 -14.58,103.32 1.18,37.89 7.75,76.08 17.58,108.9 9.84,32.81 22.97,60.24 39.38,82.32 16.41,22.08 36.1,38.78 65.62,49.82 29.55,11.03 68.92,16.41 118.14,16.91 49.26,0.47 108.35,-3.95 151.59,-8.11 43.28,-4.18 70.66,-8.13 68.55,-0.55 -2.1,7.54 -33.71,26.66 -69.23,41.33 -35.52,14.69 -74.95,24.98 -129.25,25.28 -54.28,0.29 -123.44,-9.41 -178.59,-23.77 -55.12,-14.36 -96.25,-33.41 -131.15,-68.62 -34.92,-35.18 -63.57,-86.52 -61.28,-151.39 2.32,-64.86 35.58,-143.2 61.23,-201.38 25.67,-58.17 43.7,-96.15 85.28,-109.23 41.57,-13.08 106.72,-1.28 148.24,10.53 41.53,11.8 59.47,23.6 66.61,35.28 7.15,11.64 3.54,23.2 -1.28,29.1 -4.81,5.91 -10.79,6.2 -42.19,4.61z"/>
    <path class="fil1 str0" d="M1468.55 3436.12c5.22,14.02 2.23,43.27 -7.16,64.14 -9.4,20.86 -25.19,33.34 -40.1,30.36 -14.92,-2.99 -28.95,-21.45 -26.26,-41.7 2.7,-20.28 22.12,-42.36 38.53,-53.98 16.4,-11.63 29.79,-12.84 34.99,1.18z"/>
    <path class="fil1 str0" d="M1742.88 4047.85c-33.4,18.15 -92.14,37.64 -135.01,57.17 -42.86,19.53 -69.83,39.08 -87.73,68.75 -17.87,29.68 -26.62,69.48 -32,110.29 -5.41,40.8 -7.44,82.61 -8.11,112.96 -0.68,30.35 0,49.23 8.09,63.4 8.09,14.17 23.62,23.61 44.51,26.31 20.91,2.71 47.24,-1.33 75.58,-5.57 28.36,-4.25 58.82,-8.68 82.43,-13.4 23.6,-4.72 40.36,-9.73 44.04,-7.51 3.67,2.21 -5.78,11.65 -28.7,26.48 -22.94,14.84 -59.35,35.09 -96.45,52.28 -37.11,17.21 -74.88,31.36 -117.38,30.69 -42.47,-0.67 -89.69,-16.18 -123.08,-71.17 -33.37,-54.96 -52.94,-149.39 -57,-228.98 -4.03,-79.6 7.44,-144.33 38.8,-186.52 31.35,-42.19 82.58,-61.79 131.81,-70.07 49.21,-8.28 96.39,-5.22 147.65,-6.14 51.28,-0.93 106.63,-5.82 130.29,0.14 23.67,5.95 15.65,22.75 -17.74,40.89z"/>
    <path class="fil1 str0" d="M1669.36 4547.57c-17.58,14.53 -47.12,37.37 -73.87,60.52 -26.75,23.14 -50.74,46.61 -68.32,72.86 -17.61,26.26 -28.82,55.36 -32.14,86.98 -3.3,31.62 1.28,65.78 8.4,100.71 7.16,34.94 16.84,70.64 25.78,96.39 8.92,25.77 17.07,41.57 31.68,51.28 14.61,9.69 35.64,13.26 60.35,8.48 24.74,-4.8 53.13,-17.97 70.4,-26.14 17.26,-8.17 23.43,-11.32 25.47,-4.75 2.07,6.58 0.03,22.9 -20.88,39.99 -20.91,17.08 -60.69,34.94 -97.16,44.37 -36.45,9.44 -69.61,10.47 -95.39,3.51 -25.79,-6.94 -44.21,-21.89 -66.43,-40.5 -22.17,-18.6 -48.12,-40.91 -58.03,-94.38 -9.92,-53.49 -3.77,-138.18 8.45,-204.2 12.21,-66.06 30.56,-113.49 60.39,-145.1 29.84,-31.64 71.18,-47.44 114.79,-57.64 43.62,-10.22 89.51,-14.8 109.63,-13.98 20.12,0.81 14.49,7.06 -3.12,21.6z"/>
    <path class="fil1 str0" d="M1719.1 5082.91c-8.92,10.76 -37.86,24.96 -63.87,45.22 -26.03,20.24 -49.18,46.53 -51.02,82.3 -1.84,35.76 17.61,80.98 48.11,118.85 30.5,37.85 72.04,68.36 110.16,86.24 38.14,17.87 72.86,23.12 104.92,26.8 32.09,3.69 61.54,5.79 88.88,3.44 27.34,-2.37 52.56,-9.23 76.23,-21.83 23.68,-12.63 45.77,-31.03 63.9,-46.28 18.16,-15.25 32.35,-27.34 48.58,-37.43 16.24,-10.09 34.49,-18.18 52.11,-26.6 17.61,-8.41 34.6,-17.16 43.33,-9.16 8.76,7.97 9.28,32.68 -19.64,72.92 -28.94,40.22 -87.28,95.97 -149.08,135.41 -61.8,39.45 -127.02,62.58 -233.19,58.29 -106.17,-4.33 -253.34,-36.07 -330.64,-88.91 -77.3,-52.86 -84.75,-126.79 -82.43,-185.32 2.33,-58.55 14.42,-101.69 44.13,-133.49 29.73,-31.82 77.05,-52.32 119.37,-68.1 42.35,-15.77 79.69,-26.81 103.86,-28.64 24.2,-1.86 35.25,5.5 26.29,16.29z"/>
    <path class="fil1 str0" d="M2495.99 5079.46c4.25,35.16 -2.42,100.69 9.71,153.17 12.12,52.47 43.07,91.91 79.74,118.6 36.72,26.69 79.2,40.66 128.03,50.37 48.84,9.7 104.04,15.16 141.36,13.34 37.31,-1.83 56.71,-10.92 80.38,-10.62 23.65,0.3 51.56,10.01 82.8,18.82 31.25,8.78 65.84,16.67 107.08,14.24 41.24,-2.43 89.19,-15.16 128.3,-30.02 39.15,-14.87 69.49,-31.87 94.04,-53.09 24.58,-21.24 43.37,-46.71 57.27,-76.05 13.92,-29.34 22.9,-62.53 29.28,-94.6 6.37,-32.09 10.13,-63.05 15.04,-72.24 4.9,-9.2 10.95,3.39 9.42,60.95 -1.52,57.56 -10.61,160.09 -23.95,249.28 -13.34,89.18 -30.95,165 -97.37,224.15 -66.43,59.16 -181.7,101.63 -320.93,92.53 -139.22,-9.12 -302.41,-69.77 -426.41,-141.96 -123.98,-72.2 -208.77,-155.91 -240.02,-228.42 -31.22,-72.49 -8.93,-133.76 18.6,-187.43 27.52,-53.7 60.27,-99.82 84.23,-120.44 23.98,-20.64 39.15,-15.78 43.4,19.42z"/>
    <path class="fil1 str0" d="M3589.71 5173.83c-0.68,12.14 -9.93,24.41 -15.7,46.16 -5.75,21.74 -8.05,52.93 -6.44,82.06 1.6,29.13 7.11,56.19 23.16,74.09 16.08,17.89 42.68,26.59 74.78,32.33 32.12,5.75 69.74,8.5 110.78,7.58 41.05,-0.93 85.57,-5.5 115.61,-14.9 30.03,-9.41 45.65,-23.63 53.68,-35.33 8.02,-11.71 8.48,-20.86 5.96,-30.11 -2.52,-9.22 -7.98,-18.5 -17.06,-25.13 -9.05,-6.61 -21.67,-10.58 -20.31,-15.33 1.38,-4.78 16.75,-10.36 40.01,-0.29 23.29,10.08 54.48,35.76 75.34,68.87 20.89,33.11 31.43,73.61 25.46,114 -5.95,40.35 -28.44,80.59 -108.96,99.78 -80.51,19.18 -219.04,17.34 -310.56,-8.11 -91.51,-25.46 -136.02,-74.54 -161.7,-127.77 -25.69,-53.2 -32.57,-110.53 -32.02,-161.92 0.58,-51.38 8.57,-96.78 23.03,-121.78 14.45,-25 35.36,-29.62 54.73,-29.62 19.39,0 37.29,4.59 50.16,12.91 12.87,8.3 20.75,20.34 20.05,32.51z"/>
    <path class="fil1 str0" d="M4513.7 5253.98c-2.01,14.42 5.21,37.4 -2.67,62.65 -7.89,25.26 -30.92,52.79 -56.41,69.7 -25.49,16.93 -53.45,23.27 -83.68,24.83 -30.22,1.58 -62.67,-1.56 -98.08,-9.92 -35.4,-8.34 -73.73,-21.87 -103.22,-45.28 -29.5,-23.41 -50.15,-56.71 -66.61,-73.61 -16.45,-16.92 -28.74,-17.44 -41.18,-4.64 -12.44,12.8 -25.09,38.97 -26.27,74.55 -1.16,35.57 9.12,80.56 42.04,116.2 32.91,35.63 88.5,61.87 168.82,60.58 80.32,-1.3 185.39,-30.16 256.43,-56.77 71.03,-26.62 108,-50.96 118.38,-94.03 10.38,-43.08 -5.87,-104.85 -24.12,-133.03 -18.28,-28.2 -38.58,-22.8 -54.35,-17.16 -15.79,5.64 -27.05,11.5 -29.08,25.93z"/>
    <path class="fil1 str0" d="M4682.58 5220.31c-9.99,6.71 -33.45,20.29 -47.16,41.9 -13.67,21.6 -17.62,51.22 -17.82,76.5 -0.22,25.29 3.25,46.2 13.06,64.07 9.81,17.87 25.94,32.7 50.34,40.32 24.42,7.63 57.1,8.07 82.37,5.22 25.27,-2.82 43.15,-8.92 59.27,-12.19 16.12,-3.28 30.5,-3.7 52.5,-1.31 22.02,2.38 51.65,7.63 76.72,6.75 25.07,-0.87 45.53,-7.84 52.5,-17.64 6.99,-9.82 0.45,-22.45 -11.33,-34.2 -11.76,-11.78 -28.75,-22.67 -45.09,-32.7 -16.36,-10 -32.03,-19.17 -42.07,-29.2 -10.03,-10.03 -14.37,-20.92 -20.32,-32.25 -5.93,-11.34 -13.47,-23.1 -19.78,-30.73 -6.31,-7.62 -11.38,-11.06 9.16,-4.54 20.55,6.53 66.72,23.07 105.69,39.64 39.01,16.54 70.81,33.1 96.96,60.35 26.14,27.24 46.64,65.15 47.72,100.02 1.1,34.87 -17.22,66.68 -104.38,84.12 -87.15,17.43 -243.16,20.47 -345.58,4.57 -102.41,-15.92 -151.23,-50.76 -168.23,-90.65 -16.98,-39.88 -2.17,-84.78 9.08,-123.98 11.24,-39.22 18.91,-72.78 26.09,-93.46 7.2,-20.72 13.92,-28.56 38.18,-36.84 24.27,-8.31 66.12,-17 92.7,-19.84 26.59,-2.84 37.91,0.2 37.44,6.15 -0.47,5.92 -12.73,14.72 -17.11,19.04 -4.38,4.34 -0.91,4.17 -10.91,10.88z"/>
    <path class="fil1 str0" d="M5407.62 5015.93c10.19,-6.7 17.91,-17.17 25.69,-23.07 7.79,-5.93 15.66,-7.31 21.07,-2.92 5.42,4.34 8.34,14.46 5.18,33.42 -3.14,18.95 -12.41,46.73 -25.05,76.65 -12.62,29.9 -28.65,61.9 -44.85,87.61 -16.22,25.69 -32.63,45.03 -52.21,63.8 -19.58,18.75 -42.35,36.84 -58.55,50.12 -16.22,13.26 -25.9,21.68 -32.64,23.8 -6.74,2.09 -10.54,-2.12 -12.3,-11.23 -1.74,-9.11 -1.51,-23.14 2.55,-38.16 4.06,-15.05 11.89,-31.11 8.3,-38.86 -3.58,-7.75 -18.57,-7.2 -42.84,13.33 -24.28,20.51 -57.8,60.97 -72.57,95.92 -14.76,34.95 -10.74,64.39 2.52,86.07 13.27,21.69 35.81,35.65 102.06,28.1 66.26,-7.57 176.26,-36.58 248.91,-89.45 72.64,-52.85 107.95,-129.52 112.11,-207.86 4.18,-78.35 -22.76,-158.36 -49.51,-204.89 -26.74,-46.55 -53.27,-59.61 -78.34,-57.93 -25.05,1.7 -48.64,18.12 -66.34,37.48 -17.66,19.38 -29.47,41.7 -33.24,57.29 -3.8,15.57 0.39,24.43 8.83,27.4 8.42,2.96 21.06,0.05 31.22,-6.62z"/>
    <path class="fil1 str0" d="M5428.69 4346.41c4.82,4.23 7.88,-0.97 12.92,-0.86 5.03,0.1 12.06,5.51 13.46,22.75 1.44,17.25 -2.72,46.34 -6.41,71.52 -3.68,25.17 -6.94,46.38 -9.48,61.42 -2.54,14.99 -4.37,23.78 -2.77,36.95 1.62,13.13 6.7,30.7 9.03,48 2.3,17.32 1.82,34.41 -3.26,42.95 -5.08,8.56 -14.78,8.56 -27.9,6.79 -13.13,-1.76 -29.67,-5.29 -43.41,-11.51 -13.75,-6.25 -24.64,-15.21 -22.38,-10.88 2.28,4.29 17.74,21.84 34.15,41.3 16.43,19.45 33.8,40.83 49.85,53.55 16.06,12.68 30.76,16.71 56.01,-4.36 25.26,-21.08 61.07,-67.26 79.63,-133.3 18.6,-66.04 19.99,-151.93 8.2,-206.66 -11.76,-54.72 -36.71,-78.28 -62.35,-89.12 -25.63,-10.84 -51.93,-9 -69.26,-4.38 -17.32,4.62 -25.62,12 -29.78,19.84 -4.16,7.87 -4.16,16.17 -0.88,27.15 3.29,10.97 9.82,24.61 14.63,28.85z"/>
    <path class="fil1 str0" d="M5335.53 3647.53c16.8,-6.8 41.82,-23.17 63.41,-29.99 21.6,-6.83 39.74,-4.09 49.74,12.94 9.99,17.01 11.8,48.33 8.38,76.49 -3.38,28.15 -12,53.12 -24.05,72.86 -12.02,19.75 -27.45,34.29 -28.82,59.49 -1.36,25.19 11.34,61.04 21.57,92.39 10.22,31.33 17.93,58.11 19.96,84.88 2.05,26.79 -1.57,53.57 -7.04,74.69 -5.42,21.11 -12.69,36.54 -22.9,46.31 -10.22,9.75 -23.38,13.85 -37.01,14.31 -13.62,0.45 -27.7,-2.73 -42.82,-10.07 -15.15,-7.32 -31.31,-18.81 -42.45,-21.97 -11.12,-3.19 -17.17,1.92 1.12,21.08 18.31,19.12 61,52.27 98.57,75.98 37.55,23.72 70,38 102.69,34.61 32.69,-3.41 65.62,-24.5 91.37,-88.18 25.77,-63.66 44.4,-169.92 46.19,-266.61 1.83,-96.7 -13.13,-183.86 -41.86,-236.06 -28.7,-52.22 -71.16,-69.49 -104.54,-76.51 -33.36,-7.04 -57.65,-3.88 -82.05,4.3 -24.41,8.16 -48.92,21.35 -66.16,32.26 -17.25,10.88 -27.26,19.5 -27.96,25.18 -0.7,5.68 7.84,8.42 24.66,1.62z"/>
    <path class="fil1 str0" d="M5348.96 2848.85c9.93,-14.72 19.4,-48.91 31.65,-68.12 12.25,-19.2 27.24,-23.4 38.95,-5.68 11.72,17.71 20.11,57.33 18.92,93.67 -1.2,36.33 -12.01,69.35 -12.63,104.19 -0.59,34.82 9.02,71.44 9.3,98.17 0.33,26.72 -8.68,43.53 -21.01,47.74 -12.28,4.19 -27.91,-4.19 -43.83,-14.71 -15.9,-10.51 -32.12,-23.14 -36.92,-12.92 -4.8,10.22 1.8,43.23 18.93,72.67 17.1,29.42 44.72,55.24 71.15,71.15 26.42,15.9 51.64,21.92 79.86,-5.7 28.24,-27.63 59.44,-88.87 69.66,-175.34 10.21,-86.47 -0.61,-198.16 -23.42,-277.44 -22.82,-79.27 -57.65,-126.1 -89.77,-147.41 -32.12,-21.32 -61.56,-17.11 -83.78,-8.41 -22.22,8.71 -37.22,21.92 -45.64,37.84 -8.39,15.91 -10.21,34.53 -11.39,56.45 -1.2,21.9 -1.82,47.12 -1.82,70.85 0,23.7 0.62,45.94 6.07,59.42 5.48,13.49 15.83,18.29 25.72,3.58z"/>
    <path class="fil1 str0" d="M5462.94 2651.67c13.12,1.18 31.57,-3.47 38.41,-13.72 6.83,-10.24 2.06,-26.1 -9.3,-32.94 -11.34,-6.84 -29.25,-4.65 -39.99,2.13 -10.71,6.76 -14.25,18.11 -12.13,27.27 2.1,9.14 9.89,16.1 23.01,17.26z"/>
    <path class="fil1 str0" d="M5300.55 3236.84c15.13,14.42 53.41,29.09 79.15,43.51 25.77,14.42 39,28.62 47.74,50.37 8.76,21.75 13,51.06 14.66,78.48 1.66,27.44 0.71,52.96 -2.37,69.99 -3.06,17.02 -8.28,25.53 -17.72,33.81 -9.45,8.26 -23.16,16.31 -37.61,26.72 -14.41,10.39 -29.53,23.15 -45.85,35.68 -16.31,12.53 -33.8,24.83 -21.6,31.31 12.22,6.45 54.11,7.08 99.73,1.66 45.63,-5.45 95,-16.96 122.98,-60.32 27.99,-43.33 34.61,-118.52 26.33,-187.08 -8.25,-68.57 -31.45,-130.5 -64.08,-160.78 -32.63,-30.28 -74.71,-28.87 -109.71,-24.61 -35,4.25 -62.87,11.37 -80.83,22.02 -17.94,10.64 -25.95,24.81 -10.82,39.24z"/>
    <path class="fil1 str0" d="M5271.17 1749.76c19.71,5.1 54.44,6.28 83.98,12.41 29.55,6.12 53.94,17.18 72.94,37.03 19.01,19.84 32.63,48.45 33.3,76.16 0.66,27.7 -11.63,54.49 -23.34,73.44 -11.69,18.93 -22.77,30.03 -38.06,43.09 -15.29,13.08 -34.79,28.14 -44.11,50.54 -9.29,22.39 -8.42,52.06 4.44,80.44 12.87,28.36 37.68,55.4 54.96,87.31 17.29,31.91 27.03,68.7 22.16,107.69 -4.87,39.01 -24.38,80.25 -28.35,110.17 -3.99,29.92 7.51,48.53 3.05,70.89 -4.46,22.39 -24.94,48.53 -43.11,63.39 -18.16,14.83 -34.05,18.4 -49.79,18.11 -15.73,-0.28 -31.36,-4.38 -42.01,-5.92 -10.63,-1.57 -16.27,-0.54 -8.92,7.71 7.36,8.26 27.73,23.76 55.02,30.28 27.32,6.5 61.49,3.98 115.34,-15.74 53.85,-19.71 127.39,-56.65 176.32,-115.9 48.95,-59.24 73.32,-140.79 85.51,-223.69 12.21,-82.88 12.21,-167.1 -10.65,-244.89 -22.8,-77.8 -68.45,-149.16 -109.11,-197.91 -40.66,-48.75 -76.32,-74.91 -108.26,-90.22 -31.91,-15.3 -60.07,-19.71 -89.24,-17.28 -29.15,2.43 -59.27,11.76 -82.99,16.2 -23.7,4.44 -41,3.99 -47.28,8.28 -6.26,4.29 -1.54,13.32 18.2,18.41z"/>
    <path class="fil1 str0" d="M4985.49 1487.63c20.65,-1.37 52.76,-3.53 80.23,-1.19 27.49,2.33 50.33,9.15 81.03,21.27 30.7,12.09 69.23,29.48 97.88,47.22 28.64,17.72 47.39,35.82 57.29,49.79 9.88,13.97 10.91,23.88 9.37,33.94 -1.54,10.05 -5.62,20.28 -11.59,29.66 -5.96,9.37 -13.82,17.9 -22.14,24.32 -8.29,6.39 -17.05,10.67 -29.84,11.88 -12.79,1.2 -29.6,-0.71 -25.49,2.43 4.12,3.16 29.16,11.37 64.11,13.76 34.95,2.38 79.82,-1.06 114.71,-19.48 34.89,-18.42 59.78,-51.83 45.12,-97.7 -14.66,-45.87 -68.89,-104.19 -121.25,-137.43 -52.34,-33.24 -102.79,-41.44 -151.92,-45.02 -49.09,-3.58 -96.86,-2.55 -132.83,0.79 -35.97,3.36 -60.16,9.03 -78.26,18.24 -18.06,9.2 -30,21.96 -31.55,30.88 -1.53,8.94 7.34,14.04 16.35,16.32 9.01,2.25 18.16,1.67 38.78,0.32z"/>
   </g>
  </g>
  <path class="fil3 str1" d="M1920.77 1436.57l3073 0c266.32,0 484.2,217.88 484.2,484.2l0 3073c0,266.32 -217.88,484.2 -484.2,484.2l-3073 0c-266.32,0 -484.2,-217.88 -484.2,-484.2l0 -3073c0,-266.32 217.88,-484.2 484.2,-484.2z"/>
 </g>
</svg>
