<?xml version="1.0" encoding="UTF-8"?>
<!DOCTYPE svg PUBLIC "-//W3C//DTD SVG 1.1//EN" "http://www.w3.org/Graphics/SVG/1.1/DTD/svg11.dtd">
<!-- Creator: CorelDRAW -->
<svg xmlns="http://www.w3.org/2000/svg" xml:space="preserve" width="79.176mm" height="79.5976mm" version="1.1" style="shape-rendering:geometricPrecision; text-rendering:geometricPrecision; image-rendering:optimizeQuality; fill-rule:evenodd; clip-rule:evenodd"
viewBox="0 0 7917.6 7959.76"
 xmlns:xlink="http://www.w3.org/1999/xlink"
 xmlns:xodm="http://www.corel.com/coreldraw/odm/2003">
 <defs>
  <style type="text/css">
   <![CDATA[
    .fil4 {fill:none}
    .fil3 {fill:#8800B5}
    .fil2 {fill:white}
    .fil1 {fill:#8800B5;fill-rule:nonzero}
    .fil0 {fill:white;fill-rule:nonzero}
   ]]>
  </style>
   <clipPath id="id0">
    <path d="M2924.24 944.29l1430.28 0c123.95,0 225.36,101.41 225.36,225.37l0 1430.27c0,123.96 -101.41,225.37 -225.36,225.37l-1430.28 0c-123.95,0 -225.36,-101.41 -225.36,-225.37l0 -1430.27c0,-123.96 101.41,-225.37 225.36,-225.37z"/>
   </clipPath>
 </defs>
 <g id="Camada_x0020_1">
  <metadata id="CorelCorpID_0Corel-Layer"/>
  <path class="fil0" d="M1568.96 5457.24c-0.8,-9.64 -1.6,-19.29 -2.41,-29.74l0 3.62 2.41 16.48 0 9.64zm-596.74 -48.22l-3.62 38.58 0 1.2 3.62 -39.78zm597.95 59.87c0,-4.02 -0.4,-8.03 -1.21,-11.65 0.81,3.21 1.21,6.43 1.21,10.45 0.8,-6.43 1.61,-12.46 2.41,-18.89 4.82,-45.41 9.65,-92.42 14.07,-141.05 4.82,-48.62 11.65,-100.46 20.09,-155.51l67.11 -548.53 388.59 0 -253.17 1821.18 -477.8 0 -65.1 -568.61c-13.26,-103.68 -20.89,-163.96 -23.31,-181.24 -6.43,61.08 -12.45,121.36 -18.88,181.24l-63.49 568.61 -467.36 0 -250.75 -1821.18 421.14 0 68.31 548.53c6.43,55.05 12.86,106.89 18.89,155.51 4.82,36.57 9.64,73.14 14.06,109.3l3.62 34.16 3.62 -42.19c3.21,-32.95 6.83,-66.71 10.45,-101.27 5.62,-48.62 12.85,-100.86 21.29,-156.72l74.35 -547.32 388.18 0 68.32 548.53c6.43,55.85 12.45,107.29 17.68,155.51 4.82,41.39 9.64,82.78 14.06,123.37l3.62 37.77zm1006.63 605.19l87.2 0 -3.61 -1470.37 410.69 0 0 1340.97c0,172.4 -41.39,300.99 -124.18,384.98 -82.78,83.98 -201.72,125.78 -357.24,125.78 -156.32,0 -275.27,-41.8 -357.24,-125.78 -81.98,-83.99 -122.97,-212.58 -122.97,-384.98l0 -1340.97 384.97 0 0 1371.51c0,65.91 27.33,98.86 82.38,98.86zm1225.65 -625.28l120.15 -780.39 9.24 -64.7 53.05 0 494.27 0 0 1821.18 -378.94 0c8.04,-705.64 8.04,-1035.16 1.2,-988.95 -7.23,45.41 -63.09,364.88 -168.37,958.41 -1.61,10.05 -1.61,20.1 0,30.54l-281.3 0c-24.51,1.61 -38.98,-14.86 -43.8,-49.42 -98.85,-675.11 -147.48,-989.36 -145.87,-943.14 1.61,47.82 2.81,95.64 3.62,143.86 0.8,47.82 1.2,100.06 1.2,156.32l0 692.38 -348.4 0 0 -1821.18 554.55 0 129.4 845.09zm1134.82 976.09l-410.69 0 0 -1821.18 481.42 0c59.47,0 118.94,6.43 178.42,19.69 59.07,13.66 112.51,38.58 159.93,75.55 47.42,36.97 85.6,88.41 114.13,154.31 28.93,65.9 43,149.49 43,250.75l0 261.21c0,101.26 -14.07,184.45 -43,249.54 -28.53,65.1 -66.31,116.54 -113.32,154.32 -47.42,37.77 -100.47,63.09 -160.34,76.75 -59.48,13.26 -119.35,19.69 -178.82,19.69l-70.73 0 0 559.37zm0 -1437.41l0 494.27 59.07 0c36.57,0 61.89,-7.23 75.95,-21.7 13.66,-14.46 20.5,-41.79 20.5,-81.97l0 -289.34c0,-40.18 -6.84,-67.11 -20.5,-80.77 -14.06,-13.66 -39.38,-20.49 -75.95,-20.49l-59.07 0zm1080.98 1086.6l87.2 0 -3.61 -1470.37 410.69 0 0 1340.97c0,172.4 -41.39,300.99 -124.18,384.98 -82.78,83.98 -201.72,125.78 -357.24,125.78 -156.32,0 -275.27,-41.8 -357.24,-125.78 -81.98,-83.99 -122.97,-212.58 -122.97,-384.98l0 -1340.97 384.97 0 0 1371.51c0,65.91 27.33,98.86 82.38,98.86zm924.26 -103.68c0,37.78 5.63,64.3 17.68,79.97 11.66,15.67 32.55,23.71 62.29,23.71 28.93,0 49.83,-8.04 61.88,-23.71 12.06,-15.67 18.09,-42.19 18.09,-79.97l0 -41.39c0,-49.43 -12.06,-90.41 -36.57,-122.96 -24.11,-32.55 -55.86,-63.5 -94.44,-92.83 -38.98,-29.34 -82.78,-59.48 -131,-90.02 -48.22,-30.54 -93.23,-69.52 -134.62,-116.13 -41.79,-46.62 -76.35,-104.48 -104.08,-172.8 -28.13,-68.71 -41.79,-155.51 -41.79,-259.59l0 -10.85c0,-156.72 38.98,-278.08 117.74,-363.27 78.36,-85.2 198.11,-127.79 358.85,-127.79 156.32,0 274.87,45.01 355.64,134.22 80.77,89.61 121.36,224.63 121.36,405.06l0 126.18 -384.97 0 0 -179.22c0,-38.18 -5.63,-65.51 -17.28,-81.18 -11.25,-15.67 -31.35,-23.3 -60.68,-23.3 -30.54,0 -51.44,7.63 -62.69,23.3 -11.65,15.67 -17.28,43 -17.28,81.18l0 15.67c0,47.82 12.06,88 36.57,120.96 24.11,32.95 55.86,63.89 94.83,93.22 38.58,28.94 82.38,59.08 130.61,90.42 48.22,31.35 93.23,70.73 134.62,117.34 41.79,46.62 76.35,104.88 104.48,174 27.72,69.52 41.79,155.92 41.79,258.39l0 38.98c0,154.71 -39.78,274.46 -118.95,359.66 -79.56,85.19 -199.32,127.79 -360.46,127.79 -316.25,0 -474.18,-179.23 -474.18,-538.08l0 -169.58 382.56 0 0 222.62z"/>
  <path class="fil1" d="M2332.93 6079.14c42.83,-46.14 84.8,-85.32 125.49,-117.51 41.1,-32.21 69.16,-48.7 85,-49.51 24.75,-1.26 38.14,21.67 40.51,68.36 2.79,54.8 -0.28,114.39 -9.21,178.75 -8.94,64.36 -22.81,127.75 -40.82,189.71 -29.63,105.72 -69.64,223.35 -120.45,352.52 -50.39,129.56 -99.92,244.02 -148.99,343.38 -31.8,63.09 -73.1,139.27 -124.32,228.56 -40.46,68.82 -76.52,119.91 -108.63,152.88 -32.1,32.98 -71,60.6 -116.67,82.87 -40.6,17.94 -75.37,30.7 -105.52,37.94 -35.82,7.93 -65.3,12.68 -87.22,13.8 -39.78,2.02 -70.31,-5.79 -91.98,-23.82 -26.1,-25.12 -50.75,-69.46 -74.76,-133.36 -28.82,-78.31 -58.9,-181.39 -90.29,-310.44 -31.79,-128.63 -54.17,-240.65 -68.01,-336.41 -9.47,-66.27 -17.48,-159.49 -23.61,-280.06 -11.18,-219.64 5.98,-354.42 51.06,-404.34 15.39,-17.46 45.64,-38.95 89.97,-63.6 44.32,-25.04 88.49,-44.79 132.14,-58.82 34.44,-11.11 63.42,-17.48 87.38,-18.69 58.45,-2.98 89.34,28.01 92.64,92.97 1.74,34.1 1.43,100.05 -0.51,197.84 -2.58,197.13 -0.82,351.71 4.86,463.36 9.94,195.28 25.91,340.99 47.91,437.56 12.13,46.19 21.09,78.3 26.9,96.32 28.41,-41.34 51.73,-79.15 70.31,-113.88 18.61,-34.33 36.25,-71.45 52.98,-110.57 34.12,-81.51 58.19,-144.19 71.39,-188.82 44.4,-127.22 77.94,-260 100.19,-398.7 14.12,-98.41 32.48,-169.35 54.71,-212.41 16.5,-35.84 42.21,-74.6 77.55,-115.88zm711.43 1038.35c35.28,-26.63 62.03,-52.82 79.47,-78.13 39.57,-54.11 69.03,-115.04 88.76,-183.2 15.64,-44.75 27.77,-94.22 35.15,-149.13 7.4,-54.52 10.09,-105.53 7.72,-152.22 -2.24,-43.84 -12.28,-65.31 -30.55,-64.38 -25.57,1.3 -61.29,59.28 -107.94,174.4 -27.4,69.37 -49.15,138.05 -65.22,206.02 -16.06,68.39 -22.85,126.94 -20.39,175.26 0.87,17.04 5.32,40.43 13,71.38zm4.38 38.03c11.35,47.05 43.42,69.43 96.6,66.72 59.28,-3.02 134.64,-41.86 226.49,-116.53 53.14,-43.41 89.46,-65.62 108.54,-66.59 23.55,-1.2 46.21,4.16 67.55,15.7 21.35,11.53 32.15,24.01 32.86,37.81 0.72,14.2 -9.7,33.45 -31.66,57.77 -39.68,43.95 -86.31,87.43 -138.67,130.39 -52.76,42.99 -103.84,78.96 -153.25,107.93 -49.38,29.38 -99.05,53.07 -149.02,71.09 -49.96,18.01 -94.63,28.01 -134.42,30.04 -99.05,5.04 -179.66,-19.35 -241.83,-73.17 -62.57,-53.8 -96.05,-127.81 -100.86,-222.39 -3.68,-72.27 7.99,-154.68 34.62,-247.2 26.64,-92.54 64.52,-179.95 113.65,-262.22 57.79,-96.15 131,-177.21 218.77,-243.96 109.07,-80.44 214.76,-123.26 317.87,-128.51 74.7,-3.8 134.36,16.76 179,62.11 45.02,44.93 69.44,108.81 73.66,191.63 3.26,64.14 -9.96,132.38 -40.1,203.93 -30.14,71.54 -76.65,141.47 -139.15,208.97 -51.25,56.74 -101.87,101.65 -152.3,134.34 -50.43,33.09 -95.12,50.43 -134.1,52.41 -17.46,0.89 -35.54,-2.67 -54.25,-10.27zm1028.7 -85.33l-3.66 24.21c0.69,13.39 0.06,32.96 -1.9,58.3 -1.28,39.14 -4.13,71.03 -8.14,96.06 -4.45,24.65 -11.53,45.36 -22.07,62.18 -10.14,16.8 -24.27,35.02 -42.43,54.26 -54.94,56.11 -112.06,85.48 -170.51,88.46 -47.91,2.44 -83.71,-13.24 -108.22,-47 -24.11,-33.78 -38.32,-89.23 -42.29,-167.18 -3.14,-61.71 -0.13,-138.38 9.05,-230.02 9.19,-91.24 22.09,-173.7 38.3,-246.98l7.77 -31.33c-0.23,-4.47 1.69,-14.74 5.8,-30.01 23.74,-109.48 46.88,-190.43 68.59,-243.64 22.13,-53.22 49.63,-96.55 82.93,-129.99 29.6,-26.33 63.9,-40.29 102.87,-42.28 56.42,-2.87 92.27,29.5 107.51,97.1 10.48,-9.89 20.87,-21.82 30.38,-34.92 21.33,-28.76 38.24,-48.34 50.38,-57.92 12.5,-10 26.9,-15.21 43.54,-16.06 67.8,-3.45 105.34,62.21 112.2,196.99 3.74,73.49 -0.75,145.35 -13.07,215.18 -12.32,69.81 -29.34,127.26 -51.08,171.92 -22.15,44.68 -44.99,67.82 -68.53,69.02 -26.4,1.34 -41.91,-47.52 -46.95,-146.58 -2.67,-52.38 -7.59,-93.24 -15.19,-122.56 -7.19,-29.34 -17.71,-52.02 -31.14,-68.02 -21.7,45.48 -31.96,147.75 -31.19,306.87 -1.01,92.04 -1.71,150.28 -2.95,173.94zm761.97 375.98c46.56,-4.81 88.03,-29.71 124,-74.69 36.36,-45.4 53.05,-93.46 50.48,-143.81 -1.77,-34.91 -14.56,-62.35 -38.34,-81.49 -26.03,-23.5 -82.07,-45.07 -168.93,-64.26 -128.12,-30.11 -212.19,-66.53 -252.66,-110.06 -37.6,-34.72 -57.67,-77.25 -60.25,-128 -4.63,-90.93 24.01,-183.98 85.53,-278.69 61.55,-94.31 142.19,-173.3 242.34,-237.02 100.16,-63.3 202.6,-97.82 306.93,-103.13 50.76,-2.59 98.86,6.77 144.73,28.46 45.47,21.69 82.38,51.16 110.37,89.21 28.4,38.04 43.56,80 45.89,125.88 2.3,45.06 -9.52,92.89 -35.48,142.64 -26.37,49.78 -60.04,91.79 -101.85,126.07 -41.41,34.27 -81.58,52.6 -120.56,54.58 -22.33,1.14 -41.65,-2.77 -58.36,-11.28 -16.74,-8.92 -25.38,-18.65 -25.93,-29.62 -0.58,-11.36 1.84,-27.77 7.23,-49.61 14.4,-69.12 20.31,-128.85 17.73,-179.59 -2.54,-49.94 -19.98,-96.67 -52.68,-139.38 -37.2,28.76 -61.68,51.59 -72.65,68.02 -28.68,36.46 -49.81,77.02 -64.21,122.12 -15.95,46.4 -23.12,89.5 -21.07,129.69 1.44,28.42 9.12,51.23 23.36,67.2 13.86,16.38 36.12,29.9 66.36,40.16 30.25,10.68 75.99,21.37 137.19,32.5 101.95,19.65 174.19,39.58 216.37,60.63 10.04,5.19 25.23,15.81 46.01,32.25 31.7,30.95 48.87,72.41 51.49,123.97 2.79,54.81 -11.45,110.88 -42.7,168.65 -31.25,57.76 -81.09,118.09 -149.52,181 -72.64,68.42 -146.23,118.16 -219.92,149.58 -74.09,31.86 -156.61,49.9 -247.95,54.55 -87.7,4.46 -158.01,-9.46 -210.13,-41.81 -52.11,-32.35 -79.71,-78.57 -82.79,-139.06 -2.19,-43.03 12.25,-87.32 43.31,-132.86 31.04,-45.95 70.63,-83.78 118.35,-113.89 48.1,-30.53 96.11,-46.82 143.2,-49.22 35.74,-1.81 54.01,5.4 54.81,21.24 0.4,7.71 -3.82,20.95 -13.03,39.73 -27.62,57.17 -40.44,109.11 -38.04,156.21 1.69,33.28 15.48,64.33 41.37,93.13zm1125.97 -477.36c35.28,-26.63 62.03,-52.82 79.47,-78.13 39.57,-54.11 69.03,-115.04 88.76,-183.2 15.63,-44.75 27.76,-94.21 35.15,-149.13 7.4,-54.52 10.09,-105.53 7.71,-152.22 -2.23,-43.84 -12.27,-65.31 -30.54,-64.38 -25.57,1.3 -61.29,59.28 -107.94,174.4 -27.4,69.37 -49.15,138.05 -65.22,206.02 -16.06,68.39 -22.85,126.94 -20.39,175.26 0.87,17.04 5.32,40.43 13,71.38zm4.37 38.04c11.36,47.04 43.43,69.42 96.61,66.71 59.27,-3.02 134.64,-41.86 226.49,-116.53 53.14,-43.41 89.46,-65.62 108.54,-66.59 23.54,-1.2 46.21,4.16 67.55,15.7 21.34,11.53 32.15,24.01 32.86,37.81 0.72,14.2 -9.7,33.45 -31.66,57.77 -39.69,43.95 -86.32,87.43 -138.67,130.39 -52.76,42.99 -103.84,78.96 -153.25,107.93 -49.38,29.38 -99.05,53.07 -149.02,71.09 -49.96,18.01 -94.63,28.01 -134.42,30.04 -99.05,5.04 -179.66,-19.35 -241.83,-73.17 -62.58,-53.8 -96.05,-127.81 -100.87,-222.39 -3.67,-72.27 8,-154.68 34.63,-247.2 26.63,-92.54 64.52,-179.95 113.65,-262.22 57.79,-96.15 131,-177.21 218.77,-243.96 109.06,-80.44 214.75,-123.26 317.87,-128.51 74.69,-3.8 134.36,16.76 179,62.11 45.02,44.93 69.44,108.81 73.66,191.63 3.26,64.14 -9.96,132.38 -40.1,203.93 -30.14,71.54 -76.65,141.48 -139.15,208.97 -51.25,56.74 -101.87,101.65 -152.3,134.34 -50.43,33.09 -95.12,50.43 -134.1,52.41 -17.46,0.89 -35.55,-2.67 -54.26,-10.26z"/>
  <path class="fil2" d="M5792 2420.79l529.58 692.61c37.64,49.23 -50.71,112.68 -112.67,112.68l-607.18 0 0 502.27c0,158.38 -129.58,287.96 -287.96,287.96l-2778.39 0c-158.38,0 -287.96,-129.58 -287.96,-287.96l0 -2940c0,-158.38 129.58,-287.96 287.96,-287.96l2778.39 0c158.38,0 287.96,129.58 287.96,287.96l0 194.27 0.56 0c128.69,0 233.96,105.28 233.96,233.96l0 1067.74c0,50.83 -16.44,98 -44.25,136.47zm-591.03 -1279.33l401.32 0c41.32,0 75.12,33.8 75.12,75.12l0 1067.74c0,41.31 -33.8,75.11 -75.12,75.11l-401.32 0c-41.32,0 -75.11,-33.8 -75.11,-75.11l0 -1067.74c0,-41.32 33.79,-75.12 75.11,-75.12z"/>
  <path class="fil2" d="M2924.24 944.29l1430.28 0c123.95,0 225.36,101.41 225.36,225.37l0 1430.27c0,123.96 -101.41,225.37 -225.36,225.37l-1430.28 0c-123.95,0 -225.36,-101.41 -225.36,-225.37l0 -1430.27c0,-123.96 101.41,-225.37 225.36,-225.37z"/>
  <g style="clip-path:url(#id0)">
   <g id="_1551477159888">
    <g>
     <path id="_1" class="fil3" d="M3122.65 2304.77c-2.97,-11.14 -20.93,-37.17 -29.58,-45.04l-34.12 -23.55c-3.9,-2.37 -6.53,-4.12 -10.16,-6.8l-11.86 -8.49c-36.58,-21.4 -63.63,-45.96 -73.76,-51.75 -28.35,-16.2 -85.11,-13.34 -123.37,-8.6 -15.78,8.2 -41.93,16.96 -61.2,25.73 -19.94,9.09 -32.5,18.19 -40.82,32.01 -8.32,13.81 -12.4,32.33 -14.9,51.32 -2.52,19 -3.46,38.45 -3.77,52.58 -0.32,14.12 0,22.91 3.76,29.51 3.76,6.6 10.99,10.99 20.72,12.24 9.73,1.26 21.98,-0.62 35.18,-2.59 13.19,-1.98 27.37,-4.04 38.36,-6.23 2.21,-0.45 4.31,-0.9 6.24,-1.33 34.02,-16.63 45.5,-38.77 58.45,-42.23 0.31,13.8 4.74,27.13 9.1,38.39 8.92,23.07 10.87,19.04 14.64,29.45 -42.84,0 -57.12,-7.03 -92.77,8.99 -0.7,0.31 -1.39,0.61 -2.07,0.91 -1.01,0.89 -2.18,1.88 -3.49,2.96 -8.19,6.76 -21.93,17.39 -34.39,28.17 -12.45,10.77 -23.61,21.69 -31.8,33.91 -8.19,12.22 -13.41,25.76 -14.95,40.48 -1.54,14.72 0.59,30.62 3.91,46.88 3.32,16.26 7.83,32.87 11.99,44.86 4.16,11.99 7.95,19.35 14.75,23.87 6.8,4.51 16.59,6.17 28.09,3.94 11.51,-2.23 24.72,-8.36 32.76,-12.16 2.08,-0.98 3.82,-1.81 5.26,-2.45 5.12,-6.92 8.35,-16.1 10.23,-28.26 2.12,-13.67 1.25,-28.63 1.25,-42.85 16.46,1.37 19.79,12.13 32.21,39.02 35.77,77.43 79.76,76.49 100.08,106.84 -32.97,-0.73 -30.01,-20.12 -98.48,-26.76 -20.96,-2.03 -32.2,-3.59 -40.47,-3.76 -5.77,4.65 -16.87,10.58 -27.02,18.48 -12.12,9.42 -22.89,21.66 -23.75,38.31 -0.85,16.64 8.2,37.68 22.39,55.31 14.2,17.62 33.53,31.82 51.28,40.14 17.74,8.32 33.91,10.76 48.83,12.48 14.93,1.71 28.64,2.7 41.37,1.59 12.72,-1.1 24.46,-4.28 35.48,-10.16 11.02,-5.87 21.3,-14.44 29.74,-21.53 8.45,-7.1 15.05,-12.73 22.61,-17.42 7.55,-4.7 16.05,-8.47 24.25,-12.39 0.26,-0.12 0.51,-0.24 0.77,-0.37l8.43 -9.02c27.38,-34.82 29.31,-22.51 43.79,-41.01 78.21,-99.92 0.49,-185.43 -0.15,-213.85 23.65,-5.51 60.67,1.12 96.52,-25.59l34.34 -26.72c1.55,-1.49 4.95,-4.97 5.08,-5.09 0.5,-0.48 1.22,-1.19 1.73,-1.67 0.52,-0.47 1.25,-1.15 1.77,-1.61 28.83,-25.34 46.37,-32.19 82.26,-50.04 50.21,-24.98 68.93,-80.88 42.88,-130.11l-34.04 -33.8c-27.57,-27.79 -42,-49.04 -69.07,-66.61 -15.24,-9.89 -26.3,-21.26 -46.14,-21.71 2.78,-10.39 11.5,-20.2 16.96,-30.52 10.64,0 19.03,0.59 29.21,-1.31 10.03,-1.89 14.9,-4.63 25.07,-5.48 0,34.75 8.15,50.97 24.72,70.25 13.95,16.25 30.81,32.3 43.11,48.48l37.52 33.71c5.3,5.48 4.61,8.51 9.41,14.33 15.06,18.26 50.18,14.36 61.62,29.97 -32.64,0 -53.06,11.5 -68.8,29.57 -18.9,21.68 -9.25,32.26 -39.78,55.2 -18.17,13.67 -33.46,28.59 -50.03,44.95 -29.8,29.42 -21.17,27.68 -21.17,67.02 -17.83,4.16 -35.37,12.51 -43.53,27.7 -2.81,5.24 -0.78,2.79 -4.57,9 -16,26.15 -20.54,46.68 -25.38,76.38 -2.25,13.74 -0.89,8.99 -4.96,18.78 -5.55,13.34 -12.04,25.58 -17.89,37.73 0.72,17.14 -0.91,42.7 3.95,63.75 5.64,24.42 20.05,42.78 37.12,55.2 17.09,12.42 36.86,18.92 59.59,23.44 22.73,4.52 48.42,7.06 65.79,6.21 17.37,-0.85 26.39,-5.08 37.41,-4.94 11.01,0.14 24,4.66 38.54,8.75 14.54,4.09 30.64,7.77 49.84,6.64 19.19,-1.13 41.51,-7.06 59.71,-13.98 18.22,-6.92 32.34,-14.83 43.77,-24.71 11.44,-9.88 20.19,-21.74 26.66,-35.39 6.47,-13.66 10.65,-29.1 13.62,-44.03 2.05,-10.27 3.51,-20.29 4.97,-26.95 5.39,-46.61 1.16,-83.47 -36.74,-128.53 -7.09,-8.44 -15.17,-15.68 -16.18,-27.91 26.49,12.71 45.16,13.71 80.48,9.25 141.47,-17.85 94.31,-77.87 116.25,-172.07 5.25,6.04 4.28,4.18 6.99,13.37 1.39,4.71 1.78,9.33 2.8,14.15 5.4,25.27 21.81,53.68 42.61,69.33 22.36,16.81 11.12,25.45 27.33,47.29 12.63,17.01 35.68,15.07 45.78,28.85 -15.47,-0.35 -33.49,-6.83 -47.37,-10.29 -86.73,-21.66 -175.42,8.89 -176.74,95.03 -0.33,21.79 2.97,34 10.58,47.38 5.83,10.27 16.48,20.23 20.19,34.09 -3.23,1.71 -6.15,3.27 -8.8,4.75 -1.11,4.97 -4.65,10.43 -6.97,19.19 -2.68,10.11 -3.75,24.63 -3,38.19 0.75,13.56 3.31,26.15 10.78,34.48 7.48,8.33 19.87,12.38 34.8,15.05 14.95,2.68 32.46,3.96 51.57,3.53 19.1,-0.43 39.82,-2.56 53.8,-6.94 13.98,-4.38 21.25,-10.99 24.99,-16.44 3.73,-5.45 3.94,-9.71 2.77,-14.01 -1.17,-4.3 -3.71,-8.62 -7.93,-11.7 -2.78,-2.03 -6.29,-3.53 -8.17,-4.95 -7.05,-2.04 -15.34,-3.27 -25.13,-3.49l0 -6.78c25.54,0 28.99,-4.39 49.2,-15.25l46.47 -48.51c23.62,-37.88 48.47,-75.23 77.69,-108.87 32.66,-37.6 13.2,-67.59 13.2,-122.48 17.76,4.14 27.36,11.9 47.69,13.58 37.42,3.12 51.73,-24 81.42,-40.5l56.75 -31.45c6.45,-3.44 13.22,-6.77 19.57,-10.95l32.94 -24.73c14.08,-14.07 16.37,-15.9 24.83,-36.23 6.12,-14.7 9.07,-30.44 14.95,-42.71 7.13,5.23 11.25,13.45 19.39,21.32 21.26,20.54 49.08,29.1 72.33,46.39 25.99,19.36 21.46,36.47 67.24,51.48 30.98,10.16 52.42,25.73 70.13,40.37 1.93,1.15 4.82,2.93 8.03,4.4 6.4,2.9 14.1,4.54 20.21,5.36 6.11,0.82 10.62,0.82 12.98,-3.16 2.37,-3.98 2.59,-11.93 1.52,-19.99 -1.08,-8.05 -3.45,-16.23 -4.2,-22.35 -0.75,-6.13 0.1,-10.22 1.29,-17.2 1.18,-6.99 2.69,-16.87 4.41,-28.58 1.72,-11.72 3.65,-25.26 2.99,-33.29 -0.66,-8.02 -3.93,-10.54 -6.27,-10.58 -1.1,-0.03 -2,0.49 -2.87,0.85l-9.38 15.86c-0.33,-14.68 -0.82,-13.58 -7.59,-22.94l-53.49 -61.84c-49.06,-58.64 -61.33,-85.99 -95.16,-152.46l-25.79 -35.27c-8.89,-8.05 -8.13,-3.87 -11.32,-15.81 26.33,-6.13 23.44,-35.62 13.57,-54.27 42.24,0 52.27,3.49 92.43,-9.33 15.45,-4.93 29.01,-9.9 41.56,-14.83 2.27,-2.56 6.24,-5.47 10.07,-8.42 7.6,-5.83 14.64,-11.77 21.34,-16.61 6.72,-4.84 13.1,-8.59 17.5,-12.43 4.4,-3.85 6.83,-7.82 8.25,-15.74 1.44,-7.92 1.88,-19.8 1.11,-32.57 -0.77,-12.77 -2.75,-26.41 -6.83,-36.53 -4.06,-10.12 -10.22,-16.73 -22.22,-23.44 -11.29,-6.33 -27.77,-12.76 -35.52,-19.1 -34.5,-4.76 -70.49,0.41 -97.61,8.77 -16.75,5.17 -31.02,12.41 -44.39,16.67 -42.63,13.57 -90.58,27.02 -122.31,57.46 -28.17,27.04 -30.41,39.41 -29.73,92.66 0.51,39.4 12.6,51.92 13.63,108.49 0.78,42.78 15.01,53.93 47.57,71.15l0 20.36 -19.99 -0.92c-9.35,-0.03 -10.25,-0.31 -18.58,-1.02 -11.54,-1 -25.41,1.99 -35.7,5.68 -9.25,3.32 -22.08,10.18 -31.94,15.56 -109.38,59.78 -69.29,109.41 -97.32,129.94 -4.11,-17.65 -16.27,-34.38 -24.34,-50.27 -2.3,-4.54 -4.55,-9.79 -7.84,-15.9 -11.41,-21.18 -29.04,-34.25 -42.44,-52.54 30.96,0 60.13,7.75 93.18,-5.18 26.68,-10.44 44.95,-23.45 61.87,-43.29 36.92,-43.27 37.67,-110.45 19.36,-163.25 -7.09,-20.45 -17.37,-35.38 -30.85,-50.56l-65.04 -63.86c-81.84,-66.93 -103.55,-62.02 -187.49,-33.84 -13.31,4.47 -25.02,7.17 -38.41,12.46 -73.66,29.07 -136.83,78.4 -194.68,130.96l-20.35 20.36c-0.73,0.65 -2.93,2.46 -3.64,3.14 -30.7,29.32 -24.41,75.86 -8.23,109.41 15.73,32.61 58.59,109.36 89.35,117.56 -3.29,12.34 -16.73,17.42 -26.21,24.68 -12.36,9.45 -16.49,13.68 -24.71,26.17 -26.13,39.66 -63.58,58.54 -92.21,104.53 -26.72,42.91 -47.46,47 -59.35,66.16 -2.61,4.21 -6.16,12.04 -7.86,15.87 -5.38,12.14 -6.89,22.13 -10.84,36.66 -17.2,63.2 -26.87,99.18 -14.83,165.47 5.44,29.99 12.14,48.6 12.14,79.45 -13.03,-3.03 -25.39,-11.43 -37.79,-12.11 -15.74,-0.85 -9.8,4.01 -25.53,-5.82 -36.34,-22.72 -50.63,-5.81 -85.94,-5.81l0 -6.79c12.19,-1.02 14.12,-4.83 22.26,-11.67 0.53,-0.45 1.28,-1.12 1.82,-1.57 0.55,-0.44 1.32,-1.08 1.88,-1.51 39.2,-30.53 53.78,-43.86 64.77,-101.45 4.34,-22.78 3.38,-41.77 11.27,-63.11 34.58,-93.49 16.73,-45.05 16.73,-95.45l28.47 -15.61c21.06,-20.66 45.11,-42.21 63.12,-65.79l50.64 -57.9c12.41,-14.14 16.76,-22.45 24.12,-40.41 10.52,-25.67 -0.56,-60.71 -12.24,-86.33 -11.83,-25.93 -22.63,-51.93 -41.33,-74.01l-49.8 -65.52c-21.1,-32.4 -45.04,-49.84 -75.04,-70.81l-24.48 -16.24c-35.09,-19.12 -74.74,-35.99 -119.4,-36.72 -78.78,-1.28 -124.87,48.93 -171.54,100.1l-27.09 27.19c-0.54,0.45 -1.33,1.07 -1.87,1.53 -21.7,18.29 -50.88,38.17 -68.22,60.67 -19.97,25.92 -10.49,58.3 4.55,81.56 9.52,14.72 17.14,16.59 32.75,24.91 18.02,9.6 33.13,31.37 51.55,46.82l9.2 7.76c9.69,8.67 21.17,16.3 24.72,29.56 -10.04,3.63 -11.71,13.74 -23.75,16.96zm665.87 -249.34c-3.63,-4.76 -6.29,-0.61 -1.31,-5.52 6.95,-6.87 2.47,0.45 17.24,0.45 22.94,0 38.88,-4.1 60.14,-7.7 24.91,-4.21 40.13,-8.26 58.7,-22.7l9.02 -7.94c20,-22.26 23.17,-54.78 34.96,-63.41 0,53.94 17.32,74.21 23.74,101.75 -15.97,0 -23.33,-1.61 -37.16,-3.54 -9.24,-1.28 -28.44,-6.31 -34.56,-6.29 -7.63,0.03 -44.04,22.53 -51.37,29.2 -26.51,24.13 -15.78,96.29 -43.12,116.32 -1.38,-16.58 -12.23,-101.32 -27.74,-122.26 -0.35,-0.28 -1.79,-1.67 -5.14,-5.07 -0.68,-0.7 -2.92,-2.65 -3.4,-3.29z"/>
     <path class="fil3" d="M4200.48 2415.86c-5.58,6.06 -8.84,9.52 -14.72,15.81l-31.09 29.97c-47.15,47.49 -47.37,30.93 -90.36,89.41 -11.31,15.38 -20.32,15.93 -33.5,27.56 -17.84,15.77 -21.2,37.14 -33.34,54.86l-13.77 16.75c-4.56,5.91 -9.27,12.13 -12.84,17.69l-21.96 39.1c-5.06,10.51 -6.53,9.66 -10.93,19.61 -0.59,1.34 -1.11,2.81 -1.57,4.43 1.14,0.87 2.31,1.93 3.53,3.19 7.66,7.87 17.28,23.36 31.01,34.26 13.72,10.89 31.56,17.19 48.03,21.08 16.49,3.89 31.59,5.35 45.65,4.62 14.07,-0.73 27.09,-3.69 38.95,-11.56 11.86,-7.87 22.59,-20.69 26.26,-32.44 0.35,-1.11 0.63,-2.21 0.86,-3.3 -12.82,-6.32 -0.21,-15.56 -31.14,-18.13l0 -10.17c13.01,-5.25 10.18,-28.77 10.18,-40.71 23.14,0 30.25,6.33 55.89,1.64 40.97,-7.49 65.35,-38.98 89.6,-73.24l29.85 -44.78c12.22,-23.61 3.57,-24.91 7.93,-49.97 2.07,-11.91 4.75,-9.26 16.27,-6.83 8.42,1.77 18.05,4.84 25.26,6.04 18.96,3.18 32.01,4.32 53.35,4.32 -7.33,10.01 -11.21,5.71 -26.24,11.07 -41.88,14.91 -36.6,24.1 -45,60.16 -17.39,4.06 -23.85,7.29 -32.72,21.54 -6.72,10.79 -11.45,26.87 -10.07,41.53 5.03,53.45 26.07,49.33 64.64,71.12 7.4,4.18 10.19,6.31 16.91,10.46 35.83,22.08 77.7,-20.25 100.32,-46.28l23.92 -37.13c33.3,-57.86 68.28,-107.01 48.31,-180.96 -9.99,-37 -81.47,-52.83 -111.9,-67.87 -20.41,-10.1 -33.79,-27.17 -54.62,-36.96 -30.53,-14.37 -67.86,-15.85 -96,0.35 -35.21,20.27 -38.56,25.08 -64.95,53.76z"/>
     <path class="fil3" d="M4292.35 2722.73c-18.79,-13.2 -41.53,-22.53 -76.41,-20.56l-2.66 0.12c-0.42,0.65 -1.12,1.41 -3.61,3.08 -4.64,3.12 -15.56,9.44 -21.95,19.49 -3.8,6.01 -5.98,13.34 -7.15,20.77 2.29,11.2 2.95,23.21 0.59,33.11 0.01,0.04 0.02,0.08 0.03,0.11 0.97,4.11 2.37,7.9 4.32,11.44 4.57,8.32 12.07,15.22 23.43,18.77 11.36,3.55 26.57,3.75 38.33,2.43 11.77,-1.31 20.09,-4.15 27.59,-5.68 7.51,-1.52 14.2,-1.72 24.44,-0.6 10.25,1.11 24.03,3.55 35.7,3.14 11.67,-0.41 21.19,-3.65 24.44,-8.22 3.25,-4.57 0.21,-10.44 -5.27,-15.91 -5.48,-5.48 -13.39,-10.56 -20.99,-15.22 -7.61,-4.66 -14.91,-8.93 -19.58,-13.59 -4.67,-4.67 -6.69,-9.74 -9.46,-15.01 -2.76,-5.28 -6.27,-10.75 -9.2,-14.3 -1.34,-1.6 -2.54,-2.81 -2.59,-3.37z"/>
     <path class="fil3" d="M4532.4 2635.86c-27.66,42.08 -39.65,39.58 -61.58,84.87 -0.94,3.25 -2.37,6.95 -3.33,10.53 -1.89,7 -2,13.52 -1.19,17.76 0.82,4.24 2.59,6.2 5.73,5.23 3.13,-0.99 7.64,-4.9 15.19,-11.08 7.54,-6.18 18.14,-14.6 27.25,-23.33 9.11,-8.73 16.75,-17.73 24.3,-29.69 7.54,-11.96 15,-26.86 20.87,-40.78 5.89,-13.92 10.2,-26.85 11.66,-35.67 1.47,-8.82 0.11,-13.53 -2.41,-15.56 -2.52,-2.04 -6.18,-1.4 -9.8,1.36 -1.9,1.44 -3.77,3.45 -5.81,5.49 -7.37,10.06 -14.14,20.63 -20.88,30.87z"/>
     <path class="fil3" d="M4496.48 2194.08c4.95,2.12 11.29,6.43 17.29,9.33 7.04,3.41 13.59,4.89 19.93,4.68 6.34,-0.21 12.47,-2.12 17.22,-6.66 4.76,-4.55 8.14,-11.72 10.67,-21.55 2.54,-9.83 4.23,-22.29 3.27,-34.76 -0.94,-12.47 -4.53,-24.93 -9.29,-39.51 -4.76,-14.59 -10.67,-31.28 -10.04,-43 0.64,-11.73 7.82,-18.5 13.42,-27.69 5.6,-9.19 9.62,-20.81 11.19,-33.91 1.59,-13.1 0.75,-27.69 -3.9,-35.6 -3.6,-6.14 -9.48,-8.29 -16.62,-7.47 -10.55,4.74 -20.48,9.61 -29.51,14.35 -92.91,48.75 -104.97,68.91 -68.22,153.13l21.87 42.58c3.95,6.39 12.69,16.39 22.72,26.08z"/>
     <path class="fil3" d="M4371.4 1762.9c20.54,-0.37 30.46,2.18 44.76,-2.95 44.65,-15.98 53.71,-49.91 57.08,-95.94 3.05,-41.75 29.76,-100.05 -6.58,-157.14 -15.99,-25.13 -45.8,-50 -75.39,-56.9l30.53 -40.7c2.94,12.62 9.93,20.92 17.67,29.82l23.05 24.44c13.86,9.7 34.44,13.08 55.65,11.22 3.5,-1.29 7.14,-3.35 10.99,-6.5 8.46,-6.91 17.99,-19.08 20.07,-29.5 2.08,-10.41 -3.27,-19.07 -1.42,-33 1.85,-13.92 10.93,-33.12 13.2,-51.27 2.26,-18.15 -2.27,-35.27 -10.31,-50.12 -8.05,-14.86 -19.6,-27.44 -25.59,-40.64 -5.98,-13.21 -6.39,-27.02 -2.06,-37.44 4.33,-10.43 13.41,-17.44 20.53,-23.52 7.12,-6.09 12.27,-11.25 17.71,-20.06 5.45,-8.82 11.17,-21.29 10.86,-34.18 -0.31,-12.9 -6.64,-26.21 -15.49,-35.45 -8.85,-9.23 -20.2,-14.39 -33.96,-17.23 -13.24,-2.75 -28.72,-3.36 -38.04,-5.53 -100.95,19 -119.86,57.37 -134.09,61.17 2.67,-11.49 5.62,-14.32 6.55,-27.36 1.25,-17.27 -3.45,-16.3 5.6,-28.33 9.16,-12.16 18.38,-11.91 18.38,-46.08 4.74,1.11 40.65,25.46 83.39,22.05 -1.87,-0.64 -3.12,-1.22 -3.64,-1.62 -1.92,-1.47 5.9,-0.58 11.86,-1.14 5.95,-0.56 10.03,-2.55 13.89,-5.53 3.87,-2.98 7.53,-6.95 10.3,-11.32 2.78,-4.36 4.68,-9.12 5.4,-13.8 0.71,-4.68 0.23,-9.29 -4.37,-15.79 -4.6,-6.51 -13.33,-14.93 -26.67,-23.18 -13.33,-8.25 -31.26,-16.35 -45.55,-21.98 -14.28,-5.64 -24.92,-8.81 -37.71,-9.9 -12.79,-1.08 -27.73,-0.08 -37.34,0.56 -1.98,0.12 -3.72,0.24 -5.28,0.33 -10.21,4.46 -21.04,8.21 -36.96,8.04 -20.23,-0.23 -48.68,-6.84 -67.55,-14.43 -16.1,25.78 -26.09,47.52 -35.05,82.05 -11.85,45.73 -18.5,82.88 -8.02,131.29 13.9,64.18 32.34,96.26 98.98,88.58 15.4,-1.77 29.97,0.56 45.69,-1.82 93.95,-14.23 86.13,-30.47 136.42,-60.55l4.27 -2.5c6.15,-3.66 0.72,-1.04 5.56,-3.43l14.49 -3.44c-7.13,30.62 -22.54,33.03 -16.61,81.06 4.24,34.43 22.88,48.48 23.39,71.58 -11.66,-6.17 -21.82,-9.88 -32.97,-17.9 -8.4,-6.04 -19.26,-13.9 -30.16,-17.33 -43.9,-13.86 -134.29,-2.92 -181.19,4.61 -35.04,5.63 -42.58,14.93 -50.97,47.4 -5.42,20.99 -6.31,68.01 -2.43,94.38 1.78,12.02 6.38,27.22 11.2,39.69 8.63,22.31 27.25,39.64 49.85,48.51 40.4,15.84 33.12,-7.19 61.34,33.64 13.24,19.16 17.68,10.95 22.69,24.8 -32.64,-0.73 -58.45,-20.93 -95.33,6.42 -20.81,15.44 -33.1,1.33 -65.64,19.16 -13.06,7.16 -2.2,6.95 -18.81,8.33l17.05 -57.56c9.85,-40.94 -0.24,-79.43 -39.63,-96.23 -19.47,-8.31 -39.85,-5.63 -65.61,-5.63 3.47,-13.01 2.7,-8.13 15.67,-14.86 8.23,-4.26 11.52,-6.29 19.46,-11.07 34.94,-21.07 44.03,-94.44 48.83,-130.95 6.69,-50.96 0.18,-105.27 -48.28,-129.8 -8.9,-4.51 -13.2,-5.36 -21.97,-8.57l-20.49 -6.64 7.73 -6.78c1.19,-3.64 -4.59,-5.23 5.84,-1.39 9.12,-18.85 13.79,-10.7 33.31,-43.31 30.86,-51.53 32.77,-79.62 30.7,-116.07 -0.93,-4.81 -1.6,-10.81 -2.67,-16.73 -2.12,-11.85 -5.81,-23.44 -10.78,-29.78 -4.97,-6.36 -11.2,-7.48 -20.74,-7.71 -9.52,-0.26 -22.33,0.4 -32.35,2.71 -9.99,2.32 -17.2,6.33 -30.18,7.13 -12.97,0.79 -31.69,-1.61 -45.23,-3.68 -13.53,-2.09 -21.85,-3.85 -31.06,-3.85 -9.22,0 -19.29,1.76 -27.55,3.36 -8.24,1.61 -14.65,3.04 -20.49,10.73 -4.13,5.42 -7.97,13.96 -12.64,20.31 -3.19,16.54 -8.53,29.24 -15.73,50.53 -9.85,29.14 -4.47,75.45 -4.56,110.79 -0.16,72.8 11.19,51.01 17.17,98.17 8.14,64.28 26.82,48.57 33.72,78.21 -13.44,1.12 -43.2,14.11 -52.37,22.26 -14.61,13 -13.51,29.27 -28.5,42.74l-79.51 62.94c-16.01,11.91 -26.42,19.93 -41.34,33.29 -12.56,11.26 -21.75,26.14 -27.88,43.35 -6.07,17 -6.12,44.45 -4.4,66.74 0.69,9.01 4.51,22.03 8.8,28.51l12.77 14.38c49.17,55 28.49,44.09 53.24,82.42 0.37,0.58 2.88,4.5 4,6.18 23.79,35.85 59.38,47.15 106.34,40.21 65.82,-9.73 72.19,-20.63 85.46,-94.51 2.92,-16.28 1.74,-15.7 12.87,-15.01 35.55,2.18 32.77,5.52 28.29,14.72 -6.19,12.7 -1.83,5.31 -8.72,10.66 9.83,13.37 2.79,0.45 3.05,11.79 0.58,26.22 -6.34,53.43 37.44,79.49 14.09,8.38 27.48,19.08 45,22.83 28.13,6.03 91.45,16.03 116.24,8.09 30.7,-9.83 31.38,-27.43 125.34,-44.53 5.27,-0.96 5.77,-1.2 13.37,-1.51l4.82 0zm-420.08 -225.75l-1.01 1.02c-0.34,-0.34 0.94,-0.95 1.01,-1.02zm-24.75 21.37l3.95 0.56 -3.95 2.84 0 -3.4zm25.65 -28.62c-10.96,8.12 -22.01,14.95 -25.65,28.62 -12.4,8.3 -6.49,9.28 -16.97,16.96l-4.91 -5.25c-0.45,-0.51 -1.13,-1.3 -1.58,-1.82 -10.49,-12.28 -8.34,-13.39 -20.64,-16.68l98.37 -47.48c-4.17,11.49 -19.01,18.53 -28.62,25.65zm-31.43 -2.92l-1.01 1.01c-0.34,-0.34 0.94,-0.94 1.01,-1.01zm50.88 -27.14l-1.01 1.02c-0.34,-0.34 0.94,-0.95 1.01,-1.02z"/>
     <path class="fil3" d="M4516.75 1656.87c0.18,30.24 -2.31,44.32 -1.06,55.8 3.44,0.27 8.79,4.27 14.07,7.75 7.41,4.89 14.69,8.8 20.4,6.84 5.74,-1.95 9.93,-9.78 9.79,-22.21 -0.14,-12.45 -4.61,-29.49 -4.34,-45.7 0.29,-16.21 5.33,-31.58 5.88,-48.49 0.56,-16.91 -3.35,-35.35 -8.81,-43.6 -5.44,-8.24 -12.42,-6.29 -18.13,2.65 -5.49,8.62 -9.78,23.72 -14.23,30.93 -0.01,0.64 -0.01,1.28 -0.02,1.91 -0.24,20.24 -3.68,30.32 -3.55,54.12z"/>
     <path class="fil3" d="M3729.73 1701.08l-50.75 -125.63c-40.51,-100.09 -34.48,-76.31 -115.01,-105.48 -0.79,-0.29 -1.67,-0.63 -2.45,-0.93 -12.18,-4.58 -13.63,-3.7 -21.64,-15.67 14.21,-6.82 15.66,-3.21 30.66,-13.43 9.91,-6.74 13.32,-9.35 21.56,-19.14l14.76 -19.16c8.34,-14.68 6.27,-25.69 21.2,-29.68 0.19,8.33 10.98,54.32 19.4,65.4 1.39,1.82 11.52,13.99 12.45,14.68 23.61,17.59 105.19,-16.76 126.59,-33.59l50.64 -47.72c0.45,-0.54 1.09,-1.31 1.55,-1.85l15.71 -18.21c17.22,-21.61 26.78,-85.63 28.1,-110.98 2.09,-40.15 -7.17,-62.11 -15.17,-93.43 -16,-62.62 1.13,-117.78 -3.74,-148.81 -0.61,-3.89 -1.02,-7.89 -1.28,-11.97 -3.7,-3.29 -6.13,-9.21 -8.51,-14.36 -3.02,-6.53 -5.99,-11.82 -9.25,-14.72 -3.26,-2.89 -6.84,-3.39 -15.15,-3.56 -8.31,-0.19 -21.36,-0.07 -32.81,0.92 -11.45,0.98 -21.31,2.82 -31.53,2.52 -10.22,-0.31 -20.81,-2.77 -31.9,-3.76 -11.08,-0.98 -22.65,-0.49 -31.21,0.93 -8.56,1.41 -14.1,3.76 -16.91,11.15 -1.87,4.95 -2.52,12.17 -3.3,18.57 3.32,47.99 -15.68,61.41 -0.88,152.82 9.13,56.32 39.51,115.34 103.24,120.64 -0.34,15.01 -3.39,23.96 -3.39,44.1 -15.49,0 -32.64,-2.76 -42.47,-1.41 -15.57,2.13 -17.95,8.28 -32.16,11.58 -4.97,-7.43 -6.78,-8.83 -12.5,-18.02l-38.22 -43.19c-16.75,-12.24 -18.99,-9.5 -42.68,-14.99 -19.82,-4.59 -54.82,-9.59 -75.35,-0.96 -18.54,7.79 -32.27,17.69 -46.34,31.67 -16.14,16.03 -34.25,52.25 -49.49,62.45 -1.49,17.96 -62.81,98.99 -21.63,167.49 2.81,4.65 3.43,6.28 5.84,11.13 24.07,48.52 42.3,59.85 62.64,96.78 9.81,17.84 13.34,36.48 19.52,58.49 20.46,72.92 56.04,75.56 62.53,93.51 -19,4.43 -41.87,9.23 -58.92,19.33 -22.83,13.51 -17.76,15.49 -16.33,-5.92 1.46,-21.75 -7.12,-38.05 -12.92,-57.53 -9.05,-30.39 -65.22,-131.83 -84.6,-166.41 -15.59,-27.84 -33.05,-32.79 -66.68,-25.58 -19.25,4.13 -18.63,7.53 -28.04,19.5 -16.29,20.73 -35.7,29.14 -46.09,55.67 -6.72,17.11 -17.21,55.84 -35.8,62.57 -8.03,-34.5 -2.82,-82.37 -11.52,-113.99 -5.85,-21.3 -21.24,-44.02 -35.46,-59.51 -5.79,-6.32 -9.29,-7.46 -16.55,-13.98 -17.28,-15.5 -59.27,-36.64 -81.69,-43.81 -28.01,-8.96 -73.69,7.42 -109.18,7.42 9.41,-14.06 24.23,-23 34.61,-36.63 23.68,-31.1 45.33,-59.08 59.55,-96.48 4.57,-12 5.06,-24.65 7.1,-36.99 8.96,-54.22 9.33,-48.57 31.81,-97.09 9.29,-20.07 11.74,-50.22 15.67,-72.52 6.79,-38.5 7.13,-66.18 -15.23,-94.07 -11.6,-2.66 -25.78,-10.98 -38.62,-14.92 -15.84,-4.88 -29.64,-3.07 -46.83,-1.82 -17.2,1.24 -37.79,1.92 -56.34,5.2 -18.55,3.28 -35.06,9.16 -49.21,15.16 -14.14,6 -25.9,12.1 -39.82,18.1 -13.91,6 -29.97,11.87 -40.38,19.23 -10.41,7.36 -15.15,16.18 -18.89,27.84 -3.74,11.64 -6.44,26.12 -9.39,35.63 -2.94,9.5 -6.11,14.03 -11.77,18.89 -5.65,4.87 -13.8,10.06 -21.72,15.94 -7.91,5.89 -15.6,12.45 -22.51,20.25 -6.9,7.81 -13,16.85 -17.19,24.33 -4.18,7.46 -6.45,13.35 -9.28,21.94 -2.82,8.6 -6.22,19.91 -6.67,29.54 -0.46,9.61 2.04,17.52 6.72,21.13 4.7,3.61 11.59,2.91 18.4,2.27 4.94,-3.15 10.92,-6.2 18.03,-9.76 9.91,-4.97 8.68,-3.09 17.7,-9.44 7.83,-5.52 7.3,-5.37 16.68,-10.44 119.79,-64.79 108.18,-98.83 139.29,-128.69 8.75,-8.4 18.72,-16.4 31.5,-19.38 -3.84,16.5 -10.01,26.24 -15.46,42.2 -5.56,16.26 -5.56,32.07 -5.02,52.91 1.36,52.18 28.41,56.75 34.05,77.89 -40.23,0 -44.55,-15.35 -81.97,-10.98 -49.28,5.77 -33.84,19.05 -90.07,36.42 -1.36,1.09 -2.78,2.22 -4.27,3.38 -16.24,12.69 -39.6,29.65 -53.06,49.46 -13.45,19.81 -16.99,42.47 -18.36,67.03 -1.36,24.56 -0.55,51.04 1.09,72.47 1.64,21.41 4.09,37.79 11.73,44.21 7.65,6.41 20.48,2.86 29.79,0.78 5.9,-1.32 10.39,-2.05 12.95,-0.45 12.3,-4.94 25.48,-7.92 39.53,-7.92l-44.09 76.09c-0.17,1.04 -0.35,2.13 -0.56,3.25 -4.15,22.87 -16.35,61.91 -22.73,93.24 -6.37,31.32 -6.92,54.93 -4.84,76.86 2.09,21.93 6.8,42.21 12.22,56.64 5.42,14.44 11.52,23.05 16.79,30.27 5.28,7.22 9.73,13.05 21.11,16.1 11.38,3.05 29.71,3.33 44.17,4.15 14.47,0.81 25.09,2.17 30.64,3.69 1,0.28 1.82,0.56 2.46,0.87 31.21,-12.17 33.89,-30.41 46.6,-38.92 4.59,9.59 4.68,26.38 9.59,37.89l30.91 36.94c16.24,18.53 22.42,15.99 27.33,37.11 -23.3,-5.43 -46.22,-23.25 -70.56,-27.81 -8.66,-1.62 -15.63,-2.72 -27.67,-2.85 -42.9,-0.48 -77.07,3.52 -122.25,3.52 -3.93,0 -8.43,-0.77 -13.31,-2.06 -1.54,0.22 -3.03,0.46 -4.47,0.74 -17.64,3.42 -26.49,11.86 -31.9,24.84 -5.4,12.97 -7.33,30.47 -6.79,48.09 0.56,17.64 3.61,35.41 8.19,50.69 4.58,15.27 10.69,28.04 18.33,38.31 7.63,10.28 16.8,18.05 30.54,23.19 13.75,5.13 32.08,7.64 54.99,7.87 22.92,0.22 50.43,-1.84 70.55,-3.77 3.82,-0.37 7.37,-0.74 10.62,-1.06 48.69,-14.4 86.88,-31.59 127.37,-61.8l27.13 -23.74c74.79,-83.62 57.14,-112.7 13.33,-182.01 -8.54,-13.51 -14.1,-27.63 -21.29,-43.15l-30.35 -54.44c-0.44,-0.56 -1.08,-1.33 -1.52,-1.88 -0.43,-0.56 -1.06,-1.34 -1.5,-1.9 -0.61,-0.77 -2.32,-3.07 -2.94,-3.83 -0.28,-0.34 -4.13,-4.83 -4.73,-5.45 -0.24,-0.25 -0.46,-0.48 -0.69,-0.71 -0.75,-0.71 -1.67,-1.56 -2.78,-2.61 -13.36,-12.53 -27.07,-25.31 -48.83,-25.8 1.23,-14.76 1.97,-11.07 11.98,-18.56 20.72,-15.51 23.48,-23.51 32.56,-48.84 8.09,-22.6 8.68,-33.39 21.31,-56.71 7.21,-13.31 5.65,-11.86 18.95,-14.96 0.35,15.49 3.53,26.51 3.42,47.47 -0.25,48.18 -2.75,87.45 22.98,129.66 31.64,51.9 19.42,45.93 39.63,89.26 9,19.3 12.85,26.92 30.32,40.91 0.55,0.45 1.31,1.1 1.87,1.52 33.52,25.15 75.54,27.99 116.67,4.43 63.2,-36.2 63.26,-126.96 63.26,-187.75 23.65,1.97 1.13,10.18 50.88,10.18 -1.34,16.07 -5.18,10.95 -11.74,32.35 -10.31,33.67 -16.75,83.06 -8.45,116.74 16.08,65.24 58.39,83.3 115.14,105.34 32.41,12.58 81.51,9.26 112.74,0.74 39.07,-10.65 71.53,-32.83 98.98,-60.44 0.49,-0.5 1.18,-1.22 1.66,-1.73 0.49,-0.5 1.16,-1.25 1.63,-1.77 24.34,-26.36 68.5,-77.64 70.26,-116.62 1.38,-30.81 -14.18,-44.9 -24.15,-64.34z"/>
     <path class="fil3" d="M3364.17 1105.17c0.49,0.28 -0.93,1.17 0,0zm-54.95 192.16l3.95 0.57 -3.95 2.83 0 -3.4zm8.84 181.84c24.56,-7 40.4,-16.27 50.61,-37.58 31,-64.74 15.66,-85.48 17.32,-99.64 0.94,-7.96 5.85,-9.7 10.9,-14.51 0.52,-0.49 1.27,-1.17 1.78,-1.66 0.51,-0.5 1.22,-1.2 1.71,-1.7l47.97 -53.82c0.45,-0.53 1.09,-1.3 1.54,-1.85 21.21,-25.98 52.32,-72.74 59.46,-103.37 12.51,8.39 19.04,12.7 34.91,19.37 32.36,13.59 55.68,10.32 80.25,-12.74 12.18,-11.43 10.85,-27.09 10.5,-44.05 -0.45,-22.22 -5.24,-25.33 -1.72,-48.84 5.32,-35.51 14.15,-68.53 9.22,-100.63 -2.58,-4.79 -6.25,-10.07 -11.79,-13.66 -7.15,-4.63 -17.39,-6.45 -25.62,-5.39 -8.24,1.04 -14.47,4.98 -22.93,8.64 -8.46,3.66 -19.17,7.04 -27.23,5.72 -8.05,-1.33 -13.45,-7.36 -19.86,-11.85 -6.4,-4.49 -13.82,-7.42 -21.09,-7.6 -7.28,-0.19 -14.4,2.39 -21.27,2.48 -6.86,0.09 -13.45,-2.3 -22.14,-2.84 -8.7,-0.55 -19.5,0.73 -26.91,2.93 -7.41,2.19 -11.43,5.3 -13.96,9.01 -1.84,2.72 -2.88,5.76 -3.11,9.14 1.8,7.06 5.15,12.57 11.37,20.85l30.67 33.79c-32.4,-0.73 -52.53,-16.16 -82.73,2.07 -33.29,20.11 -10.54,61.31 -19.03,70.97 -1.52,1.41 -2.32,2.27 -2.71,2.76 -0.32,-0.19 -1.51,-0.11 -4.87,1.09 -15.83,5.63 -16.68,-1 -27.41,13.86 -30.1,41.68 -22.67,128.46 -22.67,177.21 -7.49,-5 -10.76,-10.76 -16.86,-17.06 -6.82,-7.05 -9.15,-7.69 -20.7,-9.86 -28.48,-5.34 -29,-0.21 -57.42,-0.21 8.54,-16.16 40.91,-33.12 53.11,-65.61 11.34,-30.19 19.53,-57.8 30.4,-88.32l16.63 -44.43c7.19,-22.25 11.65,-35.45 14.74,-43.57 0.64,-9.61 2.91,-21.5 3.82,-30.66 1.02,-10.45 0.23,-17.34 -5.68,-22.94 -5.9,-5.61 -16.91,-9.94 -30.3,-11.52 -13.37,-1.57 -29.1,-0.39 -42.59,1.19 -13.47,1.57 -24.68,3.54 -37.86,7.38 -13.19,3.83 -28.33,9.53 -36.21,14.65 -7.86,5.12 -8.45,9.64 -8.45,17.71 0,8.06 0.59,19.67 1.22,29.66 0.63,9.98 1.3,18.35 2.28,23.56 0.66,3.48 1.46,5.55 0.08,6.19 2.12,17.46 0.89,35.28 -6.2,53.15 -4.89,12.33 -7.37,19.09 -11.77,32.33 -24.11,72.42 -63.53,117.01 -50.96,208.61 1.05,7.62 4.56,26.54 7.27,36.83 11.71,44.46 116.15,109.9 204.29,84.76z"/>
    </g>
   </g>
  </g>
  <path class="fil4" d="M2924.24 944.29l1430.28 0c123.95,0 225.36,101.41 225.36,225.37l0 1430.27c0,123.96 -101.41,225.37 -225.36,225.37l-1430.28 0c-123.95,0 -225.36,-101.41 -225.36,-225.37l0 -1430.27c0,-123.96 101.41,-225.37 225.36,-225.37z"/>
 </g>
</svg>
