<?xml version="1.0" encoding="UTF-8"?>
<!DOCTYPE svg PUBLIC "-//W3C//DTD SVG 1.1//EN" "http://www.w3.org/Graphics/SVG/1.1/DTD/svg11.dtd">
<!-- Creator: CorelDRAW -->
<svg xmlns="http://www.w3.org/2000/svg" xml:space="preserve" width="137.026mm" height="56.0188mm" version="1.1" style="shape-rendering:geometricPrecision; text-rendering:geometricPrecision; image-rendering:optimizeQuality; fill-rule:evenodd; clip-rule:evenodd"
viewBox="0 0 13702.62 5601.88"
 xmlns:xlink="http://www.w3.org/1999/xlink"
 xmlns:xodm="http://www.corel.com/coreldraw/odm/2003">
 <defs>
  <style type="text/css">
   <![CDATA[
    .fil4 {fill:none}
    .fil3 {fill:#8800B5}
    .fil2 {fill:white}
    .fil1 {fill:#8800B5;fill-rule:nonzero}
    .fil0 {fill:white;fill-rule:nonzero}
   ]]>
  </style>
   <clipPath id="id0">
    <path d="M8717.26 999.93l1934.42 0c167.64,0 304.79,137.15 304.79,304.79l0 1934.42c0,167.64 -137.15,304.79 -304.79,304.79l-1934.42 0c-167.64,0 -304.79,-137.15 -304.79,-304.79l0 -1934.42c0,-167.64 137.15,-304.79 304.79,-304.79z"/>
   </clipPath>
 </defs>
 <g id="Camada_x0020_1">
  <metadata id="CorelCorpID_0Corel-Layer"/>
  <path class="fil0" d="M1594.76 2267.32c-0.8,-9.64 -1.6,-19.29 -2.41,-29.74l0 3.62 2.41 16.48 0 9.64zm-596.74 -48.22l-3.62 38.58 0 1.2 3.62 -39.78zm597.95 59.87c0,-4.02 -0.4,-8.03 -1.21,-11.65 0.81,3.21 1.21,6.43 1.21,10.45 0.8,-6.43 1.61,-12.46 2.41,-18.89 4.82,-45.41 9.65,-92.42 14.07,-141.05 4.82,-48.62 11.65,-100.46 20.09,-155.51l67.11 -548.53 388.59 0 -253.17 1821.18 -477.8 0 -65.1 -568.61c-13.26,-103.68 -20.89,-163.96 -23.31,-181.24 -6.43,61.08 -12.45,121.36 -18.88,181.24l-63.49 568.61 -467.36 0 -250.75 -1821.18 421.14 0 68.31 548.53c6.43,55.05 12.86,106.89 18.89,155.51 4.82,36.57 9.64,73.14 14.06,109.3l3.62 34.16 3.62 -42.19c3.21,-32.95 6.83,-66.71 10.45,-101.27 5.62,-48.62 12.85,-100.86 21.29,-156.72l74.35 -547.32 388.18 0 68.32 548.53c6.43,55.85 12.45,107.29 17.68,155.51 4.82,41.39 9.64,82.78 14.06,123.37l3.62 37.77zm1006.63 605.19l87.2 0 -3.61 -1470.37 410.69 0 0 1340.97c0,172.4 -41.39,300.99 -124.18,384.98 -82.78,83.98 -201.72,125.78 -357.24,125.78 -156.32,0 -275.27,-41.8 -357.24,-125.78 -81.98,-83.99 -122.97,-212.58 -122.97,-384.98l0 -1340.97 384.97 0 0 1371.51c0,65.91 27.33,98.86 82.38,98.86zm1225.65 -625.28l120.15 -780.39 9.24 -64.7 53.05 0 494.27 0 0 1821.18 -378.94 0c8.04,-705.64 8.04,-1035.16 1.2,-988.95 -7.23,45.41 -63.09,364.88 -168.37,958.41 -1.61,10.05 -1.61,20.1 0,30.54l-281.3 0c-24.51,1.61 -38.98,-14.86 -43.8,-49.42 -98.85,-675.11 -147.48,-989.36 -145.87,-943.14 1.61,47.82 2.81,95.64 3.62,143.86 0.8,47.82 1.2,100.06 1.2,156.32l0 692.38 -348.4 0 0 -1821.18 554.55 0 129.4 845.09zm1134.82 976.09l-410.69 0 0 -1821.18 481.42 0c59.47,0 118.94,6.43 178.42,19.69 59.07,13.66 112.51,38.58 159.93,75.55 47.42,36.97 85.6,88.41 114.13,154.31 28.93,65.9 43,149.49 43,250.75l0 261.21c0,101.26 -14.07,184.45 -43,249.54 -28.53,65.1 -66.31,116.54 -113.32,154.32 -47.42,37.77 -100.47,63.09 -160.34,76.75 -59.48,13.26 -119.35,19.69 -178.82,19.69l-70.73 0 0 559.37zm0 -1437.41l0 494.27 59.07 0c36.57,0 61.89,-7.23 75.95,-21.7 13.66,-14.46 20.5,-41.79 20.5,-81.97l0 -289.34c0,-40.18 -6.84,-67.11 -20.5,-80.77 -14.06,-13.66 -39.38,-20.49 -75.95,-20.49l-59.07 0zm1080.98 1086.6l87.2 0 -3.61 -1470.37 410.69 0 0 1340.97c0,172.4 -41.39,300.99 -124.18,384.98 -82.78,83.98 -201.72,125.78 -357.24,125.78 -156.32,0 -275.27,-41.8 -357.24,-125.78 -81.98,-83.99 -122.97,-212.58 -122.97,-384.98l0 -1340.97 384.97 0 0 1371.51c0,65.91 27.33,98.86 82.38,98.86zm924.26 -103.68c0,37.78 5.63,64.3 17.68,79.97 11.66,15.67 32.55,23.71 62.29,23.71 28.93,0 49.83,-8.04 61.88,-23.71 12.06,-15.67 18.09,-42.19 18.09,-79.97l0 -41.39c0,-49.43 -12.06,-90.41 -36.57,-122.96 -24.11,-32.55 -55.86,-63.5 -94.44,-92.83 -38.98,-29.34 -82.78,-59.48 -131,-90.02 -48.22,-30.54 -93.23,-69.52 -134.62,-116.13 -41.79,-46.62 -76.35,-104.48 -104.08,-172.8 -28.13,-68.71 -41.79,-155.51 -41.79,-259.59l0 -10.85c0,-156.72 38.98,-278.08 117.74,-363.27 78.36,-85.2 198.11,-127.79 358.85,-127.79 156.32,0 274.87,45.01 355.64,134.22 80.77,89.61 121.36,224.63 121.36,405.06l0 126.18 -384.97 0 0 -179.22c0,-38.18 -5.63,-65.51 -17.28,-81.18 -11.25,-15.67 -31.35,-23.3 -60.68,-23.3 -30.54,0 -51.44,7.63 -62.69,23.3 -11.65,15.67 -17.28,43 -17.28,81.18l0 15.67c0,47.82 12.06,88 36.57,120.96 24.11,32.95 55.86,63.89 94.83,93.22 38.58,28.94 82.38,59.08 130.61,90.42 48.22,31.35 93.23,70.73 134.62,117.34 41.79,46.62 76.35,104.88 104.48,174 27.72,69.52 41.79,155.92 41.79,258.39l0 38.98c0,154.71 -39.78,274.46 -118.95,359.66 -79.56,85.19 -199.32,127.79 -360.46,127.79 -316.25,0 -474.18,-179.23 -474.18,-538.08l0 -169.58 382.56 0 0 222.62z"/>
  <path class="fil1" d="M3096.14 3261.08c42.83,-46.14 84.8,-85.32 125.49,-117.51 41.1,-32.21 69.16,-48.7 85,-49.51 24.75,-1.26 38.14,21.67 40.51,68.36 2.79,54.8 -0.28,114.39 -9.21,178.75 -8.94,64.36 -22.81,127.75 -40.82,189.71 -29.63,105.72 -69.64,223.35 -120.45,352.52 -50.39,129.56 -99.92,244.02 -148.99,343.38 -31.8,63.09 -73.1,139.27 -124.32,228.56 -40.46,68.82 -76.52,119.91 -108.63,152.88 -32.1,32.98 -71,60.6 -116.67,82.87 -40.6,17.94 -75.37,30.7 -105.52,37.94 -35.82,7.93 -65.3,12.68 -87.22,13.8 -39.78,2.02 -70.31,-5.79 -91.98,-23.82 -26.1,-25.12 -50.75,-69.46 -74.76,-133.36 -28.82,-78.31 -58.9,-181.39 -90.29,-310.44 -31.79,-128.63 -54.17,-240.65 -68.01,-336.41 -9.47,-66.27 -17.48,-159.49 -23.61,-280.06 -11.18,-219.64 5.98,-354.42 51.06,-404.34 15.39,-17.46 45.64,-38.95 89.97,-63.6 44.32,-25.04 88.49,-44.79 132.14,-58.82 34.44,-11.11 63.42,-17.48 87.38,-18.69 58.45,-2.98 89.34,28.01 92.64,92.97 1.74,34.1 1.43,100.05 -0.51,197.84 -2.58,197.13 -0.82,351.71 4.86,463.36 9.94,195.28 25.91,340.99 47.91,437.56 12.13,46.19 21.09,78.3 26.9,96.32 28.41,-41.34 51.73,-79.15 70.31,-113.88 18.61,-34.33 36.25,-71.45 52.98,-110.57 34.12,-81.51 58.19,-144.19 71.39,-188.82 44.4,-127.22 77.94,-260 100.19,-398.7 14.12,-98.41 32.48,-169.35 54.71,-212.41 16.5,-35.84 42.21,-74.6 77.55,-115.88zm711.43 1038.35c35.28,-26.63 62.03,-52.82 79.47,-78.13 39.57,-54.11 69.03,-115.04 88.76,-183.2 15.64,-44.75 27.77,-94.22 35.15,-149.13 7.4,-54.52 10.09,-105.53 7.72,-152.22 -2.24,-43.84 -12.28,-65.31 -30.55,-64.38 -25.57,1.3 -61.29,59.28 -107.94,174.4 -27.4,69.37 -49.15,138.05 -65.22,206.02 -16.06,68.39 -22.85,126.94 -20.39,175.26 0.87,17.04 5.32,40.43 13,71.38zm4.38 38.03c11.35,47.05 43.42,69.43 96.6,66.72 59.28,-3.02 134.64,-41.86 226.49,-116.53 53.14,-43.41 89.46,-65.62 108.54,-66.59 23.55,-1.2 46.21,4.16 67.55,15.7 21.35,11.53 32.15,24.01 32.86,37.81 0.72,14.2 -9.7,33.45 -31.66,57.77 -39.68,43.95 -86.31,87.43 -138.67,130.39 -52.76,42.99 -103.84,78.96 -153.25,107.93 -49.38,29.38 -99.05,53.07 -149.02,71.09 -49.96,18.01 -94.63,28.01 -134.42,30.04 -99.05,5.04 -179.66,-19.35 -241.83,-73.17 -62.57,-53.8 -96.05,-127.81 -100.86,-222.39 -3.68,-72.27 7.99,-154.68 34.62,-247.2 26.64,-92.54 64.52,-179.95 113.65,-262.22 57.79,-96.15 131,-177.21 218.77,-243.96 109.07,-80.44 214.76,-123.26 317.87,-128.51 74.7,-3.8 134.36,16.76 179,62.11 45.02,44.93 69.44,108.81 73.66,191.63 3.26,64.14 -9.96,132.38 -40.1,203.93 -30.14,71.54 -76.65,141.47 -139.15,208.97 -51.25,56.74 -101.87,101.65 -152.3,134.34 -50.43,33.09 -95.12,50.43 -134.1,52.41 -17.46,0.89 -35.54,-2.67 -54.25,-10.27zm1028.7 -85.33l-3.66 24.21c0.69,13.39 0.06,32.96 -1.9,58.3 -1.28,39.14 -4.13,71.03 -8.14,96.06 -4.45,24.65 -11.53,45.36 -22.07,62.18 -10.14,16.8 -24.27,35.02 -42.43,54.26 -54.94,56.11 -112.06,85.48 -170.51,88.46 -47.91,2.44 -83.71,-13.24 -108.22,-47 -24.11,-33.78 -38.32,-89.23 -42.29,-167.18 -3.14,-61.71 -0.13,-138.38 9.05,-230.02 9.19,-91.24 22.09,-173.7 38.3,-246.98l7.77 -31.33c-0.23,-4.47 1.69,-14.74 5.8,-30.01 23.74,-109.48 46.88,-190.43 68.59,-243.64 22.13,-53.22 49.63,-96.55 82.93,-129.99 29.6,-26.33 63.9,-40.29 102.87,-42.28 56.42,-2.87 92.27,29.5 107.51,97.1 10.48,-9.89 20.87,-21.82 30.38,-34.92 21.33,-28.76 38.24,-48.34 50.38,-57.92 12.5,-10 26.9,-15.21 43.54,-16.06 67.8,-3.45 105.34,62.21 112.2,196.99 3.74,73.49 -0.75,145.35 -13.07,215.18 -12.32,69.81 -29.34,127.26 -51.08,171.92 -22.15,44.68 -44.99,67.82 -68.53,69.02 -26.4,1.34 -41.91,-47.52 -46.95,-146.58 -2.67,-52.38 -7.59,-93.24 -15.19,-122.56 -7.19,-29.34 -17.71,-52.02 -31.14,-68.02 -21.7,45.48 -31.96,147.75 -31.19,306.87 -1.01,92.04 -1.71,150.28 -2.95,173.94zm761.97 375.98c46.56,-4.81 88.03,-29.71 124,-74.69 36.36,-45.4 53.05,-93.46 50.48,-143.81 -1.77,-34.91 -14.56,-62.35 -38.34,-81.49 -26.03,-23.5 -82.07,-45.07 -168.93,-64.26 -128.12,-30.11 -212.19,-66.53 -252.66,-110.06 -37.6,-34.72 -57.67,-77.25 -60.25,-128 -4.63,-90.93 24.01,-183.98 85.53,-278.69 61.55,-94.31 142.19,-173.3 242.34,-237.02 100.16,-63.3 202.6,-97.82 306.93,-103.13 50.76,-2.59 98.86,6.77 144.73,28.46 45.47,21.69 82.38,51.16 110.37,89.21 28.4,38.04 43.56,80 45.89,125.88 2.3,45.06 -9.52,92.89 -35.48,142.64 -26.37,49.78 -60.04,91.79 -101.85,126.07 -41.41,34.27 -81.58,52.6 -120.56,54.58 -22.33,1.14 -41.65,-2.77 -58.36,-11.28 -16.74,-8.92 -25.38,-18.65 -25.93,-29.62 -0.58,-11.36 1.84,-27.77 7.23,-49.61 14.4,-69.12 20.31,-128.85 17.73,-179.59 -2.54,-49.94 -19.98,-96.67 -52.68,-139.38 -37.2,28.76 -61.68,51.59 -72.65,68.02 -28.68,36.46 -49.81,77.02 -64.21,122.12 -15.95,46.4 -23.12,89.5 -21.07,129.69 1.44,28.42 9.12,51.23 23.36,67.2 13.86,16.38 36.12,29.9 66.36,40.16 30.25,10.68 75.99,21.37 137.19,32.5 101.95,19.65 174.19,39.58 216.37,60.63 10.04,5.19 25.23,15.81 46.01,32.25 31.7,30.95 48.87,72.41 51.49,123.97 2.79,54.81 -11.45,110.88 -42.7,168.65 -31.25,57.76 -81.09,118.09 -149.52,181 -72.64,68.42 -146.23,118.16 -219.92,149.58 -74.09,31.86 -156.61,49.9 -247.95,54.55 -87.7,4.46 -158.01,-9.46 -210.13,-41.81 -52.11,-32.35 -79.71,-78.57 -82.79,-139.06 -2.19,-43.03 12.25,-87.32 43.31,-132.86 31.04,-45.95 70.63,-83.78 118.35,-113.89 48.1,-30.53 96.11,-46.82 143.2,-49.22 35.74,-1.81 54.01,5.4 54.81,21.24 0.4,7.71 -3.82,20.95 -13.03,39.73 -27.62,57.17 -40.44,109.11 -38.04,156.21 1.69,33.28 15.48,64.33 41.37,93.13zm1125.97 -477.36c35.28,-26.63 62.03,-52.82 79.47,-78.13 39.57,-54.11 69.03,-115.04 88.76,-183.2 15.63,-44.75 27.76,-94.21 35.15,-149.13 7.4,-54.52 10.09,-105.53 7.71,-152.22 -2.23,-43.84 -12.27,-65.31 -30.54,-64.38 -25.57,1.3 -61.29,59.28 -107.94,174.4 -27.4,69.37 -49.15,138.05 -65.22,206.02 -16.06,68.39 -22.85,126.94 -20.39,175.26 0.87,17.04 5.32,40.43 13,71.38zm4.37 38.04c11.36,47.04 43.43,69.42 96.61,66.71 59.27,-3.02 134.64,-41.86 226.49,-116.53 53.14,-43.41 89.46,-65.62 108.54,-66.59 23.54,-1.2 46.21,4.16 67.55,15.7 21.34,11.53 32.15,24.01 32.86,37.81 0.72,14.2 -9.7,33.45 -31.66,57.77 -39.69,43.95 -86.32,87.43 -138.67,130.39 -52.76,42.99 -103.84,78.96 -153.25,107.93 -49.38,29.38 -99.05,53.07 -149.02,71.09 -49.96,18.01 -94.63,28.01 -134.42,30.04 -99.05,5.04 -179.66,-19.35 -241.83,-73.17 -62.58,-53.8 -96.05,-127.81 -100.87,-222.39 -3.67,-72.27 8,-154.68 34.63,-247.2 26.63,-92.54 64.52,-179.95 113.65,-262.22 57.79,-96.15 131,-177.21 218.77,-243.96 109.06,-80.44 214.75,-123.26 317.87,-128.51 74.69,-3.8 134.36,16.76 179,62.11 45.02,44.93 69.44,108.81 73.66,191.63 3.26,64.14 -9.96,132.38 -40.1,203.93 -30.14,71.54 -76.65,141.48 -139.15,208.97 -51.25,56.74 -101.87,101.65 -152.3,134.34 -50.43,33.09 -95.12,50.43 -134.1,52.41 -17.46,0.89 -35.55,-2.67 -54.26,-10.26z"/>
  <path class="fil2" d="M12595.85 2996.86l716.24 936.74c50.91,66.57 -68.59,152.39 -152.39,152.39l-821.19 0 0 679.31c0,214.21 -175.25,389.46 -389.46,389.46l-3757.7 0c-214.21,0 -389.46,-175.25 -389.46,-389.46l0 -3976.28c0,-214.21 175.25,-389.46 389.46,-389.46l3757.7 0c214.21,0 389.46,175.25 389.46,389.46l0 262.75 0.76 0c174.04,0 316.42,142.38 316.42,316.42l0 1444.09c0,68.75 -22.23,132.54 -59.84,184.58zm-799.36 -1730.26l542.78 0c55.88,0 101.59,45.71 101.59,101.59l0 1444.09c0,55.88 -45.71,101.59 -101.59,101.59l-542.78 0c-55.88,0 -101.59,-45.71 -101.59,-101.59l0 -1444.09c0,-55.88 45.71,-101.59 101.59,-101.59z"/>
  <path class="fil2" d="M8717.26 999.93l1934.42 0c167.64,0 304.79,137.15 304.79,304.79l0 1934.42c0,167.64 -137.15,304.79 -304.79,304.79l-1934.42 0c-167.64,0 -304.79,-137.15 -304.79,-304.79l0 -1934.42c0,-167.64 137.15,-304.79 304.79,-304.79z"/>
  <g style="clip-path:url(#id0)">
   <g id="_2438740505200">
    <g>
     <path id="_1" class="fil3" d="M8985.62 2839.94c-4.02,-15.06 -28.31,-50.27 -40.01,-60.92l-46.15 -31.85c-5.28,-3.2 -8.83,-5.57 -13.74,-9.19l-16.04 -11.48c-49.48,-28.94 -86.06,-62.16 -99.76,-69.99 -38.34,-21.91 -115.11,-18.05 -166.86,-11.63 -21.34,11.09 -56.7,22.93 -82.76,34.8 -26.98,12.29 -43.96,24.6 -55.22,43.28 -11.25,18.68 -16.76,43.73 -20.15,69.42 -3.4,25.69 -4.68,52 -5.1,71.11 -0.43,19.1 0,30.99 5.09,39.91 5.09,8.92 14.87,14.86 28.02,16.56 13.16,1.7 29.73,-0.84 47.58,-3.51 17.85,-2.67 37.02,-5.46 51.88,-8.43 3,-0.6 5.83,-1.21 8.45,-1.79 46.01,-22.49 61.53,-52.44 79.05,-57.12 0.41,18.67 6.41,36.69 12.3,51.92 12.07,31.21 14.71,25.75 19.81,39.83 -57.94,0 -77.26,-9.51 -125.48,12.16 -0.94,0.42 -1.88,0.83 -2.8,1.23 -1.36,1.21 -2.94,2.54 -4.72,4.01 -11.07,9.14 -29.66,23.52 -46.5,38.09 -16.84,14.57 -31.94,29.34 -43.01,45.87 -11.08,16.53 -18.14,34.84 -20.23,54.75 -2.08,19.9 0.81,41.41 5.29,63.4 4.5,21.99 10.6,44.46 16.22,60.67 5.62,16.22 10.75,26.17 19.95,32.28 9.19,6.1 22.43,8.35 37.99,5.34 15.57,-3.02 33.44,-11.31 44.31,-16.45 2.81,-1.33 5.16,-2.45 7.11,-3.31 6.92,-9.36 11.29,-21.78 13.84,-38.23 2.87,-18.49 1.69,-38.72 1.69,-57.95 22.26,1.85 26.76,16.4 43.56,52.77 48.38,104.72 107.87,103.45 135.36,144.5 -44.6,-0.99 -40.59,-27.21 -133.19,-36.19 -28.35,-2.75 -43.55,-4.85 -54.74,-5.09 -7.81,6.3 -22.82,14.31 -36.55,25 -16.38,12.74 -30.95,29.29 -32.11,51.81 -1.16,22.51 11.08,50.97 30.28,74.81 19.2,23.83 45.35,43.03 69.35,54.29 24,11.25 45.86,14.55 66.04,16.87 20.2,2.32 38.74,3.65 55.95,2.16 17.21,-1.49 33.09,-5.8 47.99,-13.74 14.9,-7.95 28.81,-19.53 40.22,-29.13 11.43,-9.6 20.36,-17.21 30.58,-23.56 10.22,-6.35 21.71,-11.45 32.8,-16.75 0.35,-0.17 0.69,-0.33 1.04,-0.5l11.41 -12.2c37.02,-47.09 39.63,-30.45 59.22,-55.47 105.78,-135.13 0.66,-250.78 -0.2,-289.22 31.98,-7.45 82.05,1.51 130.53,-34.62l46.45 -36.13c2.1,-2.02 6.69,-6.72 6.87,-6.89 0.68,-0.65 1.65,-1.61 2.34,-2.25 0.7,-0.64 1.69,-1.56 2.4,-2.18 38.99,-34.27 62.71,-43.54 111.25,-67.68 67.91,-33.78 93.23,-109.39 57.99,-175.97l-46.04 -45.71c-37.28,-37.59 -56.8,-66.33 -93.41,-90.09 -20.61,-13.38 -35.57,-28.76 -62.4,-29.36 3.75,-14.05 15.55,-27.33 22.94,-41.28 14.39,0 25.73,0.8 39.5,-1.78 13.56,-2.55 20.15,-6.26 33.9,-7.4 0,46.99 11.03,68.93 33.44,95.01 18.87,21.97 41.67,43.68 58.31,65.56l50.74 45.6c7.17,7.41 6.24,11.51 12.73,19.38 20.36,24.69 67.87,19.42 83.34,40.53 -44.15,0 -71.76,15.56 -93.06,39.99 -25.56,29.33 -12.51,43.63 -53.79,74.66 -24.58,18.49 -45.26,38.67 -67.67,60.79 -40.31,39.79 -28.63,37.44 -28.63,90.65 -24.12,5.62 -47.84,16.91 -58.87,37.46 -3.8,7.09 -1.06,3.77 -6.19,12.17 -21.63,35.37 -27.78,63.14 -34.32,103.3 -3.04,18.59 -1.2,12.17 -6.71,25.41 -7.5,18.03 -16.29,34.59 -24.2,51.02 0.98,23.18 -1.23,57.75 5.35,86.22 7.63,33.03 27.11,57.86 50.2,74.66 23.11,16.8 49.85,25.59 80.59,31.7 30.74,6.11 65.49,9.55 88.98,8.4 23.49,-1.15 35.7,-6.87 50.6,-6.68 14.89,0.19 32.46,6.3 52.12,11.84 19.67,5.53 41.45,10.5 67.41,8.97 25.96,-1.53 56.14,-9.55 80.76,-18.9 24.64,-9.36 43.74,-20.06 59.2,-33.42 15.47,-13.37 27.3,-29.4 36.05,-47.87 8.76,-18.47 14.41,-39.36 18.43,-59.55 2.76,-13.89 4.74,-27.44 6.71,-36.44 7.3,-63.04 1.57,-112.9 -49.68,-173.84 -9.6,-11.41 -20.52,-21.21 -21.89,-37.75 35.83,17.19 61.08,18.54 108.85,12.51 191.34,-24.14 127.55,-105.31 157.23,-232.72 7.1,8.17 5.78,5.66 9.45,18.08 1.88,6.37 2.4,12.63 3.79,19.14 7.3,34.18 29.49,72.61 57.63,93.77 30.23,22.73 15.03,34.42 36.96,63.96 17.08,23 48.26,20.38 61.91,39.02 -20.92,-0.47 -45.29,-9.24 -64.06,-13.92 -117.3,-29.29 -237.26,12.02 -239.04,128.53 -0.45,29.47 4.02,45.98 14.31,64.08 7.89,13.88 22.29,27.36 27.3,46.1 -4.36,2.31 -8.31,4.43 -11.89,6.42 -1.51,6.73 -6.29,14.11 -9.43,25.96 -3.62,13.68 -5.07,33.31 -4.06,51.65 1.01,18.34 4.48,35.37 14.58,46.64 10.12,11.26 26.87,16.74 47.07,20.35 20.22,3.62 43.9,5.35 69.74,4.77 25.84,-0.58 53.86,-3.46 72.77,-9.38 18.91,-5.92 28.74,-14.87 33.79,-22.24 5.05,-7.37 5.34,-13.13 3.75,-18.95 -1.58,-5.81 -5.02,-11.65 -10.73,-15.82 -3.76,-2.75 -8.5,-4.77 -11.05,-6.69 -9.53,-2.76 -20.74,-4.43 -33.98,-4.72l0 -9.17c34.54,0 39.21,-5.94 66.54,-20.63l62.85 -65.61c31.95,-51.23 65.55,-101.74 105.07,-147.24 44.18,-50.86 17.86,-91.41 17.86,-165.65 24.01,5.6 37,16.09 64.49,18.37 50.62,4.21 69.97,-32.47 110.13,-54.78l76.75 -42.53c8.72,-4.66 17.88,-9.16 26.47,-14.82l44.54 -33.44c19.05,-19.03 22.15,-21.51 33.59,-49 8.27,-19.88 12.26,-41.17 20.22,-57.77 9.64,7.07 15.21,18.19 26.22,28.84 28.75,27.78 66.38,39.35 97.82,62.74 35.16,26.18 29.03,49.32 90.95,69.62 41.9,13.74 70.9,34.8 94.84,54.6 2.62,1.56 6.52,3.97 10.87,5.95 8.65,3.92 19.06,6.14 27.33,7.25 8.26,1.11 14.36,1.11 17.56,-4.27 3.2,-5.38 3.5,-16.14 2.05,-27.04 -1.46,-10.89 -4.66,-21.95 -5.68,-30.22 -1.01,-8.29 0.14,-13.82 1.74,-23.26 1.6,-9.46 3.65,-22.82 5.97,-38.66 2.32,-15.85 4.94,-34.16 4.04,-45.02 -0.89,-10.85 -5.31,-14.26 -8.48,-14.32 -1.49,-0.03 -2.7,0.67 -3.88,1.15l-12.69 21.46c-0.44,-19.86 -1.1,-18.37 -10.26,-31.03l-72.34 -83.64c-66.36,-79.3 -82.95,-116.3 -128.7,-206.19l-34.88 -47.71c-12.03,-10.89 -11,-5.23 -15.32,-21.38 35.61,-8.29 31.7,-48.18 18.36,-73.4 57.12,0 70.69,4.72 125.01,-12.62 20.89,-6.67 39.23,-13.38 56.2,-20.05 3.07,-3.46 8.44,-7.4 13.63,-11.39 10.27,-7.89 19.79,-15.92 28.86,-22.46 9.09,-6.55 17.72,-11.62 23.67,-16.82 5.95,-5.21 9.23,-10.57 11.16,-21.28 1.94,-10.72 2.53,-26.79 1.49,-44.06 -1.04,-17.26 -3.71,-35.71 -9.23,-49.4 -5.5,-13.69 -13.83,-22.63 -30.05,-31.71 -15.27,-8.56 -37.56,-17.25 -48.04,-25.83 -46.66,-6.44 -95.34,0.56 -132.02,11.87 -22.65,6.99 -41.96,16.78 -60.04,22.54 -57.65,18.36 -122.51,36.54 -165.42,77.72 -38.1,36.56 -41.13,53.29 -40.2,125.32 0.68,53.28 17.03,70.22 18.43,146.73 1.05,57.86 20.3,72.94 64.33,96.23l0 27.53 -27.03 -1.24c-12.65,-0.05 -13.87,-0.43 -25.13,-1.39 -15.61,-1.34 -34.37,2.7 -48.29,7.69 -12.51,4.49 -29.86,13.76 -43.19,21.04 -147.93,80.85 -93.71,147.98 -131.62,175.75 -5.56,-23.88 -22.01,-46.5 -32.92,-68 -3.12,-6.13 -6.16,-13.23 -10.61,-21.5 -15.43,-28.64 -39.27,-46.32 -57.4,-71.06 41.88,0 81.33,10.48 126.03,-7.01 36.08,-14.12 60.79,-31.71 83.68,-58.54 49.93,-58.53 50.94,-149.38 26.18,-220.8 -9.59,-27.65 -23.5,-47.84 -41.73,-68.37l-87.96 -86.38c-110.69,-90.51 -140.05,-83.87 -253.57,-45.76 -18,6.04 -33.84,9.7 -51.96,16.85 -99.62,39.31 -185.05,106.03 -263.3,177.12l-27.52 27.53c-0.99,0.89 -3.96,3.33 -4.92,4.25 -41.52,39.65 -33.01,102.6 -11.13,147.98 21.27,44.1 79.24,147.9 120.84,159 -4.45,16.68 -22.63,23.56 -35.45,33.37 -16.71,12.79 -22.3,18.5 -33.42,35.39 -35.33,53.65 -85.99,79.18 -124.71,141.38 -36.13,58.04 -64.19,63.57 -80.26,89.48 -3.53,5.7 -8.34,16.29 -10.64,21.47 -7.27,16.42 -9.31,29.92 -14.66,49.57 -23.26,85.48 -36.34,134.15 -20.06,223.8 7.36,40.56 16.42,65.73 16.42,107.45 -17.62,-4.1 -34.33,-15.45 -51.11,-16.37 -21.28,-1.16 -13.25,5.42 -34.52,-7.88 -49.15,-30.73 -68.48,-7.86 -116.23,-7.86l0 -9.18c16.48,-1.37 19.09,-6.53 30.1,-15.78 0.72,-0.61 1.73,-1.52 2.46,-2.12 0.74,-0.6 1.79,-1.46 2.54,-2.05 53.02,-41.29 72.74,-59.31 87.6,-137.2 5.88,-30.82 4.58,-56.5 15.25,-85.36 46.77,-126.44 22.62,-60.93 22.62,-129.09l38.51 -21.12c28.48,-27.94 61.01,-57.08 85.36,-88.98l68.5 -78.3c16.78,-19.12 22.66,-30.36 32.62,-54.66 14.23,-34.71 -0.76,-82.11 -16.56,-116.76 -15.99,-35.06 -30.6,-70.23 -55.89,-100.09l-67.36 -88.62c-28.54,-43.82 -60.91,-67.41 -101.49,-95.77l-33.1 -21.96c-47.46,-25.86 -101.09,-48.67 -161.49,-49.66 -106.55,-1.73 -168.89,66.17 -232.01,135.38l-36.64 36.77c-0.73,0.61 -1.79,1.45 -2.52,2.07 -29.35,24.74 -68.82,51.63 -92.27,82.06 -27.01,35.05 -14.19,78.85 6.15,110.3 12.88,19.91 23.18,22.44 44.3,33.7 24.37,12.98 44.81,42.43 69.72,63.32l12.44 10.5c13.11,11.72 28.64,22.04 33.43,39.97 -13.58,4.91 -15.83,18.59 -32.11,22.94zm900.56 -337.23c-4.91,-6.43 -8.5,-0.82 -1.77,-7.46 9.4,-9.29 3.34,0.61 23.32,0.61 31.03,0 52.58,-5.54 81.34,-10.41 33.69,-5.7 54.27,-11.18 79.39,-30.71l12.2 -10.74c27.05,-30.1 31.34,-74.09 47.28,-85.76 0,72.96 23.43,100.37 32.11,137.62 -21.6,0 -31.55,-2.18 -50.26,-4.79 -12.5,-1.73 -38.47,-8.53 -46.74,-8.51 -10.32,0.04 -59.56,30.47 -69.48,39.5 -35.85,32.63 -21.34,130.22 -58.31,157.31 -1.87,-22.42 -16.55,-137.02 -37.52,-165.35 -0.48,-0.37 -2.42,-2.26 -6.95,-6.86 -0.92,-0.94 -3.95,-3.58 -4.61,-4.45z"/>
     <path class="fil3" d="M10443.35 2990.19c-7.55,8.2 -11.95,12.88 -19.91,21.38l-42.04 40.54c-63.78,64.23 -64.07,41.83 -122.22,120.92 -15.29,20.8 -27.48,21.55 -45.3,37.28 -24.13,21.32 -28.68,50.22 -45.09,74.19l-18.63 22.66c-6.17,7.99 -12.54,16.4 -17.37,23.92l-29.69 52.88c-6.85,14.22 -8.84,13.06 -14.78,26.52 -0.8,1.81 -1.51,3.81 -2.13,5.99 1.54,1.18 3.12,2.62 4.78,4.32 10.36,10.64 23.36,31.6 41.93,46.34 18.56,14.73 42.69,23.25 64.97,28.5 22.29,5.26 42.72,7.24 61.74,6.25 19.03,-0.99 36.63,-4.98 52.68,-15.63 16.04,-10.65 30.54,-27.98 35.51,-43.88 0.47,-1.5 0.85,-2.99 1.16,-4.46 -17.33,-8.54 -0.28,-21.04 -42.11,-24.52l0 -13.76c17.59,-7.1 13.77,-38.91 13.77,-55.05 31.29,0 40.91,8.56 75.59,2.22 55.41,-10.14 88.38,-52.73 121.18,-99.06l40.37 -60.56c16.52,-31.94 4.83,-33.7 10.72,-67.59 2.8,-16.11 6.43,-12.52 22.01,-9.24 11.39,2.4 24.41,6.55 34.16,8.18 25.65,4.29 43.29,5.84 72.15,5.84 -9.91,13.53 -15.16,7.72 -35.49,14.97 -56.64,20.17 -49.49,32.6 -60.85,81.37 -23.52,5.48 -32.26,9.85 -44.26,29.13 -9.09,14.59 -15.48,36.34 -13.62,56.17 6.8,72.29 35.26,66.71 87.43,96.18 10,5.65 13.78,8.54 22.87,14.15 48.46,29.86 105.08,-27.39 135.68,-62.59l32.35 -50.22c45.04,-78.26 92.35,-144.73 65.34,-244.75 -13.51,-50.04 -110.19,-71.44 -151.35,-91.79 -27.6,-13.65 -45.7,-36.74 -73.87,-49.99 -41.29,-19.43 -91.78,-21.43 -129.83,0.48 -47.62,27.41 -52.16,33.92 -87.85,72.71z"/>
     <path class="fil3" d="M10567.61 3405.22c-25.42,-17.85 -56.17,-30.47 -103.35,-27.8l-3.6 0.16c-0.57,0.88 -1.51,1.9 -4.88,4.16 -6.28,4.22 -21.05,12.77 -29.68,26.37 -5.14,8.12 -8.09,18.03 -9.67,28.09 3.09,15.14 3.98,31.38 0.79,44.78 0.01,0.05 0.03,0.1 0.04,0.15 1.31,5.55 3.21,10.68 5.84,15.47 6.18,11.25 16.33,20.58 31.69,25.38 15.37,4.8 35.94,5.08 51.85,3.29 15.91,-1.78 27.16,-5.62 37.31,-7.68 10.15,-2.06 19.2,-2.33 33.05,-0.82 13.86,1.5 32.51,4.8 48.29,4.25 15.78,-0.55 28.66,-4.94 33.05,-11.11 4.4,-6.18 0.28,-14.13 -7.13,-21.53 -7.41,-7.41 -18.1,-14.27 -28.39,-20.58 -10.29,-6.3 -20.16,-12.07 -26.48,-18.38 -6.31,-6.31 -9.04,-13.17 -12.79,-20.3 -3.73,-7.14 -8.48,-14.54 -12.45,-19.34 -1.8,-2.17 -3.43,-3.8 -3.49,-4.56z"/>
     <path class="fil3" d="M10892.27 3287.73c-37.42,56.91 -53.63,53.54 -83.29,114.79 -1.27,4.39 -3.2,9.4 -4.51,14.24 -2.55,9.46 -2.7,18.29 -1.6,24.02 1.11,5.74 3.5,8.39 7.74,7.07 4.24,-1.33 10.34,-6.63 20.55,-14.98 10.2,-8.36 24.53,-19.75 36.85,-31.55 12.33,-11.81 22.66,-23.99 32.87,-40.16 10.2,-16.18 20.29,-36.33 28.23,-55.15 7.96,-18.83 13.79,-36.32 15.77,-48.25 1.99,-11.93 0.15,-18.3 -3.26,-21.04 -3.41,-2.76 -8.36,-1.89 -13.26,1.84 -2.56,1.94 -5.1,4.66 -7.86,7.42 -9.96,13.61 -19.12,27.9 -28.23,41.75z"/>
     <path class="fil3" d="M10843.68 2690.23c6.7,2.87 15.28,8.7 23.39,12.62 9.52,4.62 18.38,6.62 26.95,6.34 8.58,-0.29 16.87,-2.87 23.3,-9.01 6.43,-6.15 11,-15.86 14.42,-29.15 3.44,-13.29 5.72,-30.15 4.43,-47.01 -1.28,-16.86 -6.13,-33.72 -12.57,-53.44 -6.43,-19.73 -14.43,-42.3 -13.57,-58.16 0.86,-15.86 10.57,-25.01 18.14,-37.44 7.58,-12.43 13.01,-28.15 15.14,-45.87 2.15,-17.72 1.01,-37.44 -5.28,-48.15 -4.87,-8.3 -12.82,-11.21 -22.47,-10.1 -14.28,6.41 -27.7,13 -39.92,19.41 -125.66,65.94 -141.96,93.2 -92.26,207.11l29.58 57.58c5.34,8.64 17.16,22.17 30.72,35.27z"/>
     <path class="fil3" d="M10674.52 2107.07c27.78,-0.5 41.19,2.95 60.53,-3.98 60.39,-21.62 72.65,-67.5 77.2,-129.76 4.13,-56.47 40.25,-135.31 -8.89,-212.53 -21.63,-33.99 -61.95,-67.62 -101.97,-76.95l41.29 -55.05c3.98,17.07 13.43,28.29 23.9,40.33l31.17 33.05c18.75,13.13 46.59,17.69 75.27,15.18 4.74,-1.75 9.66,-4.53 14.87,-8.79 11.44,-9.35 24.33,-25.81 27.14,-39.9 2.81,-14.08 -4.43,-25.79 -1.92,-44.63 2.5,-18.83 14.78,-44.79 17.85,-69.34 3.06,-24.55 -3.07,-47.71 -13.95,-67.79 -10.88,-20.09 -26.5,-37.11 -34.6,-54.96 -8.09,-17.87 -8.64,-36.55 -2.79,-50.64 5.86,-14.1 18.14,-23.58 27.76,-31.81 9.63,-8.23 16.6,-15.21 23.96,-27.13 7.37,-11.93 15.11,-28.79 14.69,-46.23 -0.42,-17.44 -8.99,-35.45 -20.96,-47.94 -11.96,-12.49 -27.31,-19.46 -45.92,-23.31 -17.91,-3.72 -38.85,-4.54 -51.45,-7.47 -136.53,25.69 -162.11,77.58 -181.36,82.72 3.62,-15.54 7.6,-19.36 8.87,-37 1.69,-23.35 -4.67,-22.05 7.57,-38.31 12.39,-16.45 24.85,-16.11 24.85,-62.32 6.41,1.49 54.98,34.43 112.79,29.82 -2.53,-0.87 -4.22,-1.66 -4.93,-2.2 -2.59,-1.98 7.99,-0.78 16.04,-1.53 8.05,-0.76 13.57,-3.45 18.79,-7.48 5.23,-4.04 10.18,-9.41 13.93,-15.31 3.76,-5.9 6.33,-12.34 7.3,-18.67 0.97,-6.33 0.32,-12.57 -5.9,-21.36 -6.23,-8.8 -18.03,-20.19 -36.07,-31.34 -18.03,-11.17 -42.28,-22.12 -61.61,-29.73 -19.32,-7.63 -33.7,-11.92 -51,-13.39 -17.3,-1.47 -37.51,-0.11 -50.51,0.75 -2.67,0.17 -5.03,0.33 -7.14,0.45 -13.8,6.03 -28.45,11.11 -49.98,10.88 -27.36,-0.31 -65.84,-9.25 -91.36,-19.52 -21.77,34.87 -35.29,64.27 -47.4,110.97 -16.03,61.85 -25.02,112.09 -10.85,177.57 18.79,86.8 43.73,130.19 133.86,119.8 20.83,-2.4 40.54,0.76 61.8,-2.46 127.07,-19.25 116.49,-41.21 184.5,-81.9l5.78 -3.38c8.32,-4.95 0.98,-1.41 7.52,-4.63l19.59 -4.66c-9.64,41.41 -30.48,44.68 -22.46,109.63 5.74,46.57 30.94,65.57 31.64,96.82 -15.77,-8.35 -29.51,-13.37 -44.6,-24.22 -11.35,-8.16 -26.04,-18.79 -40.78,-23.44 -59.38,-18.74 -181.63,-3.94 -245.06,6.24 -47.39,7.61 -57.59,20.19 -68.94,64.11 -7.33,28.38 -8.53,91.98 -3.28,127.64 2.4,16.26 8.62,36.82 15.14,53.68 11.68,30.18 36.86,53.62 67.43,65.61 54.64,21.43 44.79,-9.72 82.96,45.5 17.91,25.91 23.91,14.81 30.68,33.54 -44.14,-0.99 -79.05,-28.3 -128.93,8.69 -28.14,20.88 -44.76,1.79 -88.78,25.91 -17.66,9.68 -2.97,9.4 -25.43,11.27l23.06 -77.86c13.32,-55.36 -0.33,-107.42 -53.6,-130.15 -26.34,-11.23 -53.9,-7.61 -88.74,-7.61 4.7,-17.59 3.65,-11 21.2,-20.09 11.13,-5.77 15.58,-8.51 26.31,-14.98 47.26,-28.5 59.55,-127.73 66.04,-177.1 9.05,-68.92 0.25,-142.38 -65.29,-175.56 -12.04,-6.1 -17.85,-7.25 -29.72,-11.58l-27.71 -8.98 10.46 -9.18c1.6,-4.92 -6.21,-7.07 7.89,-1.87 12.34,-25.5 18.66,-14.48 45.06,-58.58 41.73,-69.69 44.32,-107.68 41.52,-156.98 -1.26,-6.51 -2.17,-14.62 -3.61,-22.63 -2.87,-16.03 -7.86,-31.7 -14.58,-40.28 -6.72,-8.6 -15.15,-10.12 -28.05,-10.43 -12.88,-0.34 -30.2,0.54 -43.75,3.67 -13.52,3.14 -23.27,8.56 -40.82,9.64 -17.54,1.07 -42.87,-2.17 -61.18,-4.98 -18.3,-2.82 -29.55,-5.2 -42.01,-5.2 -12.46,0 -26.09,2.38 -37.26,4.55 -11.14,2.17 -19.81,4.11 -27.71,14.51 -5.58,7.33 -10.78,18.88 -17.09,27.47 -4.32,22.36 -11.54,39.54 -21.28,68.34 -13.32,39.41 -6.04,102.04 -6.16,149.84 -0.22,98.46 15.13,68.99 23.22,132.77 11.01,86.93 36.27,65.69 45.6,105.78 -18.18,1.51 -58.43,19.08 -70.82,30.1 -19.77,17.59 -18.28,39.59 -38.55,57.8l-107.54 85.13c-21.65,16.11 -35.73,26.95 -55.91,45.02 -16.99,15.23 -29.42,35.36 -37.71,58.63 -8.2,23 -8.27,60.12 -5.95,90.27 0.94,12.18 6.11,29.79 11.9,38.56l17.27 19.44c66.51,74.39 38.54,59.64 72.01,111.48 0.5,0.78 3.9,6.09 5.41,8.36 32.18,48.48 80.31,63.77 143.83,54.38 89.02,-13.16 97.63,-27.9 115.58,-127.82 3.95,-22.02 2.35,-21.24 17.41,-20.31 48.08,2.96 44.32,7.47 38.25,19.91 -8.37,17.18 -2.47,7.19 -11.79,14.42 13.29,18.09 3.78,0.61 4.12,15.95 0.79,35.46 -8.57,72.26 50.64,107.5 19.06,11.34 37.17,25.81 60.86,30.88 38.05,8.16 123.69,21.68 157.21,10.95 41.53,-13.3 42.45,-37.11 169.52,-60.23 7.13,-1.3 7.81,-1.63 18.09,-2.04l6.52 -0.01zm-568.15 -305.31l-1.37 1.37c-0.46,-0.45 1.28,-1.28 1.37,-1.37zm-33.48 28.9l5.35 0.76 -5.35 3.83 0 -4.59zm34.69 -38.71c-14.82,10.98 -29.76,20.22 -34.69,38.71 -16.77,11.22 -8.77,12.55 -22.94,22.94l-6.65 -7.11c-0.6,-0.68 -1.53,-1.75 -2.14,-2.46 -14.18,-16.61 -11.28,-18.11 -27.91,-22.55l133.04 -64.22c-5.63,15.54 -25.71,25.06 -38.71,34.69zm-42.5 -3.95l-1.37 1.37c-0.46,-0.46 1.28,-1.28 1.37,-1.37zm68.81 -36.7l-1.37 1.37c-0.45,-0.46 1.28,-1.28 1.37,-1.37z"/>
     <path class="fil3" d="M10871.1 1963.67c0.24,40.9 -3.13,59.94 -1.44,75.47 4.66,0.37 11.9,5.77 19.04,10.48 10.02,6.62 19.86,11.9 27.59,9.26 7.76,-2.65 13.43,-13.23 13.23,-30.05 -0.18,-16.83 -6.23,-39.88 -5.86,-61.8 0.39,-21.93 7.2,-42.71 7.95,-65.58 0.75,-22.88 -4.53,-47.82 -11.91,-58.97 -7.37,-11.15 -16.81,-8.51 -24.52,3.58 -7.43,11.66 -13.24,32.08 -19.25,41.84 -0.01,0.86 -0.02,1.72 -0.03,2.58 -0.32,27.37 -4.98,41 -4.8,73.19z"/>
     <path class="fil3" d="M9806.67 2023.47l-68.63 -169.92c-54.79,-135.36 -46.64,-103.2 -155.55,-142.65 -1.07,-0.39 -2.26,-0.86 -3.32,-1.26 -16.47,-6.2 -18.43,-5.01 -29.27,-21.2 19.22,-9.22 21.18,-4.34 41.47,-18.16 13.41,-9.12 18.02,-12.64 29.16,-25.89l19.97 -25.91c11.28,-19.85 8.47,-34.75 28.67,-40.14 0.26,11.26 14.85,73.46 26.24,88.45 1.87,2.46 15.57,18.92 16.84,19.86 31.92,23.79 142.26,-22.67 171.2,-45.43l68.49 -64.55c0.61,-0.72 1.48,-1.76 2.1,-2.49l21.25 -24.63c23.29,-29.23 36.21,-115.82 38,-150.1 2.83,-54.3 -9.69,-84 -20.52,-126.36 -21.64,-84.69 1.53,-159.3 -5.05,-201.27 -0.83,-5.26 -1.38,-10.67 -1.74,-16.18 -5,-4.46 -8.28,-12.46 -11.5,-19.42 -4.09,-8.84 -8.1,-15.99 -12.51,-19.91 -4.41,-3.91 -9.25,-4.59 -20.49,-4.82 -11.24,-0.26 -28.89,-0.1 -44.38,1.24 -15.49,1.33 -28.82,3.82 -42.64,3.41 -13.82,-0.42 -28.15,-3.74 -43.15,-5.08 -14.98,-1.33 -30.63,-0.66 -42.21,1.26 -11.57,1.9 -19.07,5.08 -22.87,15.07 -2.53,6.7 -3.41,16.47 -4.46,25.12 4.49,64.91 -21.21,83.06 -1.19,206.69 12.34,76.17 53.43,155.99 139.63,163.16 -0.46,20.3 -4.59,32.41 -4.59,59.64 -20.94,0 -44.14,-3.73 -57.44,-1.91 -21.06,2.89 -24.28,11.2 -43.49,15.67 -6.73,-10.05 -9.17,-11.95 -16.91,-24.38l-51.69 -58.41c-22.66,-16.55 -25.68,-12.84 -57.72,-20.27 -26.81,-6.21 -74.15,-12.97 -101.91,-1.3 -25.08,10.54 -43.64,23.92 -62.68,42.83 -21.82,21.69 -46.32,70.67 -66.93,84.47 -2.02,24.29 -84.95,133.88 -29.25,226.52 3.79,6.29 4.64,8.49 7.89,15.05 32.56,65.62 57.22,80.95 84.72,130.9 13.27,24.13 18.05,49.34 26.4,79.11 27.67,98.61 75.79,102.19 84.57,126.46 -25.69,5.99 -56.63,12.48 -79.69,26.14 -30.87,18.28 -24.02,20.95 -22.08,-8 1.98,-29.41 -9.63,-51.46 -17.48,-77.81 -12.23,-41.1 -88.2,-178.29 -114.41,-225.07 -21.09,-37.65 -44.7,-44.34 -90.19,-34.59 -26.03,5.58 -25.19,10.18 -37.92,26.37 -22.03,28.04 -48.28,39.42 -62.34,75.29 -9.08,23.15 -23.27,75.53 -48.41,84.63 -10.87,-46.66 -3.82,-111.4 -15.58,-154.17 -7.92,-28.81 -28.73,-59.54 -47.96,-80.49 -7.84,-8.54 -12.57,-10.08 -22.39,-18.9 -23.37,-20.97 -80.16,-49.55 -110.48,-59.25 -37.88,-12.12 -99.66,10.03 -147.66,10.03 12.73,-19.02 32.77,-31.1 46.8,-49.54 32.03,-42.06 61.32,-79.9 80.55,-130.48 6.17,-16.24 6.84,-33.35 9.6,-50.04 12.12,-73.33 12.62,-65.68 43.02,-131.31 12.57,-27.14 15.88,-67.92 21.2,-98.08 9.18,-52.07 9.64,-89.5 -20.6,-127.23 -15.69,-3.59 -34.87,-14.85 -52.24,-20.18 -21.42,-6.59 -40.08,-4.14 -63.34,-2.46 -23.25,1.68 -51.1,2.6 -76.19,7.04 -25.09,4.44 -47.42,12.39 -66.56,20.5 -19.12,8.12 -35.02,16.37 -53.85,24.48 -18.81,8.11 -40.54,16.06 -54.62,26.01 -14.08,9.95 -20.49,21.88 -25.55,37.65 -5.05,15.75 -8.71,35.33 -12.69,48.19 -3.98,12.85 -8.27,18.97 -15.92,25.55 -7.64,6.58 -18.67,13.6 -29.38,21.56 -10.7,7.96 -21.1,16.83 -30.44,27.39 -9.33,10.56 -17.59,22.79 -23.25,32.9 -5.66,10.09 -8.72,18.05 -12.55,29.68 -3.82,11.63 -8.41,26.92 -9.03,39.94 -0.61,13 2.77,23.7 9.1,28.58 6.35,4.88 15.67,3.94 24.88,3.07 6.68,-4.25 14.77,-8.38 24.38,-13.2 13.41,-6.72 11.75,-4.17 23.94,-12.76 10.6,-7.47 9.88,-7.26 22.57,-14.13 162.01,-87.62 146.31,-133.66 188.38,-174.05 11.83,-11.35 25.32,-22.17 42.61,-26.2 -5.2,22.31 -13.55,35.49 -20.92,57.07 -7.52,21.99 -7.52,43.37 -6.79,71.56 1.84,70.57 38.43,76.75 46.06,105.34 -54.42,0 -60.26,-20.76 -110.86,-14.84 -66.65,7.8 -45.78,25.76 -121.82,49.25 -1.84,1.47 -3.77,3 -5.78,4.57 -21.96,17.16 -53.56,40.1 -71.76,66.9 -18.19,26.79 -22.98,57.43 -24.83,90.65 -1.84,33.22 -0.74,69.03 1.47,98.01 2.22,28.96 5.54,51.12 15.87,59.8 10.34,8.67 27.7,3.87 40.29,1.05 7.98,-1.78 14.05,-2.77 17.51,-0.6 16.64,-6.68 34.46,-10.72 53.47,-10.72l-59.64 102.91c-0.22,1.41 -0.47,2.88 -0.75,4.4 -5.62,30.93 -22.12,83.73 -30.75,126.1 -8.61,42.36 -9.36,74.29 -6.54,103.96 2.82,29.66 9.2,57.08 16.52,76.6 7.33,19.53 15.59,31.18 22.72,40.94 7.14,9.76 13.15,17.65 28.54,21.77 15.4,4.13 40.19,4.51 59.75,5.62 19.57,1.09 33.93,2.93 41.43,4.99 1.35,0.37 2.47,0.75 3.33,1.18 42.21,-16.46 45.83,-41.14 63.02,-52.64 6.22,12.96 6.34,35.67 12.98,51.24l41.8 49.96c21.96,25.06 30.32,21.63 36.97,50.19 -31.52,-7.34 -62.52,-31.44 -95.43,-37.61 -11.72,-2.19 -21.15,-3.68 -37.43,-3.86 -58.02,-0.65 -104.23,4.77 -165.34,4.77 -5.31,0 -11.4,-1.04 -18,-2.79 -2.08,0.29 -4.1,0.62 -6.04,1 -23.87,4.62 -35.84,16.04 -43.15,33.6 -7.3,17.54 -9.92,41.2 -9.18,65.04 0.75,23.85 4.88,47.89 11.07,68.55 6.2,20.65 14.46,37.92 24.79,51.82 10.33,13.9 22.72,24.41 41.31,31.36 18.6,6.94 43.38,10.33 74.37,10.64 31,0.3 68.2,-2.48 95.42,-5.1 5.17,-0.5 9.97,-0.99 14.36,-1.43 65.86,-19.47 117.51,-42.72 172.26,-83.58l36.7 -32.11c101.15,-113.1 77.28,-152.42 18.03,-246.16 -11.55,-18.28 -19.07,-37.37 -28.8,-58.36l-41.05 -73.63c-0.59,-0.76 -1.46,-1.8 -2.05,-2.55 -0.58,-0.75 -1.44,-1.81 -2.03,-2.56 -0.83,-1.05 -3.13,-4.16 -3.98,-5.19 -0.37,-0.46 -5.58,-6.53 -6.39,-7.37 -0.32,-0.33 -0.63,-0.65 -0.93,-0.96 -1.02,-0.95 -2.27,-2.11 -3.77,-3.52 -18.06,-16.95 -36.6,-34.24 -66.03,-34.9 1.66,-19.96 2.66,-14.97 16.19,-25.1 28.03,-20.98 31.76,-31.8 44.04,-66.06 10.95,-30.56 11.74,-45.16 28.82,-76.69 9.76,-18.01 7.64,-16.05 25.64,-20.24 0.47,20.95 4.77,35.85 4.62,64.2 -0.34,65.17 -3.72,118.28 31.08,175.36 42.79,70.2 26.26,62.13 53.6,120.73 12.17,26.1 17.37,36.41 41.01,55.33 0.74,0.6 1.77,1.48 2.53,2.05 45.33,34.02 102.16,37.86 157.79,6 85.47,-48.96 85.56,-171.71 85.56,-253.93 31.98,2.66 1.52,13.77 68.81,13.77 -1.81,21.73 -7.01,14.8 -15.88,43.75 -13.95,45.53 -22.66,112.34 -11.43,157.89 21.75,88.23 78.97,112.66 155.73,142.46 43.83,17.02 110.24,12.53 152.47,1.01 52.85,-14.41 96.74,-44.41 133.87,-81.75 0.66,-0.67 1.6,-1.65 2.25,-2.33 0.66,-0.68 1.56,-1.7 2.2,-2.4 32.92,-35.65 92.64,-105.01 95.02,-157.73 1.87,-41.66 -19.17,-60.72 -32.66,-87.01z"/>
     <path class="fil3" d="M9312.27 1217.51c0.65,0.38 -1.26,1.59 0,0zm-74.33 259.9l5.35 0.77 -5.35 3.82 0 -4.59zm11.96 245.93c33.22,-9.47 54.64,-22 68.45,-50.83 41.93,-87.56 21.18,-115.61 23.43,-134.76 1.26,-10.76 7.91,-13.12 14.74,-19.62 0.7,-0.67 1.71,-1.58 2.4,-2.25 0.69,-0.67 1.65,-1.62 2.32,-2.3l64.87 -72.79c0.61,-0.72 1.48,-1.76 2.09,-2.5 28.68,-35.14 70.76,-98.38 80.41,-139.8 16.92,11.34 25.75,17.17 47.22,26.19 43.76,18.38 75.31,13.96 108.54,-17.23 16.47,-15.45 14.67,-36.63 14.2,-59.57 -0.61,-30.05 -7.09,-34.26 -2.33,-66.06 7.2,-48.02 19.14,-92.69 12.47,-136.1 -3.49,-6.48 -8.45,-13.62 -15.95,-18.47 -9.66,-6.26 -23.52,-8.73 -34.65,-7.3 -11.14,1.41 -19.56,6.74 -31.01,11.69 -11.44,4.95 -25.92,9.53 -36.82,7.74 -10.89,-1.8 -18.2,-9.96 -26.86,-16.03 -8.66,-6.07 -18.69,-10.03 -28.53,-10.28 -9.84,-0.25 -19.48,3.23 -28.76,3.36 -9.28,0.12 -18.2,-3.11 -29.95,-3.85 -11.76,-0.74 -26.37,0.99 -36.4,3.97 -10.02,2.96 -15.46,7.17 -18.87,12.18 -2.5,3.68 -3.9,7.8 -4.21,12.36 2.43,9.55 6.97,17 15.38,28.2l41.48 45.7c-43.83,-0.98 -71.05,-21.85 -111.89,2.81 -45.03,27.19 -14.26,82.92 -25.74,95.98 -2.06,1.91 -3.14,3.07 -3.66,3.73 -0.44,-0.26 -2.05,-0.14 -6.6,1.48 -21.4,7.61 -22.55,-1.35 -37.06,18.74 -40.71,56.37 -30.67,173.74 -30.67,239.68 -10.12,-6.77 -14.55,-14.56 -22.8,-23.08 -9.22,-9.53 -12.37,-10.4 -27.99,-13.33 -38.52,-7.22 -39.22,-0.29 -77.67,-0.29 11.56,-21.85 55.33,-44.79 71.83,-88.74 15.34,-40.82 26.42,-78.17 41.12,-119.45l22.49 -60.08c9.73,-30.1 15.76,-47.95 19.94,-58.93 0.86,-13 3.94,-29.08 5.16,-41.47 1.38,-14.13 0.32,-23.45 -7.67,-31.03 -7.98,-7.58 -22.88,-13.44 -40.98,-15.57 -18.09,-2.13 -39.37,-0.54 -57.61,1.6 -18.22,2.13 -33.38,4.79 -51.21,9.98 -17.83,5.19 -38.31,12.9 -48.96,19.82 -10.64,6.92 -11.44,13.04 -11.44,23.95 0,10.9 0.8,26.6 1.66,40.11 0.85,13.5 1.75,24.82 3.08,31.87 0.89,4.7 1.97,7.51 0.11,8.37 2.86,23.61 1.2,47.72 -8.39,71.89 -6.61,16.67 -9.96,25.81 -15.92,43.72 -32.61,97.95 -85.92,158.25 -68.92,282.14 1.42,10.3 6.17,35.89 9.84,49.81 15.83,60.13 157.08,148.64 276.29,114.64z"/>
    </g>
   </g>
  </g>
  <path class="fil4" d="M8717.26 999.93l1934.42 0c167.64,0 304.79,137.15 304.79,304.79l0 1934.42c0,167.64 -137.15,304.79 -304.79,304.79l-1934.42 0c-167.64,0 -304.79,-137.15 -304.79,-304.79l0 -1934.42c0,-167.64 137.15,-304.79 304.79,-304.79z"/>
 </g>
</svg>
